<svg width="197" height="204" viewBox="0 0 197 204" fill="none" xmlns="http://www.w3.org/2000/svg">
<g filter="url(#filter0_f_824_1539)">
<path d="M103.541 88H86.6714C83.7517 88 81.3848 90.3992 81.3848 93.3588V110.458C81.3848 113.418 83.7517 115.817 86.6714 115.817H103.541C106.46 115.817 108.827 113.418 108.827 110.458V93.3588C108.827 90.3992 106.46 88 103.541 88Z" fill="url(#paint0_linear_824_1539)"/>
</g>
<path d="M102.156 88H85.2867C82.3669 88 80 90.3992 80 93.3588V110.458C80 113.418 82.3669 115.817 85.2867 115.817H102.156C105.076 115.817 107.443 113.418 107.443 110.458V93.3588C107.443 90.3992 105.076 88 102.156 88Z" fill="url(#paint1_linear_824_1539)"/>
<g filter="url(#filter1_b_824_1539)">
<path d="M110.714 96.1833H93.8443C90.9245 96.1833 88.5576 98.5826 88.5576 101.542V118.642C88.5576 121.601 90.9245 124 93.8443 124H110.714C113.633 124 116 121.601 116 118.642V101.542C116 98.5826 113.633 96.1833 110.714 96.1833Z" fill="url(#paint2_linear_824_1539)"/>
<path d="M110.714 95.1833H93.8443C90.3595 95.1833 87.5576 98.0431 87.5576 101.542V118.642C87.5576 122.141 90.3595 125 93.8443 125H110.714C114.198 125 117 122.141 117 118.642V101.542C117 98.0431 114.198 95.1833 110.714 95.1833Z" stroke="url(#paint3_linear_824_1539)" stroke-width="2"/>
</g>
<defs>
<filter id="filter0_f_824_1539" x="-6.61523" y="0" width="203.442" height="203.817" filterUnits="userSpaceOnUse" color-interpolation-filters="sRGB">
<feFlood flood-opacity="0" result="BackgroundImageFix"/>
<feBlend mode="normal" in="SourceGraphic" in2="BackgroundImageFix" result="shape"/>
<feGaussianBlur stdDeviation="44" result="effect1_foregroundBlur_824_1539"/>
</filter>
<filter id="filter1_b_824_1539" x="68.5576" y="76.1833" width="67.4424" height="67.8171" filterUnits="userSpaceOnUse" color-interpolation-filters="sRGB">
<feFlood flood-opacity="0" result="BackgroundImageFix"/>
<feGaussianBlur in="BackgroundImageFix" stdDeviation="9"/>
<feComposite in2="SourceAlpha" operator="in" result="effect1_backgroundBlur_824_1539"/>
<feBlend mode="normal" in="SourceGraphic" in2="effect1_backgroundBlur_824_1539" result="shape"/>
</filter>
<linearGradient id="paint0_linear_824_1539" x1="108.827" y1="115.817" x2="74.3009" y2="114.882" gradientUnits="userSpaceOnUse">
<stop offset="0.0729167" stop-color="#B6F6FF"/>
<stop offset="0.531294" stop-color="#F7FFFB"/>
<stop offset="1" stop-color="#A8BBFF"/>
</linearGradient>
<linearGradient id="paint1_linear_824_1539" x1="107.443" y1="115.817" x2="72.9161" y2="114.882" gradientUnits="userSpaceOnUse">
<stop offset="0.0729167" stop-color="#B6F6FF"/>
<stop offset="0.531294" stop-color="#F7FFFB"/>
<stop offset="1" stop-color="#A8BBFF"/>
</linearGradient>
<linearGradient id="paint2_linear_824_1539" x1="90.1069" y1="122.43" x2="114.781" y2="98.0882" gradientUnits="userSpaceOnUse">
<stop stop-color="white" stop-opacity="0.2"/>
<stop offset="1" stop-color="white" stop-opacity="0.49"/>
</linearGradient>
<linearGradient id="paint3_linear_824_1539" x1="90.4948" y1="98.3711" x2="113.766" y2="122.919" gradientUnits="userSpaceOnUse">
<stop stop-color="white"/>
<stop offset="1" stop-color="white" stop-opacity="0"/>
</linearGradient>
</defs>
</svg>
