<svg width="80" height="80" viewBox="0 0 80 80" fill="none" xmlns="http://www.w3.org/2000/svg">
<rect x="0.5" y="0.5" width="79" height="79" rx="39.5" fill="url(#paint0_linear_702_317)"/>
<rect x="0.5" y="0.5" width="79" height="79" rx="39.5" stroke="#3ED5DD"/>
<path d="M39.8468 43.7701C41.8791 43.7701 43.5266 42.1225 43.5266 40.0902C43.5266 38.0579 41.8791 36.4104 39.8468 36.4104C37.8145 36.4104 36.167 38.0579 36.167 40.0902C36.167 42.1225 37.8145 43.7701 39.8468 43.7701Z" fill="white"/>
<path d="M39.8468 41.478C40.6133 41.478 41.2346 40.8567 41.2346 40.0902C41.2346 39.3237 40.6133 38.7024 39.8468 38.7024C39.0803 38.7024 38.459 39.3237 38.459 40.0902C38.459 40.8567 39.0803 41.478 39.8468 41.478Z" fill="#171717"/>
<path d="M20.8086 51.0974C21.5869 51.0974 22.2178 50.4664 22.2178 49.6881C22.2178 48.9099 21.5869 48.2789 20.8086 48.2789C20.0303 48.2789 19.3994 48.9099 19.3994 49.6881C19.3994 50.4664 20.0303 51.0974 20.8086 51.0974Z" fill="white"/>
<path d="M60.4922 40.0902C61.0558 40.0902 61.5127 39.6333 61.5127 39.0697C61.5127 38.5061 61.0558 38.0492 60.4922 38.0492C59.9286 38.0492 59.4717 38.5061 59.4717 39.0697C59.4717 39.6333 59.9286 40.0902 60.4922 40.0902Z" fill="white"/>
<path d="M31.2481 20.9273C31.8117 20.9273 32.2686 20.4704 32.2686 19.9068C32.2686 19.3431 31.8117 18.8862 31.2481 18.8862C30.6844 18.8862 30.2275 19.3431 30.2275 19.9068C30.2275 20.4704 30.6844 20.9273 31.2481 20.9273Z" fill="white"/>
<path d="M36.1475 61.1138C36.7111 61.1138 37.168 60.6569 37.168 60.0933C37.168 59.5297 36.7111 59.0728 36.1475 59.0728C35.5839 59.0728 35.127 59.5297 35.127 60.0933C35.127 60.6569 35.5839 61.1138 36.1475 61.1138Z" fill="white"/>
<path d="M45.884 45.6989C50.8915 43.9456 54.3755 40.6556 54.5722 40.467C54.6749 40.3686 54.7328 40.2326 54.7328 40.0905C54.7328 39.9483 54.6749 39.8123 54.5722 39.7139C54.3766 39.5262 50.9268 36.2681 45.9598 34.5083L49.2343 31.2339C49.3667 31.1014 49.3667 30.8869 49.2343 30.7544C49.1019 30.622 48.8871 30.622 48.7546 30.7544L45.2612 34.2479C45.2917 34.2609 45.3154 34.285 45.3446 34.3007C43.6507 33.7582 41.7979 33.4008 39.8471 33.4008C37.9359 33.4008 36.1193 33.7444 34.4535 34.2684L30.9396 30.7544C30.8071 30.622 30.5923 30.622 30.4599 30.7544C30.3275 30.8869 30.3275 31.1014 30.4599 31.2339L33.7344 34.5083C28.7674 36.2681 25.3178 39.5262 25.1221 39.7139C25.0194 39.8123 24.9615 39.9483 24.9615 40.0905C24.9615 40.2326 25.0194 40.3686 25.1221 40.467C25.3188 40.6556 28.8027 43.9455 33.8102 45.6988L30.4599 49.0492C30.3275 49.1817 30.3275 49.3962 30.4599 49.5286C30.5923 49.6611 30.8071 49.6611 30.9396 49.5286L34.5315 45.9367C36.176 46.4469 37.9656 46.7801 39.8471 46.7801C41.7286 46.7801 43.5183 46.4469 45.1627 45.9367L48.7546 49.5286C48.8871 49.6611 49.1019 49.6611 49.2343 49.5286C49.3667 49.3962 49.3667 49.1817 49.2343 49.0492L45.884 45.6989ZM44.0033 45.1602C45.4693 43.9563 46.4064 42.131 46.4064 40.0905C46.4064 38.0451 45.4645 36.2165 43.9926 35.0126C48.6009 36.2253 52.2287 39.0641 53.4266 40.0905C52.2299 41.1159 48.6059 43.9463 44.0033 45.1602ZM39.8471 34.3139C43.0324 34.3139 45.6238 36.9052 45.6238 40.0905C45.6238 43.2757 43.0324 45.867 39.8471 45.867C36.6619 45.867 34.0705 43.2757 34.0705 40.0905C34.0705 36.9052 36.6619 34.3139 39.8471 34.3139ZM35.7108 35.0059C34.2338 36.2096 33.2879 38.041 33.2879 40.0905C33.2879 42.1381 34.232 43.9682 35.7067 45.172C31.0946 43.9613 27.4661 41.1173 26.2677 40.0905C27.4664 39.0632 31.0973 36.2173 35.7108 35.0059ZM23.4123 29.5156H29.3215C29.5087 29.5156 29.6606 29.3637 29.6606 29.1765V23.2674C29.6606 23.0802 29.5087 22.9283 29.3215 22.9283H23.4123C23.2251 22.9283 23.0732 23.0802 23.0732 23.2674V29.1765C23.0732 29.3637 23.2251 29.5156 23.4123 29.5156ZM23.7514 23.6065H28.9824V28.8374H23.7514V23.6065ZM56.6955 22.9283H50.7863C50.5991 22.9283 50.4472 23.0802 50.4472 23.2674V29.1765C50.4472 29.3637 50.5991 29.5156 50.7863 29.5156H56.6955C56.8827 29.5156 57.0346 29.3637 57.0346 29.1765V23.2674C57.0346 23.0802 56.8827 22.9283 56.6955 22.9283ZM56.3564 28.8374H51.1254V23.6065H56.3564V28.8374ZM29.3215 50.4103H23.4123C23.2251 50.4103 23.0732 50.5622 23.0732 50.7494V56.6587C23.0732 56.846 23.2251 56.9978 23.4123 56.9978H29.3215C29.5087 56.9978 29.6606 56.846 29.6606 56.6587V50.7494C29.6606 50.5622 29.5087 50.4103 29.3215 50.4103ZM28.9824 56.3196H23.7514V51.0885H28.9824L28.9824 56.3196ZM56.6955 50.4103H50.7863C50.5991 50.4103 50.4472 50.5622 50.4472 50.7494V56.6587C50.4472 56.846 50.5991 56.9978 50.7863 56.9978H56.6955C56.8827 56.9978 57.0346 56.846 57.0346 56.6587V50.7494C57.0346 50.5622 56.8827 50.4103 56.6955 50.4103ZM56.3564 56.3196H51.1254V51.0885H56.3564V56.3196Z" fill="white"/>
<path d="M39.6106 31.5311C39.6769 31.5973 39.7635 31.6302 39.8502 31.6302C39.937 31.6302 40.0239 31.5971 40.0901 31.5308L42.391 29.2299C42.5234 29.0974 42.5234 28.8829 42.391 28.7504C42.2586 28.618 42.0438 28.618 41.9113 28.7504L39.85 30.8116L37.7838 28.7502C37.6511 28.6174 37.4363 28.6179 37.3041 28.7507C37.1719 28.8832 37.1721 29.0979 37.3046 29.2301L39.6106 31.5311ZM40.0847 48.6496C39.9523 48.5172 39.7378 48.5174 39.6053 48.6499L37.3043 50.9508C37.172 51.0833 37.172 51.2978 37.3043 51.4303C37.4368 51.5628 37.6516 51.5628 37.784 51.4303L39.8454 49.3691L41.9116 51.4305C42.0439 51.5629 42.2592 51.5627 42.3913 51.43C42.5235 51.2976 42.5233 51.0828 42.3908 50.9506L40.0847 48.6496Z" fill="white"/>
<defs>
<linearGradient id="paint0_linear_702_317" x1="52.9897" y1="147.143" x2="-46.9155" y2="92.8092" gradientUnits="userSpaceOnUse">
<stop stop-color="#0A767B"/>
<stop offset="1" stop-color="#00A7D6"/>
</linearGradient>
</defs>
</svg>
