<svg width="80" height="80" viewBox="0 0 80 80" fill="none" xmlns="http://www.w3.org/2000/svg">
<rect x="0.5" y="0.5" width="79" height="79" rx="39.5" fill="url(#paint0_linear_702_338)"/>
<rect x="0.5" y="0.5" width="79" height="79" rx="39.5" stroke="#3ED5DD"/>
<g clip-path="url(#clip0_702_338)">
<path d="M26.68 15.069L21.787 26.583L34.195 28.077L32.695 25.476L31.405 23.244C34.8478 21.3659 38.8101 20.6645 42.6884 21.2469C46.5667 21.8292 50.1484 23.6632 52.8878 26.4696C55.6272 29.2759 57.3743 32.9008 57.8628 36.792C58.3514 40.6832 57.5547 44.6275 55.594 48.024C53.6141 51.4576 50.5558 54.1414 46.8941 55.6587C43.2325 57.176 39.1723 57.4419 35.344 56.415C31.5146 55.3911 28.1306 53.1312 25.7175 49.9864C23.3045 46.8416 21.9977 42.9879 22 39.024H19C19.003 43.647 20.5301 48.14 23.3449 51.8073C26.1596 55.4747 30.105 58.1117 34.57 59.31C43.741 61.767 53.44 57.75 58.186 49.524C60.4954 45.5197 61.4198 40.8656 60.8162 36.2826C60.2125 31.6997 58.1145 27.4437 54.847 24.174C51.5799 20.9058 47.3242 18.809 42.742 18.21C38.3115 17.6348 33.813 18.4893 29.902 20.649L26.683 15.069H26.68ZM40 30.024V39.036H31V42.036H43V30.024H40Z" fill="white"/>
</g>
<defs>
<linearGradient id="paint0_linear_702_338" x1="52.9897" y1="147.143" x2="-46.9155" y2="92.8092" gradientUnits="userSpaceOnUse">
<stop stop-color="#0A767B"/>
<stop offset="1" stop-color="#00A7D6"/>
</linearGradient>
<clipPath id="clip0_702_338">
<rect width="48" height="48" fill="white" transform="translate(16 12)"/>
</clipPath>
</defs>
</svg>
