<svg width="80" height="87" viewBox="0 0 80 87" fill="none" xmlns="http://www.w3.org/2000/svg">
<rect x="0.5" y="0.5" width="79" height="85.7176" rx="39.5" fill="url(#paint0_linear_702_307)"/>
<rect x="0.5" y="0.5" width="79" height="85.7176" rx="39.5" stroke="#3ED5DD"/>
<path d="M55.5203 31.5914L40.4615 23.1208C40.1749 22.9597 39.8251 22.9597 39.5385 23.1208L24.4797 31.5914C24.1834 31.7581 24 32.0717 24 32.4118V46.5294C24 55.3518 31.1776 62.5294 40 62.5294C48.8224 62.5294 56 55.3518 56 46.5294V32.4118C56.0001 32.0717 55.8168 31.7582 55.5203 31.5914ZM54.1177 46.5294C54.1177 54.3139 47.7846 60.6471 40.0001 60.6471C32.2156 60.6471 25.8824 54.3139 25.8824 46.5294V32.9623L40.0001 25.0211L54.1177 32.9623V46.5294Z" fill="white"/>
<path d="M34.8235 39.4704V41.8234H32.9412C32.4214 41.8234 32 42.2448 32 42.7645V46.9998C32 51.411 35.5888 54.9998 40 54.9998C44.4112 54.9998 48 51.411 48 46.9998V42.7645C48 42.2448 47.5785 41.8234 47.0588 41.8234H45.1765V39.4704C45.1765 38.0876 44.638 36.7878 43.6603 35.8101C42.6826 34.8324 41.3828 34.2939 40 34.2939C37.1457 34.2939 34.8235 36.6161 34.8235 39.4704ZM46.1176 46.9998C46.1176 50.3731 43.3733 53.1175 40 53.1175C36.6267 53.1175 33.8824 50.3731 33.8824 46.9998V43.7057H46.1176V46.9998ZM43.2941 39.4704V41.8234H36.7059V39.4704C36.7059 37.654 38.1836 36.1763 40 36.1763C40.8799 36.1763 41.7072 36.519 42.3293 37.1411C42.9514 37.7632 43.2941 38.5905 43.2941 39.4704Z" fill="white"/>
<path d="M39.9998 45.5879C39.48 45.5879 39.0586 46.0093 39.0586 46.5291V49.3526C39.0586 49.8723 39.48 50.2938 39.9998 50.2938C40.5196 50.2938 40.9409 49.8723 40.9409 49.3526V46.5291C40.9409 46.0093 40.5196 45.5879 39.9998 45.5879Z" fill="white"/>
<defs>
<linearGradient id="paint0_linear_702_307" x1="52.9897" y1="159.498" x2="-50.4313" y2="107.61" gradientUnits="userSpaceOnUse">
<stop stop-color="#0A767B"/>
<stop offset="1" stop-color="#00A7D6"/>
</linearGradient>
</defs>
</svg>
