<svg width="663" height="380" viewBox="0 0 663 380" fill="none" xmlns="http://www.w3.org/2000/svg">
<g filter="url(#filter0_bd_772_1469)">
<rect x="50" y="46" width="562.831" height="281" rx="11.4119" fill="#161F21"/>
<rect x="50.2853" y="46.2853" width="562.261" height="280.429" rx="11.1266" stroke="#6EE5E5" stroke-width="0.570593"/>
<line x1="82.4229" y1="270.883" x2="526.37" y2="270.883" stroke="#D2D2D2" stroke-width="0.831361"/>
<rect width="19.9527" height="70.6657" transform="translate(99.0508 191.488)" fill="#F1FF4B"/>
<rect width="19.9527" height="53.6876" transform="translate(99.0508 208.466)" fill="#FF9431"/>
<rect width="19.9527" height="18.3547" transform="translate(99.0508 243.799)" fill="#8E10F1"/>
<rect width="19.9527" height="9.14497" transform="translate(99.0508 253.009)" fill="#10F1C9"/>
<rect width="19.9527" height="133.849" transform="translate(148.932 128.305)" fill="#F1FF4B"/>
<rect width="19.9527" height="88.1243" transform="translate(148.932 174.029)" fill="#FF9431"/>
<rect width="19.9527" height="53.2071" transform="translate(148.933 208.947)" fill="#8E10F1"/>
<rect width="19.9527" height="36.5799" transform="translate(148.933 225.574)" fill="#10F1C8"/>
<rect width="19.9527" height="152.97" transform="translate(198.814 109.183)" fill="#F1FF4B"/>
<rect width="19.9527" height="138.071" transform="translate(198.814 124.083)" fill="#FF9431"/>
<rect width="19.9527" height="88.405" transform="translate(198.814 173.749)" fill="#8E10F1"/>
<rect width="19.9527" height="54.8698" transform="translate(198.814 207.284)" fill="#10F1C8"/>
<rect width="19.9527" height="61.5207" transform="translate(248.695 200.633)" fill="#F1FF4B"/>
<rect width="19.9527" height="19.5748" transform="translate(248.695 242.579)" fill="#FF9431"/>
<rect width="19.9527" height="6.79125" transform="translate(248.695 255.363)" fill="#8E10F1"/>
<rect width="19.9527" height="112.234" transform="translate(298.578 149.92)" fill="#F1FF4B"/>
<rect width="19.9527" height="73.6078" transform="translate(298.578 188.546)" fill="#FF9431"/>
<rect width="19.9527" height="44.8935" transform="translate(298.578 217.26)" fill="#8E10F1"/>
<rect width="19.9527" height="20.784" transform="translate(298.578 241.37)" fill="#10F1C8"/>
<rect width="19.9527" height="79.8106" transform="translate(348.458 182.343)" fill="#F1FF4B"/>
<rect width="19.9527" height="79.8106" transform="translate(348.458 182.343)" fill="#FF9431"/>
<rect width="19.9527" height="20.73" transform="translate(348.458 241.424)" fill="#8E10F1"/>
<rect width="19.9527" height="47.5063" transform="translate(398.34 214.647)" fill="#FF9431"/>
<rect width="19.9527" height="182.899" transform="translate(398.34 79.2544)" fill="#F1FF4B"/>
<rect width="19.9527" height="47.5063" transform="translate(398.34 214.647)" fill="#8E10F1"/>
<rect width="19.9527" height="32.4231" transform="translate(398.34 229.731)" fill="#10F1C8"/>
<rect width="19.9527" height="112.234" transform="translate(448.222 149.92)" fill="#F1FF4B"/>
<rect width="19.9527" height="69.9639" transform="translate(448.222 192.19)" fill="#FF9431"/>
<rect width="19.9527" height="56.8456" transform="translate(448.222 205.308)" fill="#8E10F1"/>
<rect width="19.9527" height="84.7988" transform="translate(498.104 177.355)" fill="#F1FF4B"/>
<rect width="19.9527" height="64.4251" transform="translate(498.104 197.729)" fill="#FF9431"/>
<rect width="19.9527" height="32.4231" transform="translate(498.104 229.731)" fill="#8E10F1"/>
<rect width="19.9527" height="20.784" transform="translate(498.104 241.37)" fill="#10F1C8"/>
<path d="M108.61 185.253L157.661 120.407L211.283 105.442L258.671 196.892L307.306 145.763L358.019 180.68L408.316 70.1095L456.535 145.348L509.326 173.614" stroke="#C1FEFE" stroke-width="0.831361" stroke-linecap="round"/>
<circle cx="108.195" cy="185.669" r="1.66272" fill="#6EE5E5"/>
<circle cx="158.077" cy="120.822" r="1.66272" fill="#6EE5E5"/>
<circle cx="211.284" cy="105.858" r="1.66272" fill="#6EE5E5"/>
<circle cx="258.672" cy="196.476" r="1.66272" fill="#6EE5E5"/>
<circle cx="307.722" cy="145.763" r="1.66272" fill="#6EE5E5"/>
<circle cx="357.603" cy="179.849" r="1.66272" fill="#6EE5E5"/>
<circle cx="408.317" cy="70.1095" r="1.66272" fill="#6EE5E5"/>
<circle cx="456.536" cy="144.932" r="1.66272" fill="#6EE5E5"/>
<circle cx="508.911" cy="173.198" r="1.66272" fill="#6EE5E5"/>
<path d="M92.3758 296.404L92.9274 295.924C93.2784 295.618 93.301 295.289 92.9952 294.938L92.6675 294.562C92.3544 294.203 92.0223 294.176 91.6713 294.482L91.1197 294.963C90.7687 295.268 90.7497 295.601 91.0628 295.96L91.3905 296.337C91.6963 296.688 92.0248 296.71 92.3758 296.404ZM90.7975 294.593L91.3491 294.112C91.7001 293.806 91.7172 293.472 91.4005 293.108L91.1001 292.763C90.7943 292.412 90.4659 292.39 90.1149 292.696L89.5632 293.176C89.2122 293.482 89.1896 293.81 89.4955 294.161L89.7958 294.506C90.1126 294.87 90.4465 294.899 90.7975 294.593ZM93.3333 296.276L92.6689 296.855C92.3805 297.106 92.0875 297.225 91.7898 297.213C91.4885 297.196 91.2141 297.045 90.9665 296.761L90.6334 296.379C90.3057 296.003 90.2335 295.624 90.4168 295.244C90.026 295.386 89.6613 295.263 89.3227 294.874L89.0168 294.523C88.7656 294.235 88.6541 293.943 88.6824 293.646C88.7107 293.349 88.869 293.075 89.1573 292.824L89.8217 292.245C90.1101 291.994 90.4031 291.875 90.7008 291.887C90.9985 291.9 91.2729 292.05 91.5241 292.339L91.83 292.69C91.9974 292.882 92.0997 293.08 92.1368 293.283C92.1703 293.481 92.1402 293.662 92.0465 293.824C92.4446 293.691 92.8112 293.816 93.1461 294.201L93.4738 294.577C93.7214 294.861 93.8328 295.153 93.8082 295.454C93.78 295.751 93.6217 296.025 93.3333 296.276ZM93.0409 291.05L93.7017 291.809C93.7527 291.867 93.751 291.92 93.6967 291.968L93.377 292.246C93.3227 292.293 93.2682 292.286 93.2136 292.223L92.5637 291.477C92.5128 291.419 92.5144 291.366 92.5688 291.318L92.8885 291.04C92.9428 290.993 92.9936 290.996 93.0409 291.05ZM95.0179 293.32L95.6787 294.078C95.7297 294.136 95.728 294.189 95.6737 294.237L95.354 294.515C95.2997 294.563 95.2452 294.555 95.1906 294.492L94.5352 293.74C94.4879 293.686 94.4914 293.635 94.5457 293.588L94.8654 293.309C94.9197 293.262 94.9706 293.265 95.0179 293.32ZM97.3948 292.032L97.9088 291.584C98.2598 291.278 98.2769 290.943 97.9602 290.58L96.0979 288.442C95.7812 288.079 95.4473 288.05 95.0963 288.356L94.5823 288.803C94.2354 289.106 94.2204 289.438 94.5371 289.802L96.3994 291.939C96.7162 292.303 97.0479 292.334 97.3948 292.032ZM98.3147 291.936L97.6879 292.482C97.4037 292.729 97.1071 292.845 96.7979 292.827C96.493 292.806 96.2131 292.649 95.9582 292.357L94.0632 290.182C93.8119 289.894 93.6968 289.597 93.7178 289.292C93.7393 288.979 93.8922 288.699 94.1763 288.451L94.8032 287.905C95.0873 287.658 95.3837 287.546 95.6923 287.572C96.0015 287.589 96.2816 287.742 96.5328 288.03L98.4279 290.205C98.6828 290.498 98.7976 290.798 98.7724 291.107C98.7515 291.412 98.5989 291.688 98.3147 291.936ZM100.902 288.976L101.416 288.528C101.767 288.222 101.784 287.887 101.467 287.524L99.6052 285.386C99.2885 285.023 98.9546 284.994 98.6035 285.3L98.0895 285.748C97.7427 286.05 97.7277 286.383 98.0444 286.746L99.9067 288.884C100.223 289.247 100.555 289.278 100.902 288.976ZM101.822 288.88L101.195 289.426C100.911 289.674 100.614 289.789 100.305 289.771C100 289.75 99.7203 289.594 99.4655 289.301L97.5704 287.126C97.3192 286.838 97.2041 286.541 97.2251 286.236C97.2466 285.923 97.3995 285.643 97.6836 285.396L98.3104 284.849C98.5946 284.602 98.891 284.491 99.1996 284.516C99.5087 284.533 99.7889 284.686 100.04 284.974L101.935 287.149C102.19 287.442 102.305 287.743 102.28 288.051C102.259 288.356 102.106 288.632 101.822 288.88ZM105.01 286.103L104.684 286.387C104.395 286.638 104.097 286.755 103.787 286.738C103.482 286.717 103.203 286.56 102.948 286.267L101.779 284.926C101.524 284.633 101.407 284.335 101.428 284.03C101.453 283.721 101.61 283.441 101.898 283.19L103.259 282.005C103.317 281.954 103.372 281.958 103.423 282.016L106.055 285.037C106.106 285.096 106.102 285.151 106.044 285.202L105.762 285.447C105.703 285.498 105.649 285.495 105.598 285.436L105.385 285.192L105.36 285.214C105.448 285.526 105.331 285.822 105.01 286.103ZM104.822 284.546L103.287 282.785C103.255 282.747 103.217 282.746 103.176 282.783L102.298 283.547C101.951 283.85 101.936 284.182 102.253 284.546L103.389 285.85C103.706 286.213 104.037 286.244 104.384 285.942L104.742 285.631C104.93 285.467 105.03 285.291 105.043 285.103C105.056 284.916 104.982 284.73 104.822 284.546ZM107.616 283.832L107.334 284.078C107.276 284.129 107.221 284.125 107.17 284.066L104.538 281.045C104.487 280.986 104.49 280.932 104.549 280.881L104.831 280.635C104.889 280.584 104.944 280.588 104.995 280.646L105.208 280.891L105.233 280.869C105.157 280.545 105.282 280.242 105.608 279.958L105.84 279.756C106.208 279.435 106.587 279.355 106.976 279.516C106.923 279.32 106.936 279.124 107.017 278.929C107.097 278.727 107.217 278.556 107.376 278.418L107.595 278.227C107.879 277.979 108.172 277.868 108.473 277.892C108.773 277.917 109.051 278.075 109.306 278.368L111.207 280.549C111.258 280.608 111.254 280.662 111.195 280.713L110.913 280.959C110.855 281.01 110.8 281.006 110.749 280.948L108.865 278.785C108.548 278.422 108.214 278.393 107.863 278.699L107.656 278.879C107.468 279.043 107.369 279.225 107.36 279.424C107.35 279.616 107.426 279.804 107.586 279.988L109.426 282.1C109.477 282.159 109.474 282.213 109.415 282.264L109.133 282.51C109.075 282.561 109.02 282.557 108.969 282.499L107.085 280.336C106.768 279.973 106.434 279.944 106.083 280.25L105.851 280.452C105.663 280.616 105.563 280.791 105.55 280.979C105.537 281.167 105.61 281.353 105.771 281.536L107.627 283.668C107.678 283.726 107.675 283.781 107.616 283.832Z" fill="white"/>
<path d="M65.314 67.0393V63.772L63.4351 67.0393H65.314ZM65.7712 68.6272H65.422C65.35 68.6272 65.314 68.5884 65.314 68.5108V67.5714H63.0028C62.8864 67.5714 62.8282 67.5132 62.8282 67.3968V67.1973C62.8282 67.103 62.8476 67.0199 62.8864 66.9478L64.9149 63.4478C64.9648 63.337 65.0479 63.2815 65.1643 63.2815H65.7047C65.8266 63.2815 65.8876 63.3397 65.8876 63.4561V67.0393H66.5028C66.5804 67.0393 66.6192 67.0753 66.6192 67.1474V67.4467C66.6192 67.5298 66.5804 67.5714 66.5028 67.5714H65.8876V68.5108C65.8876 68.5884 65.8488 68.6272 65.7712 68.6272ZM69.4904 65.7008H68.8752C68.6425 65.7008 68.49 65.7701 68.418 65.9086C68.3459 66.0417 68.2739 66.1082 68.2018 66.1082H67.8194C67.7418 66.1082 67.703 66.0694 67.703 65.9918V63.3979C67.703 63.3203 67.7418 63.2815 67.8194 63.2815H70.5712C70.6543 63.2815 70.6959 63.3203 70.6959 63.3979V63.7305C70.6959 63.8081 70.6543 63.8469 70.5712 63.8469H68.3099V65.6177C68.4152 65.3406 68.6508 65.202 69.0166 65.202H69.6151C69.992 65.202 70.283 65.3045 70.4881 65.5096C70.6987 65.7147 70.804 66.0084 70.804 66.3908V67.3968C70.804 67.7848 70.6959 68.0868 70.4798 68.303C70.2636 68.5191 69.9643 68.6272 69.5819 68.6272H68.9002C68.5177 68.6272 68.2157 68.5191 67.994 68.303C67.7778 68.0868 67.6698 67.7848 67.6698 67.3968V67.1391C67.6698 67.0559 67.7086 67.0144 67.7862 67.0144H68.1603C68.2379 67.0144 68.2767 67.0559 68.2767 67.1391V67.3885C68.2767 67.8707 68.5067 68.1118 68.9667 68.1118H69.5071C69.9782 68.1118 70.2137 67.8707 70.2137 67.3885V66.4657C70.2137 66.2052 70.1555 66.014 70.0391 65.892C69.9227 65.7645 69.7399 65.7008 69.4904 65.7008ZM73.4 68.0951H74.0817C74.5473 68.0951 74.78 67.854 74.78 67.3718V64.5369C74.78 64.0547 74.5473 63.8136 74.0817 63.8136H73.4C72.94 63.8136 72.71 64.0547 72.71 64.5369V67.3718C72.71 67.854 72.94 68.0951 73.4 68.0951ZM74.1565 68.6272H73.3252C72.9483 68.6272 72.649 68.5191 72.4273 68.303C72.2111 68.0868 72.1031 67.7848 72.1031 67.3968V64.512C72.1031 64.1295 72.2111 63.8302 72.4273 63.6141C72.649 63.3924 72.9483 63.2815 73.3252 63.2815H74.1565C74.5334 63.2815 74.8299 63.3924 75.0461 63.6141C75.2678 63.8302 75.3786 64.1295 75.3786 64.512V67.3968C75.3786 67.7848 75.2678 68.0868 75.0461 68.303C74.8299 68.5191 74.5334 68.6272 74.1565 68.6272Z" fill="white"/>
<path d="M65.314 90.8352V87.5679L63.4351 90.8352H65.314ZM65.7712 92.4231H65.422C65.35 92.4231 65.314 92.3843 65.314 92.3067V91.3673H63.0028C62.8864 91.3673 62.8282 91.3091 62.8282 91.1927V90.9932C62.8282 90.8989 62.8476 90.8158 62.8864 90.7437L64.9149 87.2437C64.9648 87.1329 65.0479 87.0774 65.1643 87.0774H65.7047C65.8266 87.0774 65.8876 87.1356 65.8876 87.252V90.8352H66.5028C66.5804 90.8352 66.6192 90.8712 66.6192 90.9433V91.2426C66.6192 91.3257 66.5804 91.3673 66.5028 91.3673H65.8876V92.3067C65.8876 92.3843 65.8488 92.4231 65.7712 92.4231ZM68.9999 91.891H69.6817C70.1472 91.891 70.38 91.6499 70.38 91.1677V88.3328C70.38 87.8506 70.1472 87.6095 69.6817 87.6095H68.9999C68.5399 87.6095 68.3099 87.8506 68.3099 88.3328V91.1677C68.3099 91.6499 68.5399 91.891 68.9999 91.891ZM69.7565 92.4231H68.9251C68.5482 92.4231 68.2489 92.315 68.0272 92.0989C67.8111 91.8827 67.703 91.5806 67.703 91.1927V88.3079C67.703 87.9254 67.8111 87.6261 68.0272 87.41C68.2489 87.1883 68.5482 87.0774 68.9251 87.0774H69.7565C70.1334 87.0774 70.4299 87.1883 70.646 87.41C70.8677 87.6261 70.9786 87.9254 70.9786 88.3079V91.1927C70.9786 91.5806 70.8677 91.8827 70.646 92.0989C70.4299 92.315 70.1334 92.4231 69.7565 92.4231ZM73.6517 91.891H74.3334C74.7989 91.891 75.0317 91.6499 75.0317 91.1677V88.3328C75.0317 87.8506 74.7989 87.6095 74.3334 87.6095H73.6517C73.1916 87.6095 72.9616 87.8506 72.9616 88.3328V91.1677C72.9616 91.6499 73.1916 91.891 73.6517 91.891ZM74.4082 92.4231H73.5768C73.2 92.4231 72.9007 92.315 72.679 92.0989C72.4628 91.8827 72.3547 91.5806 72.3547 91.1927V88.3079C72.3547 87.9254 72.4628 87.6261 72.679 87.41C72.9007 87.1883 73.2 87.0774 73.5768 87.0774H74.4082C74.7851 87.0774 75.0816 87.1883 75.2978 87.41C75.5195 87.6261 75.6303 87.9254 75.6303 88.3079V91.1927C75.6303 91.5806 75.5195 91.8827 75.2978 92.0989C75.0816 92.315 74.7851 92.4231 74.4082 92.4231Z" fill="white"/>
<path d="M64.3246 113.276H64.8068C65.2779 113.276 65.5135 113.04 65.5135 112.569V112.095C65.5135 111.624 65.2779 111.389 64.8068 111.389H64.2332C63.7676 111.389 63.5348 111.624 63.5348 112.095V112.361C63.5348 112.444 63.496 112.486 63.4185 112.486H63.0443C62.9667 112.486 62.928 112.444 62.928 112.361V112.087C62.928 111.705 63.036 111.408 63.2522 111.197C63.4739 110.981 63.7759 110.873 64.1584 110.873H64.8816C65.2641 110.873 65.5634 110.981 65.7795 111.197C66.0012 111.408 66.1121 111.705 66.1121 112.087V112.578C66.1121 113.071 65.8848 113.389 65.4303 113.534C65.8848 113.65 66.1121 113.966 66.1121 114.481V115.005C66.1121 115.388 66.0012 115.687 65.7795 115.903C65.5634 116.114 65.2641 116.219 64.8816 116.219H64.1584C63.7759 116.219 63.4739 116.114 63.2522 115.903C63.036 115.687 62.928 115.388 62.928 115.005V114.673C62.928 114.589 62.9667 114.548 63.0443 114.548H63.4185C63.496 114.548 63.5348 114.589 63.5348 114.673V114.997C63.5348 115.468 63.7676 115.703 64.2332 115.703H64.8068C65.2779 115.703 65.5135 115.468 65.5135 114.997V114.49C65.5135 114.019 65.2779 113.783 64.8068 113.783H64.3246C64.247 113.783 64.2082 113.744 64.2082 113.667V113.392C64.2082 113.315 64.247 113.276 64.3246 113.276ZM69.2712 113.292H68.656C68.4232 113.292 68.2708 113.362 68.1988 113.5C68.1267 113.633 68.0547 113.7 67.9826 113.7H67.6002C67.5226 113.7 67.4838 113.661 67.4838 113.583V110.99C67.4838 110.912 67.5226 110.873 67.6002 110.873H70.352C70.4351 110.873 70.4767 110.912 70.4767 110.99V111.322C70.4767 111.4 70.4351 111.439 70.352 111.439H68.0907V113.209C68.196 112.932 68.4316 112.794 68.7974 112.794H69.3959C69.7728 112.794 70.0638 112.896 70.2689 113.101C70.4795 113.306 70.5848 113.6 70.5848 113.983V114.988C70.5848 115.376 70.4767 115.678 70.2606 115.895C70.0444 116.111 69.7451 116.219 69.3627 116.219H68.681C68.2985 116.219 67.9965 116.111 67.7748 115.895C67.5586 115.678 67.4506 115.376 67.4506 114.988V114.731C67.4506 114.648 67.4894 114.606 67.5669 114.606H67.9411C68.0187 114.606 68.0574 114.648 68.0574 114.731V114.98C68.0574 115.462 68.2875 115.703 68.7475 115.703H69.2879C69.759 115.703 69.9945 115.462 69.9945 114.98V114.057C69.9945 113.797 69.9363 113.606 69.8199 113.484C69.7035 113.356 69.5206 113.292 69.2712 113.292ZM73.1808 115.687H73.8625C74.3281 115.687 74.5608 115.446 74.5608 114.964V112.129C74.5608 111.646 74.3281 111.405 73.8625 111.405H73.1808C72.7208 111.405 72.4907 111.646 72.4907 112.129V114.964C72.4907 115.446 72.7208 115.687 73.1808 115.687ZM73.9373 116.219H73.106C72.7291 116.219 72.4298 116.111 72.2081 115.895C71.9919 115.678 71.8839 115.376 71.8839 114.988V112.104C71.8839 111.721 71.9919 111.422 72.2081 111.206C72.4298 110.984 72.7291 110.873 73.106 110.873H73.9373C74.3142 110.873 74.6107 110.984 74.8269 111.206C75.0486 111.422 75.1594 111.721 75.1594 112.104V114.988C75.1594 115.376 75.0486 115.678 74.8269 115.895C74.6107 116.111 74.3142 116.219 73.9373 116.219Z" fill="white"/>
<path d="M64.3246 137.072H64.8068C65.2779 137.072 65.5135 136.836 65.5135 136.365V135.891C65.5135 135.42 65.2779 135.185 64.8068 135.185H64.2332C63.7676 135.185 63.5348 135.42 63.5348 135.891V136.157C63.5348 136.24 63.496 136.282 63.4185 136.282H63.0443C62.9667 136.282 62.928 136.24 62.928 136.157V135.883C62.928 135.5 63.036 135.204 63.2522 134.993C63.4739 134.777 63.7759 134.669 64.1584 134.669H64.8816C65.2641 134.669 65.5634 134.777 65.7795 134.993C66.0012 135.204 66.1121 135.5 66.1121 135.883V136.373C66.1121 136.867 65.8848 137.185 65.4303 137.329C65.8848 137.446 66.1121 137.762 66.1121 138.277V138.801C66.1121 139.183 66.0012 139.483 65.7795 139.699C65.5634 139.909 65.2641 140.015 64.8816 140.015H64.1584C63.7759 140.015 63.4739 139.909 63.2522 139.699C63.036 139.483 62.928 139.183 62.928 138.801V138.468C62.928 138.385 62.9667 138.344 63.0443 138.344H63.4185C63.496 138.344 63.5348 138.385 63.5348 138.468V138.793C63.5348 139.264 63.7676 139.499 64.2332 139.499H64.8068C65.2779 139.499 65.5135 139.264 65.5135 138.793V138.286C65.5135 137.814 65.2779 137.579 64.8068 137.579H64.3246C64.247 137.579 64.2082 137.54 64.2082 137.462V137.188C64.2082 137.111 64.247 137.072 64.3246 137.072ZM68.7807 139.483H69.4624C69.928 139.483 70.1608 139.242 70.1608 138.759V135.924C70.1608 135.442 69.928 135.201 69.4624 135.201H68.7807C68.3207 135.201 68.0907 135.442 68.0907 135.924V138.759C68.0907 139.242 68.3207 139.483 68.7807 139.483ZM69.5373 140.015H68.7059C68.329 140.015 68.0297 139.907 67.808 139.691C67.5919 139.474 67.4838 139.172 67.4838 138.784V135.9C67.4838 135.517 67.5919 135.218 67.808 135.002C68.0297 134.78 68.329 134.669 68.7059 134.669H69.5373C69.9142 134.669 70.2107 134.78 70.4268 135.002C70.6485 135.218 70.7594 135.517 70.7594 135.9V138.784C70.7594 139.172 70.6485 139.474 70.4268 139.691C70.2107 139.907 69.9142 140.015 69.5373 140.015ZM73.4325 139.483H74.1142C74.5797 139.483 74.8125 139.242 74.8125 138.759V135.924C74.8125 135.442 74.5797 135.201 74.1142 135.201H73.4325C72.9724 135.201 72.7424 135.442 72.7424 135.924V138.759C72.7424 139.242 72.9724 139.483 73.4325 139.483ZM74.189 140.015H73.3576C72.9808 140.015 72.6815 139.907 72.4598 139.691C72.2436 139.474 72.1355 139.172 72.1355 138.784V135.9C72.1355 135.517 72.2436 135.218 72.4598 135.002C72.6815 134.78 72.9808 134.669 73.3576 134.669H74.189C74.5659 134.669 74.8624 134.78 75.0786 135.002C75.3002 135.218 75.4111 135.517 75.4111 135.9V138.784C75.4111 139.172 75.3002 139.474 75.0786 139.691C74.8624 139.907 74.5659 140.015 74.189 140.015Z" fill="white"/>
<path d="M62.9446 163.694V162.946C62.9446 162.575 63.0998 162.27 63.4101 162.032L65.0147 160.768C65.2918 160.557 65.4303 160.297 65.4303 159.986V159.687C65.4303 159.216 65.192 158.98 64.7154 158.98H64.2082C63.7427 158.98 63.5099 159.216 63.5099 159.687V160.028C63.5099 160.111 63.4711 160.153 63.3935 160.153H63.0194C62.9474 160.153 62.9113 160.111 62.9113 160.028V159.679C62.9113 159.296 63.0194 159 63.2356 158.789C63.4517 158.573 63.751 158.465 64.1334 158.465H64.7985C65.1809 158.465 65.4802 158.573 65.6964 158.789C65.9125 159 66.0206 159.296 66.0206 159.679V160.02C66.0206 160.452 65.8488 160.804 65.5052 161.075L63.8757 162.364C63.6928 162.508 63.6014 162.683 63.6014 162.888V163.27H65.9209C65.9984 163.27 66.0372 163.309 66.0372 163.387V163.694C66.0372 163.772 65.9984 163.811 65.9209 163.811H63.061C62.9834 163.811 62.9446 163.772 62.9446 163.694ZM69.1251 160.884H68.5099C68.2771 160.884 68.1247 160.954 68.0526 161.092C67.9806 161.225 67.9085 161.292 67.8365 161.292H67.4541C67.3765 161.292 67.3377 161.253 67.3377 161.175V158.581C67.3377 158.504 67.3765 158.465 67.4541 158.465H70.2059C70.289 158.465 70.3306 158.504 70.3306 158.581V158.914C70.3306 158.992 70.289 159.03 70.2059 159.03H67.9446V160.801C68.0499 160.524 68.2854 160.385 68.6512 160.385H69.2498C69.6267 160.385 69.9177 160.488 70.1227 160.693C70.3333 160.898 70.4386 161.192 70.4386 161.574V162.58C70.4386 162.968 70.3306 163.27 70.1144 163.486C69.8983 163.703 69.599 163.811 69.2165 163.811H68.5348C68.1524 163.811 67.8503 163.703 67.6286 163.486C67.4125 163.27 67.3044 162.968 67.3044 162.58V162.323C67.3044 162.239 67.3432 162.198 67.4208 162.198H67.7949C67.8725 162.198 67.9113 162.239 67.9113 162.323V162.572C67.9113 163.054 68.1413 163.295 68.6013 163.295H69.1417C69.6128 163.295 69.8484 163.054 69.8484 162.572V161.649C69.8484 161.389 69.7902 161.197 69.6738 161.075C69.5574 160.948 69.3745 160.884 69.1251 160.884ZM73.0346 163.279H73.7164C74.1819 163.279 74.4147 163.038 74.4147 162.555V159.72C74.4147 159.238 74.1819 158.997 73.7164 158.997H73.0346C72.5746 158.997 72.3446 159.238 72.3446 159.72V162.555C72.3446 163.038 72.5746 163.279 73.0346 163.279ZM73.7912 163.811H72.9598C72.5829 163.811 72.2836 163.703 72.0619 163.486C71.8458 163.27 71.7377 162.968 71.7377 162.58V159.695C71.7377 159.313 71.8458 159.014 72.0619 158.798C72.2836 158.576 72.5829 158.465 72.9598 158.465H73.7912C74.1681 158.465 74.4646 158.576 74.6807 158.798C74.9024 159.014 75.0133 159.313 75.0133 159.695V162.58C75.0133 162.968 74.9024 163.27 74.6807 163.486C74.4646 163.703 74.1681 163.811 73.7912 163.811Z" fill="white"/>
<path d="M62.9446 187.49V186.742C62.9446 186.37 63.0998 186.066 63.4101 185.827L65.0147 184.564C65.2918 184.353 65.4303 184.093 65.4303 183.782V183.483C65.4303 183.012 65.192 182.776 64.7154 182.776H64.2082C63.7427 182.776 63.5099 183.012 63.5099 183.483V183.824C63.5099 183.907 63.4711 183.948 63.3935 183.948H63.0194C62.9474 183.948 62.9113 183.907 62.9113 183.824V183.475C62.9113 183.092 63.0194 182.796 63.2356 182.585C63.4517 182.369 63.751 182.261 64.1334 182.261H64.7985C65.1809 182.261 65.4802 182.369 65.6964 182.585C65.9125 182.796 66.0206 183.092 66.0206 183.475V183.815C66.0206 184.248 65.8488 184.6 65.5052 184.871L63.8757 186.16C63.6928 186.304 63.6014 186.479 63.6014 186.684V187.066H65.9209C65.9984 187.066 66.0372 187.105 66.0372 187.182V187.49C66.0372 187.568 65.9984 187.606 65.9209 187.606H63.061C62.9834 187.606 62.9446 187.568 62.9446 187.49ZM68.6346 187.074H69.3163C69.7819 187.074 70.0147 186.833 70.0147 186.351V183.516C70.0147 183.034 69.7819 182.793 69.3163 182.793H68.6346C68.1746 182.793 67.9446 183.034 67.9446 183.516V186.351C67.9446 186.833 68.1746 187.074 68.6346 187.074ZM69.3911 187.606H68.5598C68.1829 187.606 67.8836 187.498 67.6619 187.282C67.4457 187.066 67.3377 186.764 67.3377 186.376V183.491C67.3377 183.109 67.4457 182.809 67.6619 182.593C67.8836 182.372 68.1829 182.261 68.5598 182.261H69.3911C69.768 182.261 70.0645 182.372 70.2807 182.593C70.5024 182.809 70.6132 183.109 70.6132 183.491V186.376C70.6132 186.764 70.5024 187.066 70.2807 187.282C70.0645 187.498 69.768 187.606 69.3911 187.606ZM73.2863 187.074H73.968C74.4336 187.074 74.6664 186.833 74.6664 186.351V183.516C74.6664 183.034 74.4336 182.793 73.968 182.793H73.2863C72.8263 182.793 72.5963 183.034 72.5963 183.516V186.351C72.5963 186.833 72.8263 187.074 73.2863 187.074ZM74.0429 187.606H73.2115C72.8346 187.606 72.5353 187.498 72.3136 187.282C72.0975 187.066 71.9894 186.764 71.9894 186.376V183.491C71.9894 183.109 72.0975 182.809 72.3136 182.593C72.5353 182.372 72.8346 182.261 73.2115 182.261H74.0429C74.4197 182.261 74.7163 182.372 74.9324 182.593C75.1541 182.809 75.265 183.109 75.265 183.491V186.376C75.265 186.764 75.1541 187.066 74.9324 187.282C74.7163 187.498 74.4197 187.606 74.0429 187.606Z" fill="white"/>
<path d="M63.7451 207.204V206.871C63.7451 206.788 63.7783 206.727 63.8448 206.689L64.8092 206.132C64.8979 206.082 64.9699 206.057 65.0253 206.057H65.3745C65.4521 206.057 65.4909 206.095 65.4909 206.173V211.286C65.4909 211.364 65.4521 211.402 65.3745 211.402H65.0004C64.9228 211.402 64.884 211.364 64.884 211.286V206.705L63.8947 207.27C63.7949 207.326 63.7451 207.304 63.7451 207.204ZM68.7936 208.476H68.1784C67.9456 208.476 67.7932 208.545 67.7212 208.684C67.6491 208.817 67.5771 208.883 67.505 208.883H67.1226C67.045 208.883 67.0062 208.845 67.0062 208.767V206.173C67.0062 206.095 67.045 206.057 67.1226 206.057H69.8744C69.9575 206.057 69.9991 206.095 69.9991 206.173V206.506C69.9991 206.583 69.9575 206.622 69.8744 206.622H67.6131V208.393C67.7184 208.116 67.9539 207.977 68.3197 207.977H68.9183C69.2952 207.977 69.5862 208.08 69.7913 208.285C70.0019 208.49 70.1072 208.784 70.1072 209.166V210.172C70.1072 210.56 69.9991 210.862 69.7829 211.078C69.5668 211.294 69.2675 211.402 68.8851 211.402H68.2034C67.8209 211.402 67.5189 211.294 67.2972 211.078C67.081 210.862 66.9729 210.56 66.9729 210.172V209.914C66.9729 209.831 67.0117 209.79 67.0893 209.79H67.4634C67.541 209.79 67.5798 209.831 67.5798 209.914V210.164C67.5798 210.646 67.8098 210.887 68.2699 210.887H68.8102C69.2814 210.887 69.5169 210.646 69.5169 210.164V209.241C69.5169 208.98 69.4587 208.789 69.3423 208.667C69.2259 208.54 69.043 208.476 68.7936 208.476ZM72.7032 210.87H73.3849C73.8504 210.87 74.0832 210.629 74.0832 210.147V207.312C74.0832 206.83 73.8504 206.589 73.3849 206.589H72.7032C72.2431 206.589 72.0131 206.83 72.0131 207.312V210.147C72.0131 210.629 72.2431 210.87 72.7032 210.87ZM73.4597 211.402H72.6283C72.2515 211.402 71.9522 211.294 71.7305 211.078C71.5143 210.862 71.4062 210.56 71.4062 210.172V207.287C71.4062 206.905 71.5143 206.605 71.7305 206.389C71.9522 206.168 72.2515 206.057 72.6283 206.057H73.4597C73.8366 206.057 74.1331 206.168 74.3493 206.389C74.571 206.605 74.6818 206.905 74.6818 207.287V210.172C74.6818 210.56 74.571 210.862 74.3493 211.078C74.1331 211.294 73.8366 211.402 73.4597 211.402Z" fill="white"/>
<path d="M63.7451 231V230.667C63.7451 230.584 63.7783 230.523 63.8448 230.484L64.8092 229.927C64.8979 229.878 64.9699 229.853 65.0253 229.853H65.3745C65.4521 229.853 65.4909 229.891 65.4909 229.969V235.082C65.4909 235.159 65.4521 235.198 65.3745 235.198H65.0004C64.9228 235.198 64.884 235.159 64.884 235.082V230.501L63.8947 231.066C63.7949 231.122 63.7451 231.1 63.7451 231ZM68.3031 234.666H68.9848C69.4504 234.666 69.6832 234.425 69.6832 233.943V231.108C69.6832 230.626 69.4504 230.385 68.9848 230.385H68.3031C67.8431 230.385 67.6131 230.626 67.6131 231.108V233.943C67.6131 234.425 67.8431 234.666 68.3031 234.666ZM69.0597 235.198H68.2283C67.8514 235.198 67.5521 235.09 67.3304 234.874C67.1143 234.658 67.0062 234.356 67.0062 233.968V231.083C67.0062 230.701 67.1143 230.401 67.3304 230.185C67.5521 229.963 67.8514 229.853 68.2283 229.853H69.0597C69.4365 229.853 69.7331 229.963 69.9492 230.185C70.1709 230.401 70.2818 230.701 70.2818 231.083V233.968C70.2818 234.356 70.1709 234.658 69.9492 234.874C69.7331 235.09 69.4365 235.198 69.0597 235.198ZM72.9548 234.666H73.6366C74.1021 234.666 74.3349 234.425 74.3349 233.943V231.108C74.3349 230.626 74.1021 230.385 73.6366 230.385H72.9548C72.4948 230.385 72.2648 230.626 72.2648 231.108V233.943C72.2648 234.425 72.4948 234.666 72.9548 234.666ZM73.7114 235.198H72.88C72.5031 235.198 72.2038 235.09 71.9822 234.874C71.766 234.658 71.6579 234.356 71.6579 233.968V231.083C71.6579 230.701 71.766 230.401 71.9822 230.185C72.2038 229.963 72.5031 229.853 72.88 229.853H73.7114C74.0883 229.853 74.3848 229.963 74.6009 230.185C74.8226 230.401 74.9335 230.701 74.9335 231.083V233.968C74.9335 234.356 74.8226 234.658 74.6009 234.874C74.3848 235.09 74.0883 235.198 73.7114 235.198Z" fill="white"/>
<path d="M67.2819 256.068H66.6667C66.4339 256.068 66.2815 256.137 66.2094 256.275C66.1374 256.408 66.0653 256.475 65.9933 256.475H65.6109C65.5333 256.475 65.4945 256.436 65.4945 256.359V253.765C65.4945 253.687 65.5333 253.648 65.6109 253.648H68.3627C68.4458 253.648 68.4874 253.687 68.4874 253.765V254.097C68.4874 254.175 68.4458 254.214 68.3627 254.214H66.1014V255.984C66.2067 255.707 66.4422 255.569 66.808 255.569H67.4066C67.7835 255.569 68.0745 255.671 68.2795 255.876C68.4901 256.081 68.5954 256.375 68.5954 256.758V257.764C68.5954 258.152 68.4874 258.454 68.2712 258.67C68.0551 258.886 67.7558 258.994 67.3733 258.994H66.6916C66.3092 258.994 66.0071 258.886 65.7854 258.67C65.5693 258.454 65.4612 258.152 65.4612 257.764V257.506C65.4612 257.423 65.5 257.381 65.5776 257.381H65.9517C66.0293 257.381 66.0681 257.423 66.0681 257.506V257.755C66.0681 258.237 66.2981 258.479 66.7581 258.479H67.2985C67.7696 258.479 68.0052 258.237 68.0052 257.755V256.832C68.0052 256.572 67.947 256.381 67.8306 256.259C67.7142 256.131 67.5313 256.068 67.2819 256.068ZM71.1914 258.462H71.8731C72.3387 258.462 72.5715 258.221 72.5715 257.739V254.904C72.5715 254.422 72.3387 254.18 71.8731 254.18H71.1914C70.7314 254.18 70.5014 254.422 70.5014 254.904V257.739C70.5014 258.221 70.7314 258.462 71.1914 258.462ZM71.948 258.994H71.1166C70.7397 258.994 70.4404 258.886 70.2187 258.67C70.0026 258.454 69.8945 258.152 69.8945 257.764V254.879C69.8945 254.496 70.0026 254.197 70.2187 253.981C70.4404 253.759 70.7397 253.648 71.1166 253.648H71.948C72.3248 253.648 72.6214 253.759 72.8375 253.981C73.0592 254.197 73.1701 254.496 73.1701 254.879V257.764C73.1701 258.152 73.0592 258.454 72.8375 258.67C72.6214 258.886 72.3248 258.994 71.948 258.994Z" fill="white"/>
<path d="M141.661 294.892L142.67 294.013L141.698 292.897C141.381 292.533 141.047 292.504 140.696 292.81L140.213 293.231C139.867 293.533 139.852 293.866 140.168 294.229L140.671 294.806C140.984 295.165 141.314 295.194 141.661 294.892ZM143.915 296.39L142.68 297.466C142.617 297.521 142.56 297.519 142.509 297.46L142.307 297.229C142.26 297.174 142.268 297.12 142.33 297.065L143.509 296.038C143.86 295.733 143.877 295.398 143.56 295.034L143.019 294.414L141.954 295.342C141.67 295.59 141.373 295.705 141.064 295.688C140.759 295.667 140.481 295.512 140.23 295.224L139.694 294.609C139.443 294.321 139.328 294.024 139.349 293.719C139.371 293.407 139.523 293.126 139.808 292.879L140.403 292.36C140.691 292.109 140.99 291.996 141.298 292.021C141.603 292.042 141.881 292.197 142.133 292.485L144.028 294.66C144.283 294.952 144.4 295.251 144.379 295.556C144.358 295.861 144.203 296.139 143.915 296.39ZM143.619 291.168L144.28 291.926C144.331 291.985 144.329 292.038 144.275 292.085L143.955 292.363C143.901 292.411 143.846 292.403 143.792 292.34L143.142 291.595C143.091 291.536 143.093 291.483 143.147 291.436L143.467 291.157C143.521 291.11 143.572 291.113 143.619 291.168ZM145.596 293.437L146.257 294.195C146.308 294.254 146.306 294.307 146.252 294.354L145.932 294.633C145.878 294.68 145.823 294.672 145.769 294.61L145.113 293.857C145.066 293.803 145.07 293.752 145.124 293.705L145.444 293.426C145.498 293.379 145.549 293.383 145.596 293.437ZM147.973 292.149L148.487 291.701C148.838 291.395 148.855 291.061 148.538 290.697L146.676 288.559C146.359 288.196 146.025 288.167 145.674 288.473L145.16 288.921C144.814 289.223 144.799 289.556 145.115 289.919L146.978 292.057C147.294 292.42 147.626 292.451 147.973 292.149ZM148.893 292.053L148.266 292.599C147.982 292.847 147.685 292.962 147.376 292.945C147.071 292.924 146.791 292.767 146.536 292.474L144.641 290.299C144.39 290.011 144.275 289.714 144.296 289.409C144.318 289.096 144.47 288.816 144.755 288.569L145.381 288.023C145.666 287.775 145.962 287.664 146.271 287.689C146.58 287.706 146.86 287.859 147.111 288.147L149.006 290.323C149.261 290.615 149.376 290.916 149.351 291.224C149.33 291.529 149.177 291.805 148.893 292.053ZM151.48 289.093L151.994 288.645C152.345 288.339 152.362 288.005 152.046 287.641L150.183 285.504C149.867 285.14 149.533 285.111 149.182 285.417L148.668 285.865C148.321 286.167 148.306 286.5 148.623 286.864L150.485 289.001C150.802 289.365 151.133 289.395 151.48 289.093ZM152.4 288.997L151.773 289.543C151.489 289.791 151.193 289.906 150.883 289.889C150.578 289.868 150.299 289.711 150.044 289.419L148.149 287.243C147.897 286.955 147.782 286.658 147.803 286.353C147.825 286.041 147.978 285.761 148.262 285.513L148.889 284.967C149.173 284.719 149.469 284.608 149.778 284.633C150.087 284.651 150.367 284.803 150.618 285.092L152.513 287.267C152.768 287.559 152.883 287.86 152.858 288.169C152.837 288.473 152.684 288.75 152.4 288.997ZM155.588 286.22L155.262 286.504C154.974 286.755 154.675 286.872 154.366 286.855C154.061 286.834 153.781 286.677 153.526 286.385L152.357 285.043C152.102 284.751 151.985 284.452 152.006 284.147C152.032 283.838 152.188 283.558 152.477 283.307L153.837 282.122C153.895 282.071 153.95 282.075 154.001 282.133L156.633 285.155C156.684 285.213 156.681 285.268 156.622 285.319L156.34 285.565C156.282 285.616 156.227 285.612 156.176 285.553L155.963 285.309L155.938 285.331C156.026 285.643 155.91 285.94 155.588 286.22ZM155.4 284.663L153.866 282.902C153.833 282.864 153.796 282.864 153.754 282.9L152.876 283.665C152.529 283.967 152.514 284.3 152.831 284.663L153.967 285.967C154.284 286.331 154.616 286.361 154.963 286.059L155.32 285.748C155.508 285.584 155.608 285.408 155.621 285.221C155.634 285.033 155.561 284.847 155.4 284.663ZM158.194 283.949L157.912 284.195C157.854 284.246 157.799 284.242 157.748 284.184L155.116 281.162C155.065 281.104 155.069 281.049 155.127 280.998L155.409 280.752C155.468 280.701 155.522 280.705 155.573 280.764L155.786 281.008L155.811 280.986C155.735 280.663 155.86 280.359 156.186 280.075L156.418 279.873C156.786 279.553 157.165 279.473 157.554 279.633C157.501 279.437 157.515 279.241 157.595 279.047C157.676 278.844 157.795 278.673 157.954 278.535L158.173 278.344C158.458 278.096 158.75 277.985 159.051 278.009C159.352 278.034 159.63 278.193 159.884 278.485L161.785 280.667C161.836 280.725 161.832 280.78 161.774 280.831L161.492 281.077C161.433 281.128 161.378 281.124 161.327 281.065L159.443 278.903C159.126 278.539 158.793 278.51 158.442 278.816L158.235 278.996C158.047 279.16 157.948 279.342 157.938 279.542C157.929 279.733 158.004 279.921 158.164 280.105L160.005 282.218C160.056 282.276 160.052 282.331 159.993 282.382L159.711 282.628C159.653 282.678 159.598 282.675 159.547 282.616L157.663 280.454C157.346 280.09 157.012 280.061 156.661 280.367L156.429 280.569C156.241 280.733 156.141 280.909 156.128 281.096C156.115 281.284 156.189 281.47 156.349 281.654L158.206 283.785C158.257 283.843 158.253 283.898 158.194 283.949Z" fill="white"/>
<path d="M189.396 294.656L189.178 294.405C189.123 294.342 189.108 294.275 189.133 294.202L189.494 293.148C189.528 293.052 189.566 292.986 189.608 292.95L189.871 292.72C189.93 292.669 189.984 292.673 190.035 292.732L193.394 296.587C193.445 296.645 193.441 296.7 193.383 296.751L193.101 296.997C193.042 297.048 192.987 297.044 192.936 296.985L189.927 293.532L189.553 294.608C189.514 294.715 189.462 294.731 189.396 294.656ZM195.241 294.426L195.755 293.978C196.106 293.672 196.123 293.338 195.807 292.974L193.944 290.837C193.628 290.473 193.294 290.444 192.943 290.75L192.429 291.198C192.082 291.5 192.067 291.833 192.384 292.196L194.246 294.334C194.563 294.697 194.894 294.728 195.241 294.426ZM196.161 294.33L195.534 294.876C195.25 295.124 194.954 295.239 194.644 295.222C194.339 295.201 194.06 295.044 193.805 294.751L191.91 292.576C191.658 292.288 191.543 291.991 191.564 291.686C191.586 291.374 191.739 291.093 192.023 290.846L192.65 290.3C192.934 290.052 193.23 289.941 193.539 289.966C193.848 289.983 194.128 290.136 194.379 290.425L196.274 292.6C196.529 292.892 196.644 293.193 196.619 293.501C196.598 293.806 196.445 294.083 196.161 294.33ZM195.864 289.109L196.524 289.868C196.575 289.926 196.574 289.979 196.519 290.027L196.2 290.305C196.145 290.352 196.091 290.345 196.036 290.282L195.386 289.536C195.335 289.478 195.337 289.425 195.391 289.377L195.711 289.099C195.765 289.051 195.816 289.055 195.864 289.109ZM197.841 291.378L198.501 292.137C198.552 292.195 198.551 292.248 198.496 292.296L198.177 292.574C198.122 292.621 198.068 292.614 198.013 292.551L197.358 291.799C197.311 291.745 197.314 291.694 197.368 291.646L197.688 291.368C197.742 291.321 197.793 291.324 197.841 291.378ZM200.217 290.09L200.731 289.643C201.082 289.337 201.1 289.002 200.783 288.639L198.921 286.501C198.604 286.137 198.27 286.109 197.919 286.414L197.405 286.862C197.058 287.164 197.043 287.497 197.36 287.861L199.222 289.998C199.539 290.362 199.871 290.393 200.217 290.09ZM201.137 289.995L200.511 290.541C200.226 290.788 199.93 290.903 199.621 290.886C199.316 290.865 199.036 290.708 198.781 290.416L196.886 288.241C196.635 287.952 196.519 287.656 196.54 287.351C196.562 287.038 196.715 286.758 196.999 286.51L197.626 285.964C197.91 285.717 198.206 285.605 198.515 285.631C198.824 285.648 199.104 285.801 199.356 286.089L201.251 288.264C201.505 288.557 201.62 288.857 201.595 289.166C201.574 289.471 201.422 289.747 201.137 289.995ZM203.725 287.035L204.239 286.587C204.59 286.281 204.607 285.946 204.29 285.583L202.428 283.445C202.111 283.082 201.777 283.053 201.426 283.359L200.912 283.807C200.565 284.109 200.55 284.442 200.867 284.805L202.729 286.943C203.046 287.306 203.378 287.337 203.725 287.035ZM204.645 286.939L204.018 287.485C203.734 287.733 203.437 287.848 203.128 287.83C202.823 287.809 202.543 287.653 202.288 287.36L200.393 285.185C200.142 284.897 200.027 284.6 200.048 284.295C200.069 283.982 200.222 283.702 200.506 283.455L201.133 282.908C201.417 282.661 201.714 282.55 202.022 282.575C202.331 282.592 202.612 282.745 202.863 283.033L204.758 285.208C205.013 285.501 205.128 285.801 205.102 286.11C205.081 286.415 204.929 286.691 204.645 286.939ZM207.832 284.162L207.506 284.446C207.218 284.697 206.919 284.814 206.61 284.796C206.305 284.776 206.025 284.619 205.77 284.326L204.602 282.985C204.347 282.692 204.23 282.394 204.251 282.089C204.276 281.78 204.433 281.5 204.721 281.249L206.081 280.064C206.14 280.013 206.195 280.017 206.246 280.075L208.878 283.096C208.929 283.155 208.925 283.21 208.867 283.261L208.584 283.506C208.526 283.557 208.471 283.554 208.42 283.495L208.207 283.251L208.182 283.272C208.271 283.585 208.154 283.881 207.832 284.162ZM207.645 282.605L206.11 280.844C206.077 280.806 206.04 280.805 205.998 280.842L205.121 281.606C204.774 281.909 204.759 282.241 205.076 282.605L206.212 283.909C206.528 284.272 206.86 284.303 207.207 284.001L207.564 283.69C207.752 283.526 207.853 283.35 207.866 283.162C207.879 282.975 207.805 282.789 207.645 282.605ZM210.439 281.891L210.157 282.136C210.098 282.187 210.044 282.184 209.993 282.125L207.36 279.104C207.309 279.045 207.313 278.991 207.372 278.94L207.654 278.694C207.712 278.643 207.767 278.647 207.818 278.705L208.031 278.95L208.056 278.928C207.98 278.604 208.105 278.301 208.431 278.017L208.663 277.815C209.031 277.494 209.409 277.414 209.799 277.575C209.746 277.378 209.759 277.183 209.839 276.988C209.92 276.786 210.04 276.615 210.199 276.477L210.418 276.286C210.702 276.038 210.995 275.926 211.295 275.951C211.596 275.976 211.874 276.134 212.129 276.427L214.029 278.608C214.08 278.667 214.077 278.721 214.018 278.772L213.736 279.018C213.677 279.069 213.623 279.065 213.572 279.007L211.688 276.844C211.371 276.481 211.037 276.452 210.686 276.758L210.479 276.938C210.291 277.102 210.192 277.283 210.182 277.483C210.173 277.675 210.248 277.863 210.409 278.047L212.249 280.159C212.3 280.218 212.296 280.272 212.238 280.323L211.956 280.569C211.897 280.62 211.843 280.616 211.792 280.558L209.907 278.395C209.591 278.032 209.257 278.003 208.906 278.309L208.674 278.511C208.486 278.675 208.385 278.85 208.372 279.038C208.359 279.226 208.433 279.411 208.593 279.595L210.45 281.727C210.501 281.785 210.497 281.84 210.439 281.891Z" fill="white"/>
<path d="M240.109 294.656L239.891 294.405C239.836 294.342 239.821 294.275 239.846 294.202L240.207 293.148C240.241 293.052 240.279 292.986 240.321 292.95L240.584 292.72C240.643 292.669 240.697 292.673 240.748 292.732L244.107 296.587C244.158 296.645 244.154 296.7 244.096 296.751L243.814 296.997C243.755 297.048 243.7 297.044 243.649 296.985L240.64 293.532L240.266 294.608C240.227 294.715 240.175 294.731 240.109 294.656ZM242.38 292.677L242.161 292.427C242.107 292.364 242.092 292.296 242.116 292.223L242.478 291.17C242.512 291.074 242.55 291.008 242.592 290.971L242.855 290.742C242.913 290.691 242.968 290.695 243.019 290.753L246.378 294.608C246.429 294.667 246.425 294.722 246.366 294.772L246.084 295.018C246.026 295.069 245.971 295.065 245.92 295.007L242.911 291.553L242.536 292.629C242.498 292.737 242.445 292.753 242.38 292.677ZM245.34 290.187L246.001 290.945C246.052 291.004 246.05 291.057 245.996 291.104L245.676 291.382C245.622 291.43 245.567 291.422 245.513 291.359L244.863 290.613C244.812 290.555 244.813 290.502 244.868 290.455L245.187 290.176C245.242 290.129 245.293 290.132 245.34 290.187ZM247.317 292.456L247.978 293.214C248.029 293.273 248.027 293.326 247.973 293.373L247.653 293.651C247.599 293.699 247.544 293.691 247.49 293.628L246.834 292.876C246.787 292.822 246.79 292.771 246.845 292.724L247.164 292.445C247.219 292.398 247.27 292.401 247.317 292.456ZM249.694 291.168L250.208 290.72C250.559 290.414 250.576 290.079 250.259 289.716L248.397 287.578C248.08 287.215 247.746 287.186 247.395 287.492L246.881 287.94C246.534 288.242 246.519 288.575 246.836 288.938L248.698 291.076C249.015 291.439 249.347 291.47 249.694 291.168ZM250.614 291.072L249.987 291.618C249.703 291.866 249.406 291.981 249.097 291.963C248.792 291.942 248.512 291.786 248.257 291.493L246.362 289.318C246.111 289.03 245.996 288.733 246.017 288.428C246.038 288.115 246.191 287.835 246.475 287.588L247.102 287.041C247.386 286.794 247.683 286.683 247.991 286.708C248.3 286.725 248.581 286.878 248.832 287.166L250.727 289.341C250.982 289.634 251.097 289.935 251.071 290.243C251.05 290.548 250.898 290.824 250.614 291.072ZM253.201 288.112L253.715 287.664C254.066 287.358 254.083 287.024 253.767 286.66L251.904 284.523C251.587 284.159 251.254 284.13 250.903 284.436L250.389 284.884C250.042 285.186 250.027 285.519 250.343 285.882L252.206 288.02C252.522 288.384 252.854 288.414 253.201 288.112ZM254.121 288.016L253.494 288.562C253.21 288.81 252.913 288.925 252.604 288.908C252.299 288.887 252.019 288.73 251.765 288.437L249.869 286.262C249.618 285.974 249.503 285.677 249.524 285.372C249.546 285.06 249.698 284.779 249.983 284.532L250.609 283.986C250.894 283.738 251.19 283.627 251.499 283.652C251.808 283.669 252.088 283.822 252.339 284.111L254.234 286.286C254.489 286.578 254.604 286.879 254.579 287.187C254.558 287.492 254.405 287.769 254.121 288.016ZM257.309 285.239L256.983 285.523C256.694 285.774 256.396 285.891 256.086 285.874C255.782 285.853 255.502 285.696 255.247 285.404L254.078 284.062C253.823 283.77 253.706 283.471 253.727 283.166C253.752 282.857 253.909 282.577 254.197 282.326L255.558 281.141C255.616 281.09 255.671 281.094 255.722 281.152L258.354 284.174C258.405 284.232 258.401 284.287 258.343 284.338L258.061 284.584C258.002 284.635 257.948 284.631 257.897 284.572L257.684 284.328L257.659 284.35C257.747 284.662 257.63 284.959 257.309 285.239ZM257.121 283.682L255.587 281.921C255.554 281.883 255.516 281.883 255.475 281.919L254.597 282.684C254.25 282.986 254.235 283.319 254.552 283.682L255.688 284.986C256.005 285.35 256.336 285.38 256.683 285.078L257.041 284.767C257.229 284.603 257.329 284.427 257.342 284.24C257.355 284.052 257.281 283.866 257.121 283.682ZM259.915 282.968L259.633 283.214C259.575 283.265 259.52 283.261 259.469 283.202L256.837 280.181C256.786 280.123 256.789 280.068 256.848 280.017L257.13 279.771C257.188 279.72 257.243 279.724 257.294 279.783L257.507 280.027L257.532 280.005C257.456 279.682 257.581 279.378 257.907 279.094L258.139 278.892C258.507 278.572 258.886 278.492 259.275 278.652C259.222 278.456 259.235 278.26 259.316 278.065C259.396 277.863 259.516 277.692 259.675 277.554L259.894 277.363C260.178 277.115 260.471 277.004 260.772 277.028C261.073 277.053 261.35 277.212 261.605 277.504L263.506 279.685C263.557 279.744 263.553 279.799 263.494 279.85L263.212 280.095C263.154 280.146 263.099 280.143 263.048 280.084L261.164 277.922C260.847 277.558 260.513 277.529 260.162 277.835L259.955 278.015C259.767 278.179 259.668 278.361 259.659 278.56C259.649 278.752 259.725 278.94 259.885 279.124L261.726 281.236C261.776 281.295 261.773 281.35 261.714 281.401L261.432 281.646C261.374 281.697 261.319 281.694 261.268 281.635L259.384 279.473C259.067 279.109 258.733 279.08 258.382 279.386L258.15 279.588C257.962 279.752 257.862 279.928 257.849 280.115C257.836 280.303 257.909 280.489 258.07 280.673L259.927 282.804C259.977 282.862 259.974 282.917 259.915 282.968Z" fill="white"/>
<path d="M286.666 294.656L286.447 294.405C286.393 294.342 286.378 294.275 286.402 294.202L286.764 293.148C286.798 293.052 286.836 292.986 286.877 292.95L287.141 292.72C287.199 292.669 287.254 292.673 287.305 292.732L290.664 296.587C290.715 296.645 290.711 296.7 290.652 296.751L290.37 296.997C290.312 297.048 290.257 297.044 290.206 296.985L287.197 293.532L286.822 294.608C286.783 294.715 286.731 294.731 286.666 294.656ZM291.768 295.624L291.277 295.06C291.033 294.78 290.95 294.448 291.027 294.065L291.407 292.058C291.477 291.717 291.411 291.43 291.207 291.196L291.01 290.97C290.701 290.615 290.366 290.594 290.007 290.907L289.625 291.24C289.274 291.546 289.253 291.876 289.562 292.231L289.786 292.488C289.841 292.551 289.839 292.608 289.78 292.659L289.498 292.905C289.444 292.952 289.39 292.944 289.335 292.882L289.106 292.618C288.854 292.33 288.741 292.035 288.766 291.735C288.787 291.43 288.941 291.152 289.23 290.9L289.731 290.463C290.019 290.212 290.316 290.097 290.621 290.118C290.922 290.135 291.199 290.287 291.45 290.576L291.674 290.833C291.958 291.159 292.059 291.537 291.979 291.967L291.597 294.009C291.553 294.238 291.599 294.43 291.734 294.585L291.985 294.873L293.734 293.349C293.792 293.298 293.847 293.302 293.898 293.361L294.1 293.592C294.151 293.651 294.147 293.706 294.089 293.757L291.933 295.635C291.874 295.686 291.819 295.683 291.768 295.624ZM292.901 289.312L293.561 290.07C293.612 290.129 293.611 290.182 293.556 290.229L293.237 290.508C293.182 290.555 293.128 290.547 293.073 290.485L292.423 289.739C292.372 289.68 292.374 289.627 292.428 289.58L292.748 289.301C292.802 289.254 292.853 289.258 292.901 289.312ZM294.877 291.581L295.538 292.34C295.589 292.398 295.588 292.451 295.533 292.498L295.214 292.777C295.159 292.824 295.105 292.816 295.05 292.754L294.395 292.002C294.347 291.947 294.351 291.896 294.405 291.849L294.725 291.571C294.779 291.523 294.83 291.527 294.877 291.581ZM297.254 290.293L297.768 289.845C298.119 289.539 298.137 289.205 297.82 288.841L295.957 286.704C295.641 286.34 295.307 286.311 294.956 286.617L294.442 287.065C294.095 287.367 294.08 287.7 294.397 288.064L296.259 290.201C296.576 290.565 296.908 290.595 297.254 290.293ZM298.174 290.197L297.547 290.743C297.263 290.991 296.967 291.106 296.658 291.089C296.353 291.068 296.073 290.911 295.818 290.619L293.923 288.443C293.672 288.155 293.556 287.858 293.577 287.553C293.599 287.241 293.752 286.961 294.036 286.713L294.663 286.167C294.947 285.919 295.243 285.808 295.552 285.833C295.861 285.851 296.141 286.003 296.392 286.292L298.287 288.467C298.542 288.759 298.657 289.06 298.632 289.368C298.611 289.673 298.458 289.95 298.174 290.197ZM300.762 287.237L301.276 286.79C301.627 286.484 301.644 286.149 301.327 285.785L299.465 283.648C299.148 283.284 298.814 283.256 298.463 283.561L297.949 284.009C297.602 284.311 297.587 284.644 297.904 285.008L299.766 287.145C300.083 287.509 300.415 287.54 300.762 287.237ZM301.682 287.142L301.055 287.688C300.771 287.935 300.474 288.05 300.165 288.033C299.86 288.012 299.58 287.855 299.325 287.563L297.43 285.388C297.179 285.099 297.064 284.803 297.085 284.498C297.106 284.185 297.259 283.905 297.543 283.657L298.17 283.111C298.454 282.863 298.751 282.752 299.059 282.777C299.368 282.795 299.648 282.948 299.9 283.236L301.795 285.411C302.05 285.704 302.164 286.004 302.139 286.313C302.118 286.618 301.966 286.894 301.682 287.142ZM306.688 284.39L306.406 284.636C306.347 284.687 306.292 284.683 306.241 284.624L302.812 280.688C302.761 280.629 302.765 280.575 302.823 280.524L303.105 280.278C303.164 280.227 303.218 280.231 303.269 280.289L303.482 280.534L303.507 280.512C303.419 280.199 303.536 279.903 303.857 279.623L304.233 279.295C304.518 279.047 304.808 278.938 305.105 278.966C305.405 278.991 305.683 279.149 305.938 279.442L307.107 280.783C307.362 281.076 307.481 281.372 307.464 281.674C307.451 281.971 307.303 282.244 307.019 282.492L306.643 282.819C306.321 283.1 306.011 283.175 305.714 283.044L305.689 283.066L306.699 284.226C306.75 284.284 306.746 284.339 306.688 284.39ZM306.212 282.489L306.581 282.167C306.937 281.857 306.956 281.521 306.639 281.157L305.503 279.854C305.186 279.49 304.85 279.463 304.495 279.772L304.125 280.095C303.937 280.259 303.837 280.434 303.824 280.622C303.811 280.81 303.885 280.995 304.045 281.179L305.126 282.42C305.286 282.604 305.46 282.703 305.648 282.716C305.836 282.728 306.023 282.653 306.212 282.489ZM309.336 280.472L309.054 280.718C308.996 280.769 308.941 280.765 308.89 280.707L306.258 277.685C306.207 277.627 306.211 277.572 306.269 277.521L306.551 277.275C306.61 277.225 306.664 277.228 306.715 277.287L306.928 277.531L306.953 277.509C306.877 277.186 307.002 276.882 307.328 276.598L307.56 276.396C307.928 276.076 308.307 275.996 308.696 276.156C308.643 275.96 308.657 275.765 308.737 275.57C308.818 275.367 308.937 275.197 309.096 275.058L309.315 274.867C309.6 274.62 309.892 274.508 310.193 274.533C310.494 274.557 310.772 274.716 311.026 275.008L312.927 277.19C312.978 277.248 312.974 277.303 312.916 277.354L312.634 277.6C312.575 277.651 312.52 277.647 312.469 277.588L310.585 275.426C310.268 275.062 309.935 275.033 309.584 275.339L309.377 275.519C309.189 275.683 309.09 275.865 309.08 276.065C309.071 276.257 309.146 276.444 309.306 276.628L311.147 278.741C311.198 278.799 311.194 278.854 311.135 278.905L310.853 279.151C310.795 279.202 310.74 279.198 310.689 279.139L308.805 276.977C308.488 276.613 308.154 276.584 307.803 276.89L307.571 277.092C307.383 277.256 307.283 277.432 307.27 277.62C307.257 277.807 307.331 277.993 307.491 278.177L309.348 280.308C309.399 280.367 309.395 280.421 309.336 280.472Z" fill="white"/>
<path d="M340.704 294.656L340.485 294.405C340.431 294.342 340.416 294.275 340.44 294.202L340.802 293.148C340.836 293.052 340.874 292.986 340.915 292.95L341.179 292.72C341.237 292.669 341.292 292.673 341.343 292.732L344.702 296.587C344.753 296.645 344.749 296.7 344.69 296.751L344.408 296.997C344.35 297.048 344.295 297.044 344.244 296.985L341.235 293.532L340.86 294.608C340.822 294.715 340.769 294.731 340.704 294.656ZM343.664 292.165L344.325 292.924C344.376 292.982 344.374 293.035 344.32 293.082L344 293.361C343.946 293.408 343.891 293.4 343.837 293.338L343.187 292.592C343.136 292.533 343.137 292.48 343.192 292.433L343.511 292.155C343.566 292.107 343.617 292.111 343.664 292.165ZM345.641 294.434L346.302 295.193C346.353 295.251 346.351 295.304 346.297 295.351L345.977 295.63C345.923 295.677 345.868 295.67 345.814 295.607L345.158 294.855C345.111 294.8 345.114 294.75 345.169 294.702L345.488 294.424C345.543 294.376 345.594 294.38 345.641 294.434ZM348.018 293.146L348.532 292.698C348.883 292.393 348.9 292.058 348.583 291.694L346.721 289.557C346.404 289.193 346.07 289.164 345.719 289.47L345.205 289.918C344.858 290.22 344.843 290.553 345.16 290.917L347.022 293.054C347.339 293.418 347.671 293.448 348.018 293.146ZM348.938 293.05L348.311 293.596C348.027 293.844 347.73 293.959 347.421 293.942C347.116 293.921 346.836 293.764 346.581 293.472L344.686 291.296C344.435 291.008 344.32 290.711 344.341 290.407C344.362 290.094 344.515 289.814 344.799 289.566L345.426 289.02C345.71 288.772 346.007 288.661 346.315 288.686C346.624 288.704 346.905 288.856 347.156 289.145L349.051 291.32C349.306 291.612 349.421 291.913 349.395 292.222C349.374 292.527 349.222 292.803 348.938 293.05ZM351.525 290.09L352.039 289.643C352.39 289.337 352.407 289.002 352.09 288.639L350.228 286.501C349.911 286.137 349.578 286.109 349.227 286.414L348.713 286.862C348.366 287.164 348.351 287.497 348.667 287.861L350.53 289.998C350.846 290.362 351.178 290.393 351.525 290.09ZM352.445 289.995L351.818 290.541C351.534 290.788 351.237 290.903 350.928 290.886C350.623 290.865 350.343 290.708 350.088 290.416L348.193 288.241C347.942 287.952 347.827 287.656 347.848 287.351C347.87 287.038 348.022 286.758 348.307 286.51L348.933 285.964C349.218 285.717 349.514 285.605 349.823 285.631C350.132 285.648 350.412 285.801 350.663 286.089L352.558 288.264C352.813 288.557 352.928 288.857 352.903 289.166C352.882 289.471 352.729 289.747 352.445 289.995ZM357.451 287.243L357.169 287.489C357.11 287.54 357.056 287.536 357.005 287.477L353.575 283.541C353.524 283.482 353.528 283.428 353.586 283.377L353.869 283.131C353.927 283.08 353.982 283.084 354.033 283.142L354.246 283.387L354.271 283.365C354.182 283.052 354.299 282.756 354.621 282.476L354.997 282.148C355.281 281.9 355.571 281.791 355.868 281.819C356.169 281.844 356.447 282.002 356.701 282.295L357.87 283.636C358.125 283.929 358.244 284.226 358.227 284.527C358.215 284.825 358.066 285.097 357.782 285.345L357.406 285.672C357.084 285.953 356.775 286.028 356.477 285.897L356.452 285.919L357.462 287.079C357.513 287.137 357.51 287.192 357.451 287.243ZM356.975 285.342L357.345 285.02C357.7 284.711 357.719 284.374 357.402 284.01L356.266 282.707C355.95 282.343 355.614 282.316 355.259 282.626L354.889 282.948C354.701 283.112 354.6 283.287 354.587 283.475C354.574 283.663 354.648 283.848 354.808 284.032L355.89 285.273C356.05 285.457 356.224 285.556 356.411 285.569C356.599 285.582 356.787 285.506 356.975 285.342ZM360.1 283.325L359.818 283.571C359.759 283.622 359.704 283.618 359.654 283.56L357.021 280.539C356.97 280.48 356.974 280.425 357.033 280.374L357.315 280.129C357.373 280.078 357.428 280.081 357.479 280.14L357.692 280.384L357.717 280.362C357.641 280.039 357.766 279.735 358.092 279.451L358.324 279.249C358.692 278.929 359.07 278.849 359.46 279.009C359.407 278.813 359.42 278.618 359.5 278.423C359.581 278.22 359.701 278.05 359.859 277.911L360.079 277.72C360.363 277.473 360.656 277.361 360.956 277.386C361.257 277.41 361.535 277.569 361.79 277.861L363.69 280.043C363.741 280.101 363.737 280.156 363.679 280.207L363.397 280.453C363.338 280.504 363.284 280.5 363.233 280.441L361.349 278.279C361.032 277.915 360.698 277.886 360.347 278.192L360.14 278.373C359.952 278.536 359.853 278.718 359.843 278.918C359.834 279.11 359.909 279.298 360.07 279.481L361.91 281.594C361.961 281.652 361.957 281.707 361.899 281.758L361.617 282.004C361.558 282.055 361.503 282.051 361.453 281.992L359.568 279.83C359.252 279.466 358.918 279.437 358.567 279.743L358.335 279.945C358.147 280.109 358.046 280.285 358.033 280.473C358.02 280.66 358.094 280.846 358.254 281.03L360.111 283.161C360.162 283.22 360.158 283.274 360.1 283.325Z" fill="white"/>
<path d="M394.249 297.602L393.757 297.038C393.513 296.758 393.43 296.427 393.507 296.043L393.887 294.036C393.958 293.695 393.891 293.408 393.687 293.174L393.491 292.948C393.181 292.593 392.847 292.572 392.487 292.885L392.105 293.218C391.754 293.524 391.733 293.855 392.043 294.21L392.266 294.467C392.321 294.529 392.319 294.586 392.261 294.637L391.979 294.883C391.924 294.93 391.87 294.923 391.815 294.86L391.586 294.597C391.335 294.308 391.221 294.014 391.246 293.713C391.267 293.408 391.422 293.13 391.71 292.879L392.211 292.442C392.5 292.191 392.796 292.076 393.101 292.097C393.403 292.113 393.679 292.266 393.93 292.554L394.154 292.811C394.438 293.137 394.54 293.515 394.459 293.946L394.077 295.988C394.034 296.217 394.079 296.408 394.214 296.563L394.465 296.851L396.214 295.328C396.273 295.277 396.327 295.28 396.378 295.339L396.58 295.571C396.631 295.629 396.628 295.684 396.569 295.735L394.413 297.614C394.354 297.665 394.3 297.661 394.249 297.602ZM395.381 291.29L396.042 292.049C396.092 292.107 396.091 292.16 396.036 292.208L395.717 292.486C395.662 292.533 395.608 292.526 395.553 292.463L394.904 291.717C394.853 291.659 394.854 291.606 394.909 291.558L395.228 291.28C395.283 291.233 395.333 291.236 395.381 291.29ZM397.358 293.56L398.018 294.318C398.069 294.376 398.068 294.429 398.013 294.477L397.694 294.755C397.639 294.803 397.585 294.795 397.53 294.732L396.875 293.98C396.828 293.926 396.831 293.875 396.886 293.828L397.205 293.549C397.26 293.502 397.31 293.505 397.358 293.56ZM399.735 292.272L400.249 291.824C400.6 291.518 400.617 291.183 400.3 290.82L398.438 288.682C398.121 288.319 397.787 288.29 397.436 288.596L396.922 289.043C396.575 289.346 396.56 289.678 396.877 290.042L398.739 292.179C399.056 292.543 399.388 292.574 399.735 292.272ZM400.654 292.176L400.028 292.722C399.744 292.969 399.447 293.085 399.138 293.067C398.833 293.046 398.553 292.889 398.298 292.597L396.403 290.422C396.152 290.134 396.037 289.837 396.058 289.532C396.079 289.219 396.232 288.939 396.516 288.691L397.143 288.145C397.427 287.898 397.723 287.786 398.032 287.812C398.341 287.829 398.621 287.982 398.873 288.27L400.768 290.445C401.023 290.738 401.137 291.038 401.112 291.347C401.091 291.652 400.939 291.928 400.654 292.176ZM403.242 289.216L403.756 288.768C404.107 288.462 404.124 288.127 403.807 287.764L401.945 285.626C401.628 285.263 401.294 285.234 400.943 285.54L400.429 285.988C400.082 286.29 400.067 286.623 400.384 286.986L402.246 289.124C402.563 289.487 402.895 289.518 403.242 289.216ZM404.162 289.12L403.535 289.666C403.251 289.914 402.954 290.029 402.645 290.011C402.34 289.99 402.06 289.834 401.805 289.541L399.91 287.366C399.659 287.078 399.544 286.781 399.565 286.476C399.586 286.163 399.739 285.883 400.023 285.636L400.65 285.089C400.934 284.842 401.231 284.731 401.539 284.756C401.849 284.773 402.129 284.926 402.38 285.214L404.275 287.389C404.53 287.682 404.645 287.983 404.619 288.291C404.599 288.596 404.446 288.872 404.162 289.12ZM409.168 286.368L408.886 286.614C408.827 286.665 408.773 286.661 408.722 286.603L405.292 282.666C405.241 282.608 405.245 282.553 405.303 282.502L405.585 282.256C405.644 282.205 405.699 282.209 405.75 282.268L405.963 282.512L405.988 282.49C405.899 282.178 406.016 281.881 406.337 281.601L406.714 281.273C406.998 281.026 407.288 280.916 407.585 280.944C407.886 280.969 408.163 281.128 408.418 281.42L409.587 282.761C409.842 283.054 409.961 283.351 409.944 283.652C409.931 283.95 409.783 284.223 409.499 284.47L409.123 284.798C408.801 285.078 408.491 285.153 408.194 285.023L408.169 285.044L409.179 286.204C409.23 286.263 409.226 286.317 409.168 286.368ZM408.692 284.468L409.062 284.145C409.417 283.836 409.436 283.499 409.119 283.136L407.983 281.832C407.667 281.468 407.331 281.441 406.975 281.751L406.606 282.073C406.417 282.237 406.317 282.413 406.304 282.6C406.291 282.788 406.365 282.974 406.525 283.158L407.606 284.399C407.767 284.583 407.94 284.681 408.128 284.694C408.316 284.707 408.504 284.631 408.692 284.468ZM411.817 282.451L411.535 282.696C411.476 282.747 411.421 282.744 411.37 282.685L408.738 279.664C408.687 279.605 408.691 279.551 408.749 279.5L409.031 279.254C409.09 279.203 409.145 279.207 409.196 279.265L409.409 279.51L409.434 279.488C409.358 279.164 409.483 278.861 409.809 278.577L410.041 278.375C410.408 278.054 410.787 277.974 411.177 278.135C411.123 277.938 411.137 277.743 411.217 277.548C411.298 277.345 411.417 277.175 411.576 277.037L411.796 276.845C412.08 276.598 412.372 276.486 412.673 276.511C412.974 276.536 413.252 276.694 413.507 276.987L415.407 279.168C415.458 279.227 415.454 279.281 415.396 279.332L415.114 279.578C415.055 279.629 415 279.625 414.949 279.567L413.065 277.404C412.749 277.041 412.415 277.012 412.064 277.318L411.857 277.498C411.669 277.662 411.57 277.843 411.56 278.043C411.551 278.235 411.626 278.423 411.786 278.607L413.627 280.719C413.678 280.778 413.674 280.832 413.616 280.883L413.334 281.129C413.275 281.18 413.22 281.176 413.169 281.118L411.285 278.955C410.968 278.592 410.635 278.563 410.284 278.869L410.052 279.071C409.864 279.235 409.763 279.41 409.75 279.598C409.737 279.786 409.811 279.971 409.971 280.155L411.828 282.286C411.879 282.345 411.875 282.4 411.817 282.451Z" fill="white"/>
<path d="M439.988 294.565L440.352 294.248C440.707 293.938 440.73 293.606 440.42 293.251L440.109 292.894C439.799 292.538 439.467 292.516 439.112 292.825L438.679 293.202C438.328 293.508 438.308 293.838 438.617 294.193L438.792 294.394C438.846 294.457 438.844 294.514 438.786 294.564L438.504 294.81C438.445 294.861 438.389 294.855 438.334 294.793L438.154 294.586C437.903 294.297 437.789 294.003 437.814 293.702C437.839 293.394 437.996 293.114 438.284 292.862L438.83 292.387C439.118 292.136 439.415 292.021 439.72 292.042C440.025 292.055 440.303 292.206 440.555 292.494L440.877 292.864C441.201 293.236 441.239 293.625 440.991 294.033C441.41 293.822 441.789 293.911 442.128 294.299L442.472 294.694C442.723 294.983 442.836 295.281 442.811 295.59C442.786 295.891 442.63 296.167 442.341 296.418L441.796 296.893C441.508 297.144 441.211 297.263 440.905 297.25C440.6 297.229 440.322 297.074 440.071 296.786L439.852 296.535C439.798 296.473 439.8 296.416 439.858 296.365L440.14 296.119C440.199 296.068 440.255 296.074 440.31 296.137L440.523 296.381C440.832 296.736 441.163 296.761 441.514 296.455L441.946 296.078C442.301 295.769 442.324 295.436 442.015 295.081L441.682 294.699C441.372 294.344 441.04 294.321 440.685 294.63L440.321 294.947C440.263 294.998 440.208 294.994 440.157 294.936L439.977 294.729C439.926 294.67 439.929 294.616 439.988 294.565ZM442.047 291.194L442.707 291.953C442.758 292.011 442.757 292.064 442.702 292.112L442.383 292.39C442.328 292.437 442.274 292.43 442.219 292.367L441.569 291.621C441.518 291.563 441.52 291.51 441.574 291.462L441.894 291.184C441.948 291.137 441.999 291.14 442.047 291.194ZM444.024 293.464L444.684 294.222C444.735 294.28 444.734 294.333 444.679 294.381L444.36 294.659C444.305 294.707 444.251 294.699 444.196 294.636L443.541 293.884C443.494 293.83 443.497 293.779 443.551 293.732L443.871 293.453C443.925 293.406 443.976 293.409 444.024 293.464ZM446.4 292.176L446.914 291.728C447.265 291.422 447.283 291.087 446.966 290.724L445.104 288.586C444.787 288.223 444.453 288.194 444.102 288.5L443.588 288.947C443.241 289.25 443.226 289.582 443.543 289.946L445.405 292.083C445.722 292.447 446.054 292.478 446.4 292.176ZM447.32 292.08L446.694 292.626C446.409 292.873 446.113 292.989 445.804 292.971C445.499 292.95 445.219 292.793 444.964 292.501L443.069 290.326C442.818 290.038 442.702 289.741 442.723 289.436C442.745 289.123 442.898 288.843 443.182 288.595L443.809 288.049C444.093 287.802 444.389 287.69 444.698 287.716C445.007 287.733 445.287 287.886 445.538 288.174L447.434 290.349C447.688 290.642 447.803 290.942 447.778 291.251C447.757 291.556 447.605 291.832 447.32 292.08ZM449.908 289.12L450.422 288.672C450.773 288.366 450.79 288.031 450.473 287.668L448.611 285.53C448.294 285.167 447.96 285.138 447.609 285.444L447.095 285.892C446.748 286.194 446.733 286.527 447.05 286.89L448.912 289.028C449.229 289.391 449.561 289.422 449.908 289.12ZM450.828 289.024L450.201 289.57C449.917 289.818 449.62 289.933 449.311 289.915C449.006 289.894 448.726 289.738 448.471 289.445L446.576 287.27C446.325 286.982 446.21 286.685 446.231 286.38C446.252 286.067 446.405 285.787 446.689 285.54L447.316 284.993C447.6 284.746 447.897 284.635 448.205 284.66C448.514 284.677 448.795 284.83 449.046 285.118L450.941 287.293C451.196 287.586 451.311 287.887 451.285 288.195C451.264 288.5 451.112 288.776 450.828 289.024ZM455.834 286.272L455.552 286.518C455.493 286.569 455.438 286.565 455.387 286.507L451.958 282.57C451.907 282.512 451.911 282.457 451.969 282.406L452.251 282.16C452.31 282.109 452.364 282.113 452.415 282.172L452.628 282.416L452.653 282.394C452.565 282.082 452.682 281.785 453.003 281.505L453.379 281.177C453.664 280.93 453.954 280.82 454.251 280.848C454.551 280.873 454.829 281.032 455.084 281.324L456.253 282.665C456.508 282.958 456.627 283.255 456.61 283.556C456.597 283.854 456.449 284.127 456.165 284.374L455.789 284.702C455.467 284.982 455.157 285.057 454.86 284.927L454.835 284.948L455.845 286.108C455.896 286.167 455.892 286.221 455.834 286.272ZM455.358 284.372L455.727 284.049C456.083 283.74 456.102 283.403 455.785 283.04L454.649 281.736C454.332 281.372 453.996 281.345 453.641 281.655L453.271 281.977C453.083 282.141 452.983 282.317 452.97 282.504C452.957 282.692 453.031 282.878 453.191 283.062L454.272 284.303C454.432 284.487 454.606 284.585 454.794 284.598C454.982 284.611 455.17 284.535 455.358 284.372ZM458.482 282.355L458.2 282.6C458.142 282.651 458.087 282.648 458.036 282.589L455.404 279.568C455.353 279.509 455.357 279.455 455.415 279.404L455.697 279.158C455.756 279.107 455.81 279.111 455.861 279.169L456.074 279.414L456.099 279.392C456.024 279.068 456.149 278.765 456.474 278.481L456.706 278.279C457.074 277.958 457.453 277.878 457.843 278.039C457.789 277.842 457.803 277.647 457.883 277.452C457.964 277.249 458.083 277.079 458.242 276.941L458.462 276.749C458.746 276.502 459.038 276.39 459.339 276.415C459.64 276.44 459.918 276.598 460.172 276.891L462.073 279.072C462.124 279.131 462.12 279.185 462.062 279.236L461.78 279.482C461.721 279.533 461.666 279.529 461.615 279.471L459.731 277.308C459.414 276.945 459.081 276.916 458.73 277.222L458.523 277.402C458.335 277.566 458.236 277.747 458.226 277.947C458.217 278.139 458.292 278.327 458.452 278.511L460.293 280.623C460.344 280.682 460.34 280.736 460.281 280.787L459.999 281.033C459.941 281.084 459.886 281.08 459.835 281.022L457.951 278.859C457.634 278.496 457.3 278.467 456.949 278.773L456.717 278.975C456.529 279.139 456.429 279.314 456.416 279.502C456.403 279.69 456.477 279.875 456.637 280.059L458.494 282.191C458.545 282.249 458.541 282.304 458.482 282.355Z" fill="white"/>
<path d="M493.17 294.937L491.024 292.473L491.753 296.171L493.17 294.937ZM494.558 295.833L494.295 296.063C494.24 296.11 494.188 296.105 494.137 296.046L493.52 295.338L491.777 296.856C491.689 296.932 491.607 296.927 491.531 296.839L491.4 296.689C491.338 296.618 491.298 296.542 491.28 296.462L490.51 292.491C490.475 292.374 490.501 292.278 490.589 292.202L490.996 291.847C491.088 291.767 491.172 291.77 491.249 291.858L493.603 294.56L494.066 294.156C494.125 294.105 494.178 294.106 494.225 294.161L494.422 294.386C494.476 294.449 494.474 294.506 494.416 294.557L493.952 294.961L494.569 295.669C494.62 295.728 494.616 295.782 494.558 295.833ZM493.758 291.05L494.419 291.809C494.47 291.867 494.468 291.92 494.414 291.968L494.094 292.246C494.04 292.293 493.985 292.286 493.93 292.223L493.281 291.477C493.23 291.419 493.231 291.366 493.286 291.318L493.605 291.04C493.66 290.993 493.71 290.996 493.758 291.05ZM495.735 293.32L496.396 294.078C496.446 294.136 496.445 294.189 496.39 294.237L496.071 294.515C496.016 294.563 495.962 294.555 495.907 294.492L495.252 293.74C495.205 293.686 495.208 293.635 495.263 293.588L495.582 293.309C495.637 293.262 495.687 293.265 495.735 293.32ZM498.112 292.032L498.626 291.584C498.977 291.278 498.994 290.943 498.677 290.58L496.815 288.442C496.498 288.079 496.164 288.05 495.813 288.356L495.299 288.803C494.952 289.106 494.937 289.438 495.254 289.802L497.116 291.939C497.433 292.303 497.765 292.334 498.112 292.032ZM499.032 291.936L498.405 292.482C498.121 292.729 497.824 292.845 497.515 292.827C497.21 292.806 496.93 292.649 496.675 292.357L494.78 290.182C494.529 289.894 494.414 289.597 494.435 289.292C494.456 288.979 494.609 288.699 494.893 288.451L495.52 287.905C495.804 287.658 496.1 287.546 496.409 287.572C496.718 287.589 496.998 287.742 497.25 288.03L499.145 290.205C499.4 290.498 499.514 290.798 499.489 291.107C499.468 291.412 499.316 291.688 499.032 291.936ZM501.619 288.976L502.133 288.528C502.484 288.222 502.501 287.887 502.184 287.524L500.322 285.386C500.005 285.023 499.671 284.994 499.32 285.3L498.806 285.748C498.459 286.05 498.444 286.383 498.761 286.746L500.623 288.884C500.94 289.247 501.272 289.278 501.619 288.976ZM502.539 288.88L501.912 289.426C501.628 289.674 501.331 289.789 501.022 289.771C500.717 289.75 500.437 289.594 500.182 289.301L498.287 287.126C498.036 286.838 497.921 286.541 497.942 286.236C497.963 285.923 498.116 285.643 498.4 285.396L499.027 284.849C499.311 284.602 499.608 284.491 499.916 284.516C500.226 284.533 500.506 284.686 500.757 284.974L502.652 287.149C502.907 287.442 503.022 287.743 502.997 288.051C502.976 288.356 502.823 288.632 502.539 288.88ZM507.545 286.128L507.263 286.374C507.204 286.425 507.15 286.421 507.099 286.363L503.669 282.426C503.618 282.368 503.622 282.313 503.68 282.262L503.962 282.016C504.021 281.965 504.076 281.969 504.127 282.028L504.34 282.272L504.365 282.25C504.276 281.938 504.393 281.641 504.715 281.361L505.091 281.033C505.375 280.786 505.665 280.676 505.962 280.704C506.263 280.729 506.54 280.888 506.795 281.18L507.964 282.521C508.219 282.814 508.338 283.111 508.321 283.412C508.308 283.71 508.16 283.983 507.876 284.23L507.5 284.558C507.178 284.838 506.868 284.913 506.571 284.783L506.546 284.804L507.556 285.964C507.607 286.023 507.603 286.077 507.545 286.128ZM507.069 284.228L507.439 283.905C507.794 283.596 507.813 283.259 507.496 282.896L506.36 281.592C506.044 281.228 505.708 281.201 505.352 281.511L504.983 281.833C504.794 281.997 504.694 282.173 504.681 282.36C504.668 282.548 504.742 282.734 504.902 282.918L505.983 284.159C506.144 284.343 506.317 284.441 506.505 284.454C506.693 284.467 506.881 284.391 507.069 284.228ZM510.194 282.211L509.912 282.456C509.853 282.507 509.798 282.504 509.747 282.445L507.115 279.424C507.064 279.365 507.068 279.311 507.126 279.26L507.408 279.014C507.467 278.963 507.522 278.967 507.573 279.025L507.786 279.27L507.811 279.248C507.735 278.924 507.86 278.621 508.186 278.337L508.418 278.135C508.785 277.814 509.164 277.734 509.554 277.895C509.5 277.698 509.514 277.503 509.594 277.308C509.675 277.105 509.795 276.935 509.953 276.797L510.173 276.606C510.457 276.358 510.749 276.246 511.05 276.271C511.351 276.296 511.629 276.454 511.884 276.747L513.784 278.928C513.835 278.987 513.831 279.041 513.773 279.092L513.491 279.338C513.432 279.389 513.377 279.385 513.327 279.327L511.442 277.164C511.126 276.801 510.792 276.772 510.441 277.078L510.234 277.258C510.046 277.422 509.947 277.603 509.937 277.803C509.928 277.995 510.003 278.183 510.163 278.367L512.004 280.479C512.055 280.538 512.051 280.592 511.993 280.643L511.711 280.889C511.652 280.94 511.597 280.936 511.546 280.878L509.662 278.715C509.345 278.352 509.012 278.323 508.661 278.629L508.429 278.831C508.241 278.995 508.14 279.17 508.127 279.358C508.114 279.546 508.188 279.731 508.348 279.915L510.205 282.047C510.256 282.105 510.252 282.16 510.194 282.211Z" fill="white"/>
<rect width="9.97633" height="9.97633" transform="translate(553.805 69.4586)" fill="#F1FF4B"/>
<path d="M572.028 71.1011H573.258C573.375 71.1011 573.433 71.1593 573.433 71.2757V76.2722C573.433 76.3886 573.375 76.4468 573.258 76.4468H572.576C572.46 76.4468 572.402 76.3886 572.402 76.2722V72.3315H572.369L571.521 75.1166C571.487 75.2274 571.418 75.2829 571.313 75.2829H570.614C570.509 75.2829 570.44 75.2274 570.407 75.1166L569.542 72.3232H569.509V76.2722C569.509 76.3387 569.498 76.3858 569.476 76.4135C569.453 76.4357 569.406 76.4468 569.334 76.4468H568.652C568.536 76.4468 568.478 76.3886 568.478 76.2722V71.2757C568.478 71.1593 568.536 71.1011 568.652 71.1011H569.891C569.969 71.1011 570.021 71.1399 570.049 71.2175L570.93 74.1522H570.98L571.87 71.2175C571.886 71.1399 571.939 71.1011 572.028 71.1011ZM575.915 76.4468H575.716C575.278 76.4468 574.94 76.3304 574.701 76.0976C574.463 75.8648 574.344 75.5295 574.344 75.0917V73.562C574.344 73.1241 574.463 72.7888 574.701 72.556C574.94 72.3232 575.278 72.2068 575.716 72.2068H577.636C577.758 72.2068 577.819 72.265 577.819 72.3814V76.2722C577.819 76.3886 577.758 76.4468 577.636 76.4468H576.938C576.821 76.4468 576.763 76.3886 576.763 76.2722V75.9978H576.73C576.669 76.1475 576.561 76.2611 576.406 76.3387C576.25 76.4108 576.087 76.4468 575.915 76.4468ZM576.763 74.9004V73.2128C576.763 73.1518 576.73 73.1213 576.663 73.1213H575.882C575.705 73.1213 575.58 73.1601 575.508 73.2377C575.436 73.3098 575.4 73.4345 575.4 73.6118V75.0418C575.4 75.2191 575.436 75.3466 575.508 75.4242C575.58 75.4963 575.705 75.5323 575.882 75.5323H576.189C576.572 75.5323 576.763 75.3217 576.763 74.9004ZM579.653 76.4468H578.946C578.83 76.4468 578.771 76.3886 578.771 76.2722V70.7769C578.771 70.6605 578.83 70.6023 578.946 70.6023H579.653C579.769 70.6023 579.827 70.6605 579.827 70.7769V76.2722C579.827 76.3886 579.769 76.4468 579.653 76.4468ZM582.48 76.4468H581.532C581.427 76.4468 581.36 76.3886 581.333 76.2722L580.501 72.3814C580.479 72.265 580.521 72.2068 580.626 72.2068H581.424C581.546 72.2068 581.613 72.265 581.624 72.3814L581.998 75.2247H582.064L582.655 72.3814C582.671 72.265 582.735 72.2068 582.846 72.2068H583.577C583.694 72.2068 583.763 72.265 583.785 72.3814L584.359 75.2247H584.425L584.808 72.3814C584.824 72.265 584.891 72.2068 585.007 72.2068H585.805C585.916 72.2068 585.958 72.265 585.93 72.3814L585.099 76.2722C585.077 76.3886 585.01 76.4468 584.899 76.4468H583.951C583.841 76.4468 583.774 76.3886 583.752 76.2722L583.245 73.4622H583.178L582.679 76.2722C582.663 76.3886 582.596 76.4468 582.48 76.4468ZM588.061 76.4468H587.861C587.423 76.4468 587.085 76.3304 586.847 76.0976C586.609 75.8648 586.49 75.5295 586.49 75.0917V73.562C586.49 73.1241 586.609 72.7888 586.847 72.556C587.085 72.3232 587.423 72.2068 587.861 72.2068H589.782C589.904 72.2068 589.965 72.265 589.965 72.3814V76.2722C589.965 76.3886 589.904 76.4468 589.782 76.4468H589.083C588.967 76.4468 588.909 76.3886 588.909 76.2722V75.9978H588.876C588.815 76.1475 588.706 76.2611 588.551 76.3387C588.396 76.4108 588.233 76.4468 588.061 76.4468ZM588.909 74.9004V73.2128C588.909 73.1518 588.876 73.1213 588.809 73.1213H588.028C587.85 73.1213 587.725 73.1601 587.653 73.2377C587.581 73.3098 587.545 73.4345 587.545 73.6118V75.0418C587.545 75.2191 587.581 75.3466 587.653 75.4242C587.725 75.4963 587.85 75.5323 588.028 75.5323H588.335C588.718 75.5323 588.909 75.3217 588.909 74.9004ZM591.757 76.4468H591.05C590.934 76.4468 590.876 76.3886 590.876 76.2722V72.3814C590.876 72.265 590.934 72.2068 591.05 72.2068H591.757C591.873 72.2068 591.931 72.265 591.931 72.3814V72.6641H591.965C592.026 72.5144 592.134 72.4008 592.289 72.3232C592.444 72.2456 592.608 72.2068 592.779 72.2068H593.079C593.19 72.2068 593.245 72.265 593.245 72.3814V72.9551C593.245 73.0216 593.231 73.0687 593.203 73.0964C593.181 73.1186 593.14 73.1269 593.079 73.1213H592.505C592.123 73.1213 591.931 73.3375 591.931 73.7698V76.2722C591.931 76.3886 591.873 76.4468 591.757 76.4468ZM596.9 76.4468H595.063C594.625 76.4468 594.287 76.3304 594.048 76.0976C593.81 75.8648 593.691 75.5295 593.691 75.0917V73.562C593.691 73.1241 593.81 72.7888 594.048 72.556C594.287 72.3232 594.625 72.2068 595.063 72.2068H595.719C596.157 72.2068 596.495 72.3232 596.734 72.556C596.972 72.7888 597.091 73.1241 597.091 73.562V74.6178C597.091 74.7342 597.033 74.7924 596.917 74.7924H594.83C594.763 74.7924 594.73 74.8229 594.73 74.8838V75.0667C594.73 75.2385 594.766 75.3632 594.838 75.4408C594.916 75.5129 595.043 75.5489 595.221 75.5489H596.9C597.016 75.5489 597.074 75.6099 597.074 75.7318V76.2805C597.074 76.3415 597.061 76.3858 597.033 76.4135C597.011 76.4357 596.966 76.4468 596.9 76.4468ZM594.83 74.0857H595.96C596.021 74.0857 596.052 74.0552 596.052 73.9943V73.5952C596.052 73.4179 596.016 73.2931 595.944 73.2211C595.872 73.149 595.747 73.113 595.57 73.113H595.221C595.043 73.113 594.918 73.149 594.846 73.2211C594.774 73.2931 594.738 73.4179 594.738 73.5952V73.9943C594.738 74.0552 594.769 74.0857 594.83 74.0857Z" fill="#D5FEFE"/>
<rect width="9.97633" height="9.97633" transform="translate(553.805 90.2427)" fill="#FF9431"/>
<path d="M572.028 91.8852H573.258C573.375 91.8852 573.433 91.9434 573.433 92.0598V97.0562C573.433 97.1726 573.375 97.2308 573.258 97.2308H572.576C572.46 97.2308 572.402 97.1726 572.402 97.0562V93.1156H572.369L571.521 95.9007C571.487 96.0115 571.418 96.0669 571.313 96.0669H570.614C570.509 96.0669 570.44 96.0115 570.407 95.9007L569.542 93.1073H569.509V97.0562C569.509 97.1228 569.498 97.1699 569.476 97.1976C569.453 97.2198 569.406 97.2308 569.334 97.2308H568.652C568.536 97.2308 568.478 97.1726 568.478 97.0562V92.0598C568.478 91.9434 568.536 91.8852 568.652 91.8852H569.891C569.969 91.8852 570.021 91.924 570.049 92.0016L570.93 94.9363H570.98L571.87 92.0016C571.886 91.924 571.939 91.8852 572.028 91.8852ZM575.608 92.0598V97.0562C575.608 97.1726 575.549 97.2308 575.433 97.2308H574.726C574.61 97.2308 574.552 97.1726 574.552 97.0562V92.0598C574.552 91.9434 574.61 91.8852 574.726 91.8852H575.433C575.549 91.8852 575.608 91.9434 575.608 92.0598ZM578.381 97.2308H577.683C577.561 97.2308 577.5 97.1726 577.5 97.0562V92.8911C577.5 92.8302 577.469 92.7997 577.408 92.7997H576.461C576.344 92.7997 576.286 92.7415 576.286 92.6251V92.0598C576.286 91.9434 576.344 91.8852 576.461 91.8852H579.603C579.719 91.8852 579.778 91.9434 579.778 92.0598V92.6251C579.778 92.7415 579.719 92.7997 579.603 92.7997H578.655C578.589 92.7997 578.556 92.8302 578.556 92.8911V97.0562C578.556 97.1726 578.497 97.2308 578.381 97.2308ZM583.962 91.8852H585.193C585.309 91.8852 585.367 91.9434 585.367 92.0598V97.0562C585.367 97.1726 585.309 97.2308 585.193 97.2308H584.511C584.395 97.2308 584.336 97.1726 584.336 97.0562V93.1156H584.303L583.455 95.9007C583.422 96.0115 583.353 96.0669 583.247 96.0669H582.549C582.444 96.0669 582.374 96.0115 582.341 95.9007L581.477 93.1073H581.443V97.0562C581.443 97.1228 581.432 97.1699 581.41 97.1976C581.388 97.2198 581.341 97.2308 581.269 97.2308H580.587C580.471 97.2308 580.412 97.1726 580.412 97.0562V92.0598C580.412 91.9434 580.471 91.8852 580.587 91.8852H581.826C581.903 91.8852 581.956 91.924 581.984 92.0016L582.865 94.9363H582.915L583.804 92.0016C583.821 91.924 583.874 91.8852 583.962 91.8852Z" fill="#D5FEFE"/>
<rect width="9.97633" height="9.97633" transform="translate(553.805 111.027)" fill="#8E10F1"/>
<path d="M569.625 117.1H570.531C570.709 117.1 570.833 117.064 570.905 116.992C570.983 116.915 571.022 116.787 571.022 116.61V114.074C571.022 113.897 570.983 113.772 570.905 113.7C570.833 113.622 570.709 113.584 570.531 113.584H569.625C569.564 113.584 569.534 113.614 569.534 113.675V117.009C569.534 117.07 569.564 117.1 569.625 117.1ZM568.478 117.84V112.844C568.478 112.727 568.536 112.669 568.652 112.669H570.706C571.138 112.669 571.474 112.788 571.712 113.027C571.956 113.259 572.078 113.592 572.078 114.024V116.66C572.078 117.092 571.956 117.427 571.712 117.666C571.474 117.898 571.138 118.015 570.706 118.015H568.652C568.536 118.015 568.478 117.957 568.478 117.84ZM574.22 117.1H575.127C575.304 117.1 575.429 117.064 575.501 116.992C575.578 116.915 575.617 116.787 575.617 116.61V114.074C575.617 113.897 575.578 113.772 575.501 113.7C575.429 113.622 575.304 113.584 575.127 113.584H574.22C574.159 113.584 574.129 113.614 574.129 113.675V117.009C574.129 117.07 574.159 117.1 574.22 117.1ZM573.073 117.84V112.844C573.073 112.727 573.131 112.669 573.248 112.669H575.301C575.733 112.669 576.069 112.788 576.307 113.027C576.551 113.259 576.673 113.592 576.673 114.024V116.66C576.673 117.092 576.551 117.427 576.307 117.666C576.069 117.898 575.733 118.015 575.301 118.015H573.248C573.131 118.015 573.073 117.957 573.073 117.84ZM579.614 118.015H578.874C578.436 118.015 578.098 117.898 577.86 117.666C577.621 117.433 577.502 117.098 577.502 116.66V115.13C577.502 114.692 577.621 114.357 577.86 114.124C578.098 113.891 578.436 113.775 578.874 113.775H579.614C580.046 113.775 580.381 113.894 580.62 114.132C580.864 114.365 580.985 114.698 580.985 115.13V116.66C580.985 117.092 580.864 117.427 580.62 117.666C580.381 117.898 580.046 118.015 579.614 118.015ZM579.032 117.109H579.456C579.633 117.109 579.758 117.073 579.83 117.001C579.907 116.928 579.946 116.804 579.946 116.626V115.163C579.946 114.986 579.907 114.861 579.83 114.789C579.758 114.717 579.633 114.681 579.456 114.681H579.032C578.854 114.681 578.73 114.717 578.658 114.789C578.586 114.861 578.55 114.986 578.55 115.163V116.626C578.55 116.804 578.586 116.928 578.658 117.001C578.73 117.073 578.854 117.109 579.032 117.109ZM581.765 116.651V116.485C581.765 116.369 581.823 116.31 581.94 116.31H582.646C582.763 116.31 582.821 116.369 582.821 116.485V116.552C582.821 116.762 582.863 116.906 582.946 116.984C583.029 117.061 583.181 117.1 583.403 117.1H583.794C584.01 117.1 584.159 117.059 584.243 116.976C584.331 116.892 584.376 116.737 584.376 116.51V116.41C584.376 116.25 584.309 116.128 584.176 116.044C584.049 115.956 583.888 115.903 583.694 115.886C583.5 115.87 583.289 115.839 583.062 115.795C582.84 115.745 582.633 115.684 582.439 115.612C582.245 115.535 582.081 115.388 581.948 115.172C581.821 114.95 581.757 114.667 581.757 114.324V114.033C581.757 113.6 581.879 113.265 582.123 113.027C582.367 112.788 582.705 112.669 583.137 112.669H583.968C584.406 112.669 584.747 112.788 584.991 113.027C585.235 113.265 585.357 113.6 585.357 114.033V114.191C585.357 114.307 585.298 114.365 585.182 114.365H584.475C584.359 114.365 584.301 114.307 584.301 114.191V114.141C584.301 113.924 584.259 113.778 584.176 113.7C584.093 113.622 583.941 113.584 583.719 113.584H583.395C583.167 113.584 583.012 113.628 582.929 113.717C582.851 113.8 582.813 113.966 582.813 114.215V114.373C582.813 114.634 583.04 114.784 583.494 114.822C583.966 114.861 584.384 114.955 584.75 115.105C584.944 115.188 585.104 115.338 585.232 115.554C585.365 115.765 585.431 116.036 585.431 116.369V116.651C585.431 117.084 585.31 117.419 585.066 117.657C584.822 117.896 584.484 118.015 584.051 118.015H583.145C582.713 118.015 582.375 117.896 582.131 117.657C581.887 117.419 581.765 117.084 581.765 116.651Z" fill="#D5FEFE"/>
<rect width="9.97633" height="9.97633" transform="translate(553.805 131.811)" fill="#10F1C8"/>
<path d="M569.359 138.799H568.652C568.536 138.799 568.478 138.741 568.478 138.624V133.628C568.478 133.511 568.536 133.453 568.652 133.453H570.681C571.113 133.453 571.449 133.572 571.687 133.811C571.925 134.043 572.044 134.376 572.044 134.808V135.606C572.044 136.039 571.925 136.374 571.687 136.612C571.449 136.845 571.113 136.962 570.681 136.962H569.633C569.567 136.962 569.534 136.992 569.534 137.053V138.624C569.534 138.741 569.476 138.799 569.359 138.799ZM569.625 136.039H570.506C570.684 136.039 570.808 136.003 570.881 135.931C570.953 135.853 570.989 135.728 570.989 135.557V134.858C570.989 134.681 570.953 134.556 570.881 134.484C570.808 134.406 570.684 134.368 570.506 134.368H569.625C569.564 134.368 569.534 134.398 569.534 134.459V135.947C569.534 136.008 569.564 136.039 569.625 136.039ZM573.684 138.799H572.978C572.861 138.799 572.803 138.741 572.803 138.624V133.129C572.803 133.013 572.861 132.954 572.978 132.954H573.684C573.801 132.954 573.859 133.013 573.859 133.129V135.008H573.892C574.014 134.709 574.286 134.559 574.707 134.559H574.973C575.843 134.559 576.278 135.011 576.278 135.914V138.624C576.278 138.741 576.217 138.799 576.095 138.799H575.397C575.281 138.799 575.222 138.741 575.222 138.624V135.964C575.222 135.787 575.184 135.662 575.106 135.59C575.034 135.512 574.909 135.473 574.732 135.473H574.433C574.05 135.473 573.859 135.684 573.859 136.105V138.624C573.859 138.741 573.801 138.799 573.684 138.799ZM577.196 133.844V133.121C577.196 133.01 577.252 132.954 577.363 132.954H578.086C578.197 132.954 578.252 133.007 578.252 133.112V133.844C578.252 133.955 578.197 134.01 578.086 134.01H577.363C577.252 134.01 577.196 133.955 577.196 133.844ZM577.196 138.624V134.733C577.196 134.617 577.252 134.559 577.363 134.559H578.078C578.194 134.559 578.252 134.617 578.252 134.733V138.624C578.252 138.696 578.238 138.743 578.211 138.766C578.189 138.788 578.147 138.799 578.086 138.799H577.371C577.255 138.799 577.196 138.741 577.196 138.624ZM580.813 138.799H579.234C579.123 138.799 579.068 138.741 579.068 138.624V138.092C579.068 138.031 579.079 137.99 579.101 137.967C579.123 137.94 579.167 137.926 579.234 137.926H580.622C580.894 137.926 581.03 137.843 581.03 137.676V137.635C581.03 137.502 580.916 137.374 580.689 137.252L579.866 136.795C579.583 136.651 579.375 136.496 579.242 136.33C579.109 136.163 579.043 135.95 579.043 135.69C579.043 135.302 579.145 135.016 579.35 134.833C579.555 134.65 579.877 134.559 580.315 134.559H581.703C581.814 134.559 581.869 134.617 581.869 134.733V135.274C581.869 135.335 581.858 135.379 581.836 135.407C581.814 135.429 581.77 135.44 581.703 135.44H580.547C580.276 135.44 580.14 135.509 580.14 135.648V135.69C580.14 135.811 580.259 135.936 580.498 136.064L581.337 136.562C581.625 136.718 581.828 136.878 581.944 137.045C582.061 137.205 582.119 137.419 582.119 137.685C582.119 138.427 581.684 138.799 580.813 138.799ZM583.736 138.799H583.029C582.912 138.799 582.854 138.741 582.854 138.624V133.129C582.854 133.013 582.912 132.954 583.029 132.954H583.736C583.852 132.954 583.91 133.013 583.91 133.129V135.008H583.943C584.065 134.709 584.337 134.559 584.758 134.559H585.024C585.894 134.559 586.329 135.011 586.329 135.914V138.624C586.329 138.741 586.268 138.799 586.146 138.799H585.448C585.332 138.799 585.274 138.741 585.274 138.624V135.964C585.274 135.787 585.235 135.662 585.157 135.59C585.085 135.512 584.96 135.473 584.783 135.473H584.484C584.101 135.473 583.91 135.684 583.91 136.105V138.624C583.91 138.741 583.852 138.799 583.736 138.799ZM587.247 133.844V133.121C587.247 133.01 587.303 132.954 587.414 132.954H588.137C588.248 132.954 588.303 133.007 588.303 133.112V133.844C588.303 133.955 588.248 134.01 588.137 134.01H587.414C587.303 134.01 587.247 133.955 587.247 133.844ZM587.247 138.624V134.733C587.247 134.617 587.303 134.559 587.414 134.559H588.129C588.245 134.559 588.303 134.617 588.303 134.733V138.624C588.303 138.696 588.289 138.743 588.262 138.766C588.24 138.788 588.198 138.799 588.137 138.799H587.422C587.306 138.799 587.247 138.741 587.247 138.624ZM590.141 138.799H589.435C589.318 138.799 589.26 138.741 589.26 138.624V134.733C589.26 134.617 589.318 134.559 589.435 134.559H590.141C590.258 134.559 590.316 134.617 590.316 134.733V135.008H590.349C590.471 134.709 590.743 134.559 591.164 134.559H591.43C592.3 134.559 592.735 135.011 592.735 135.914V138.624C592.735 138.741 592.674 138.799 592.552 138.799H591.854C591.737 138.799 591.679 138.741 591.679 138.624V135.964C591.679 135.787 591.64 135.662 591.563 135.59C591.491 135.512 591.366 135.473 591.189 135.473H590.889C590.507 135.473 590.316 135.684 590.316 136.105V138.624C590.316 138.741 590.258 138.799 590.141 138.799ZM595.108 138.608H594.834C594.407 138.608 594.083 138.491 593.861 138.258C593.645 138.026 593.537 137.69 593.537 137.252V135.914C593.537 135.476 593.656 135.141 593.894 134.908C594.133 134.675 594.471 134.559 594.909 134.559H596.829C596.951 134.559 597.012 134.617 597.012 134.733V138.832C597.012 139.264 596.89 139.597 596.646 139.83C596.408 140.062 596.072 140.179 595.64 140.179H594.044C593.977 140.179 593.93 140.165 593.903 140.137C593.88 140.115 593.869 140.074 593.869 140.013V139.439C593.869 139.323 593.928 139.264 594.044 139.264H595.466C595.643 139.264 595.768 139.226 595.84 139.148C595.917 139.076 595.956 138.954 595.956 138.782V138.15H595.923C595.862 138.3 595.754 138.414 595.599 138.491C595.443 138.569 595.28 138.608 595.108 138.608ZM595.956 137.061V135.565C595.956 135.504 595.923 135.473 595.856 135.473H595.075C594.897 135.473 594.773 135.512 594.701 135.59C594.629 135.662 594.593 135.787 594.593 135.964V137.203C594.593 137.38 594.629 137.505 594.701 137.577C594.773 137.649 594.897 137.685 595.075 137.685H595.382C595.765 137.685 595.956 137.477 595.956 137.061Z" fill="#D5FEFE"/>
</g>
<defs>
<filter id="filter0_bd_772_1469" x="-7.05931" y="-11.0593" width="676.95" height="395.119" filterUnits="userSpaceOnUse" color-interpolation-filters="sRGB">
<feFlood flood-opacity="0" result="BackgroundImageFix"/>
<feGaussianBlur in="BackgroundImageFix" stdDeviation="28.5297"/>
<feComposite in2="SourceAlpha" operator="in" result="effect1_backgroundBlur_772_1469"/>
<feColorMatrix in="SourceAlpha" type="matrix" values="0 0 0 0 0 0 0 0 0 0 0 0 0 0 0 0 0 0 127 0" result="hardAlpha"/>
<feOffset dy="3.65128"/>
<feGaussianBlur stdDeviation="24.6461"/>
<feComposite in2="hardAlpha" operator="out"/>
<feColorMatrix type="matrix" values="0 0 0 0 0.14751 0 0 0 0 0.14751 0 0 0 0 0.14751 0 0 0 0.86 0"/>
<feBlend mode="normal" in2="effect1_backgroundBlur_772_1469" result="effect2_dropShadow_772_1469"/>
<feBlend mode="normal" in="SourceGraphic" in2="effect2_dropShadow_772_1469" result="shape"/>
</filter>
</defs>
</svg>
