<svg width="783" height="433" viewBox="0 0 783 433" fill="none" xmlns="http://www.w3.org/2000/svg">
<g filter="url(#filter0_bd_763_308)">
<path d="M50 57.4119C50 51.1093 55.1093 46 61.4119 46H721.588C727.891 46 733 51.1093 733 57.4119V368.385C733 374.688 727.891 379.797 721.588 379.797H61.4119C55.1093 379.797 50 374.688 50 368.385V57.4119Z" fill="#161F21"/>
<path d="M50.2853 57.4119C50.2853 51.2668 55.2668 46.2853 61.4119 46.2853H721.588C727.733 46.2853 732.715 51.2668 732.715 57.4119V368.385C732.715 374.53 727.733 379.512 721.588 379.512H61.4119C55.2668 379.512 50.2853 374.53 50.2853 368.385V57.4119Z" stroke="#6EE5E5" stroke-width="0.570593"/>
<g opacity="0.8">
<line x1="111.054" y1="135.869" x2="698.194" y2="135.869" stroke="#3D4D51" stroke-width="0.570593"/>
<line x1="111.054" y1="156.41" x2="698.194" y2="156.41" stroke="#3D4D51" stroke-width="0.570593"/>
<line x1="111.054" y1="176.951" x2="698.194" y2="176.951" stroke="#3D4D51" stroke-width="0.570593"/>
<line x1="111.054" y1="197.493" x2="698.194" y2="197.493" stroke="#3D4D51" stroke-width="0.570593"/>
<line x1="111.054" y1="218.034" x2="698.194" y2="218.034" stroke="#3D4D51" stroke-width="0.570593"/>
<line x1="111.054" y1="238.575" x2="698.194" y2="238.575" stroke="#3D4D51" stroke-width="0.570593"/>
<line x1="111.054" y1="259.117" x2="698.194" y2="259.117" stroke="#3D4D51" stroke-width="0.570593"/>
<line x1="111.054" y1="279.658" x2="698.194" y2="279.658" stroke="#3D4D51" stroke-width="0.570593"/>
</g>
<path d="M79.292 83.9648H78.1417C77.9409 83.9648 77.8404 83.869 77.8404 83.6773V76.8165C77.8404 76.716 77.7902 76.6658 77.6898 76.6658H76.1287C75.9369 76.6658 75.8411 76.57 75.8411 76.3782V75.447C75.8411 75.2553 75.9369 75.1595 76.1287 75.1595H81.3051C81.4968 75.1595 81.5927 75.2553 81.5927 75.447V76.3782C81.5927 76.57 81.4968 76.6658 81.3051 76.6658H79.7439C79.6344 76.6658 79.5796 76.716 79.5796 76.8165V83.6773C79.5796 83.869 79.4838 83.9648 79.292 83.9648ZM84.6377 83.9648H83.4737C83.282 83.9648 83.1861 83.869 83.1861 83.6773V75.447C83.1861 75.2553 83.282 75.1595 83.4737 75.1595H84.6377C84.8294 75.1595 84.9253 75.2553 84.9253 75.447V78.6652C84.9253 78.7656 84.9801 78.8158 85.0896 78.8158H87.4039C87.5044 78.8158 87.5546 78.7656 87.5546 78.6652V75.447C87.5546 75.2553 87.6504 75.1595 87.8422 75.1595H89.0062C89.1979 75.1595 89.2938 75.2553 89.2938 75.447V83.6773C89.2938 83.869 89.1979 83.9648 89.0062 83.9648H87.8422C87.6504 83.9648 87.5546 83.869 87.5546 83.6773V80.4728C87.5546 80.3724 87.5044 80.3222 87.4039 80.3222H85.0896C84.9801 80.3222 84.9253 80.3724 84.9253 80.4728V83.6773C84.9253 83.869 84.8294 83.9648 84.6377 83.9648ZM93.0757 83.9648H91.9117C91.72 83.9648 91.6241 83.869 91.6241 83.6773V75.447C91.6241 75.2553 91.72 75.1595 91.9117 75.1595H95.1709C95.883 75.1595 96.4399 75.3557 96.8416 75.7483C97.2433 76.1409 97.4442 76.6932 97.4442 77.4053V78.4735C97.4442 79.5051 97.0379 80.1898 96.2254 80.5276V80.5824L97.6907 83.6362C97.7728 83.8553 97.6952 83.9648 97.4579 83.9648H96.3486C96.1843 83.9648 96.0656 83.9466 95.9926 83.9101C95.9195 83.8735 95.8602 83.7959 95.8146 83.6773L94.4451 80.7193H93.5276C93.4181 80.7193 93.3633 80.7695 93.3633 80.8699V83.6773C93.3633 83.869 93.2674 83.9648 93.0757 83.9648ZM93.5139 79.3225H94.856C95.1481 79.3225 95.3627 79.2632 95.4996 79.1445C95.6365 79.0167 95.705 78.8158 95.705 78.5419V77.4738C95.705 77.1908 95.6365 76.9853 95.4996 76.8575C95.3627 76.7297 95.1481 76.6658 94.856 76.6658H93.5139C93.4135 76.6658 93.3633 76.716 93.3633 76.8165V79.1719C93.3633 79.2723 93.4135 79.3225 93.5139 79.3225ZM104.427 83.9648H99.9485C99.7568 83.9648 99.6609 83.869 99.6609 83.6773V75.447C99.6609 75.2553 99.7568 75.1595 99.9485 75.1595H104.427C104.609 75.1595 104.7 75.2553 104.7 75.447V76.3782C104.7 76.57 104.609 76.6658 104.427 76.6658H101.564C101.455 76.6658 101.4 76.716 101.4 76.8165V78.5967C101.4 78.6971 101.455 78.7473 101.564 78.7473H103.906C104.098 78.7473 104.194 78.8432 104.194 79.0349V79.9661C104.194 80.1578 104.098 80.2537 103.906 80.2537H101.564C101.455 80.2537 101.4 80.3039 101.4 80.4043V82.3078C101.4 82.4083 101.455 82.4585 101.564 82.4585H104.427C104.609 82.4585 104.7 82.5543 104.7 82.7461V83.6773C104.7 83.869 104.609 83.9648 104.427 83.9648ZM107.679 83.9648H106.364C106.2 83.9648 106.145 83.869 106.2 83.6773L108.364 75.447C108.428 75.2553 108.565 75.1595 108.775 75.1595H110.596C110.824 75.1595 110.961 75.2553 111.007 75.447L113.171 83.6773C113.225 83.869 113.171 83.9648 113.006 83.9648H111.692C111.591 83.9648 111.523 83.9466 111.486 83.9101C111.45 83.8644 111.422 83.7868 111.404 83.6773L111.021 82.1709H108.35L107.967 83.6773C107.948 83.7868 107.916 83.8644 107.871 83.9101C107.834 83.9466 107.77 83.9648 107.679 83.9648ZM109.665 76.8165L108.679 80.7741H110.706L109.72 76.8165H109.665ZM117.657 83.9648H116.507C116.306 83.9648 116.206 83.869 116.206 83.6773V76.8165C116.206 76.716 116.155 76.6658 116.055 76.6658H114.494C114.302 76.6658 114.206 76.57 114.206 76.3782V75.447C114.206 75.2553 114.302 75.1595 114.494 75.1595H119.67C119.862 75.1595 119.958 75.2553 119.958 75.447V76.3782C119.958 76.57 119.862 76.6658 119.67 76.6658H118.109C118 76.6658 117.945 76.716 117.945 76.8165V83.6773C117.945 83.869 117.849 83.9648 117.657 83.9648ZM122.934 81.9929V83.061C122.934 83.3075 122.83 83.5905 122.62 83.9101L121.675 85.2932C121.611 85.3845 121.524 85.4301 121.414 85.4301C121.259 85.4301 121.182 85.3388 121.182 85.1562V82.0066C121.182 81.824 121.273 81.7327 121.456 81.7327H122.674C122.848 81.7327 122.934 81.8194 122.934 81.9929ZM128.482 83.9648H126.688C126.496 83.9648 126.382 83.869 126.346 83.6773L124.223 75.4744C124.159 75.2644 124.251 75.1595 124.497 75.1595H125.784C125.967 75.1595 126.076 75.2553 126.113 75.447L127.551 82.1846H127.606L129.044 75.447C129.08 75.2553 129.19 75.1595 129.372 75.1595H130.659C130.888 75.1595 130.979 75.2644 130.933 75.4744L128.811 83.6773C128.765 83.869 128.656 83.9648 128.482 83.9648ZM137.089 75.1595H138.239C138.44 75.1595 138.54 75.2507 138.54 75.4333V81.7327C138.54 82.4448 138.339 82.9971 137.938 83.3897C137.545 83.7731 136.993 83.9648 136.281 83.9648H134.774C134.053 83.9648 133.496 83.7731 133.104 83.3897C132.711 83.0062 132.515 82.4539 132.515 81.7327V75.447C132.515 75.2553 132.611 75.1595 132.802 75.1595H133.966C134.158 75.1595 134.254 75.2553 134.254 75.447V81.6505C134.254 81.9427 134.313 82.1526 134.432 82.2805C134.56 82.3991 134.765 82.4585 135.048 82.4585H135.993C136.285 82.4585 136.491 82.3991 136.609 82.2805C136.737 82.1526 136.801 81.9427 136.801 81.6505V75.447C136.801 75.2553 136.897 75.1595 137.089 75.1595ZM145.587 83.9648H141.081C140.89 83.9648 140.794 83.869 140.794 83.6773V75.447C140.794 75.2553 140.89 75.1595 141.081 75.1595H142.246C142.437 75.1595 142.533 75.2553 142.533 75.447V82.2941C142.533 82.3946 142.588 82.4448 142.697 82.4448H145.587C145.769 82.4448 145.861 82.5452 145.861 82.7461V83.6773C145.861 83.869 145.769 83.9648 145.587 83.9648ZM148.918 83.9648H147.781C147.589 83.9648 147.493 83.869 147.493 83.6773V75.447C147.493 75.2553 147.589 75.1595 147.781 75.1595H148.808C149 75.1595 149.128 75.2234 149.191 75.3512L151.958 80.5413H152.012V75.447C152.012 75.2553 152.108 75.1595 152.3 75.1595H153.437C153.628 75.1595 153.724 75.2553 153.724 75.447V83.6773C153.724 83.869 153.628 83.9648 153.437 83.9648H152.437C152.236 83.9648 152.09 83.8735 151.999 83.691L149.26 78.5967H149.205V83.6773C149.205 83.869 149.109 83.9648 148.918 83.9648ZM160.817 83.9648H156.339C156.148 83.9648 156.052 83.869 156.052 83.6773V75.447C156.052 75.2553 156.148 75.1595 156.339 75.1595H160.817C161 75.1595 161.091 75.2553 161.091 75.447V76.3782C161.091 76.57 161 76.6658 160.817 76.6658H157.955C157.846 76.6658 157.791 76.716 157.791 76.8165V78.5967C157.791 78.6971 157.846 78.7473 157.955 78.7473H160.297C160.489 78.7473 160.585 78.8432 160.585 79.0349V79.9661C160.585 80.1578 160.489 80.2537 160.297 80.2537H157.955C157.846 80.2537 157.791 80.3039 157.791 80.4043V82.3078C157.791 82.4083 157.846 82.4585 157.955 82.4585H160.817C161 82.4585 161.091 82.5543 161.091 82.7461V83.6773C161.091 83.869 161 83.9648 160.817 83.9648ZM164.604 83.9648H163.44C163.248 83.9648 163.152 83.869 163.152 83.6773V75.447C163.152 75.2553 163.248 75.1595 163.44 75.1595H166.699C167.411 75.1595 167.968 75.3557 168.37 75.7483C168.772 76.1409 168.972 76.6932 168.972 77.4053V78.4735C168.972 79.5051 168.566 80.1898 167.754 80.5276V80.5824L169.219 83.6362C169.301 83.8553 169.224 83.9648 168.986 83.9648H167.877C167.713 83.9648 167.594 83.9466 167.521 83.9101C167.448 83.8735 167.389 83.7959 167.343 83.6773L165.973 80.7193H165.056C164.946 80.7193 164.892 80.7695 164.892 80.8699V83.6773C164.892 83.869 164.796 83.9648 164.604 83.9648ZM165.042 79.3225H166.384C166.676 79.3225 166.891 79.2632 167.028 79.1445C167.165 79.0167 167.233 78.8158 167.233 78.5419V77.4738C167.233 77.1908 167.165 76.9853 167.028 76.8575C166.891 76.7297 166.676 76.6658 166.384 76.6658H165.042C164.942 76.6658 164.892 76.716 164.892 76.8165V79.1719C164.892 79.2723 164.942 79.3225 165.042 79.3225ZM172.107 83.9648H170.792C170.628 83.9648 170.573 83.869 170.628 83.6773L172.791 75.447C172.855 75.2553 172.992 75.1595 173.202 75.1595H175.024C175.252 75.1595 175.389 75.2553 175.434 75.447L177.598 83.6773C177.653 83.869 177.598 83.9648 177.434 83.9648H176.119C176.019 83.9648 175.95 83.9466 175.914 83.9101C175.877 83.8644 175.85 83.7868 175.832 83.6773L175.448 82.1709H172.778L172.394 83.6773C172.376 83.7868 172.344 83.8644 172.298 83.9101C172.262 83.9466 172.198 83.9648 172.107 83.9648ZM174.092 76.8165L173.106 80.7741H175.133L174.147 76.8165H174.092ZM181.25 82.5133H182.783C183.085 82.5133 183.299 82.4539 183.427 82.3352C183.564 82.2074 183.632 82.002 183.632 81.719V80.9247C183.632 80.6417 183.564 80.4409 183.427 80.3222C183.29 80.2035 183.066 80.1442 182.756 80.1442H181.25C181.149 80.1442 181.099 80.1944 181.099 80.2948V82.3626C181.099 82.463 181.149 82.5133 181.25 82.5133ZM181.25 78.7336H182.646C182.939 78.7336 183.153 78.6743 183.29 78.5556C183.427 78.4278 183.495 78.2224 183.495 77.9394V77.4053C183.495 77.1223 183.427 76.9214 183.29 76.8028C183.162 76.6749 182.952 76.611 182.66 76.611H181.25C181.149 76.611 181.099 76.6613 181.099 76.7617V78.583C181.099 78.6834 181.149 78.7336 181.25 78.7336ZM179.36 83.6773V75.447C179.36 75.2553 179.456 75.1595 179.647 75.1595H182.934C183.655 75.1595 184.212 75.3512 184.605 75.7346C184.997 76.118 185.194 76.6658 185.194 77.3779V77.9394C185.194 78.7154 184.833 79.2175 184.112 79.4457C184.477 79.5005 184.769 79.6512 184.988 79.8977C185.207 80.135 185.317 80.4774 185.317 80.9247V81.7464C185.317 82.4585 185.12 83.0062 184.728 83.3897C184.335 83.7731 183.783 83.9648 183.071 83.9648H179.647C179.456 83.9648 179.36 83.869 179.36 83.6773ZM192.297 83.9648H187.791C187.599 83.9648 187.504 83.869 187.504 83.6773V75.447C187.504 75.2553 187.599 75.1595 187.791 75.1595H188.955C189.147 75.1595 189.243 75.2553 189.243 75.447V82.2941C189.243 82.3946 189.298 82.4448 189.407 82.4448H192.297C192.479 82.4448 192.57 82.5452 192.57 82.7461V83.6773C192.57 83.869 192.479 83.9648 192.297 83.9648ZM196.011 75.447V83.6773C196.011 83.869 195.915 83.9648 195.723 83.9648H194.559C194.367 83.9648 194.272 83.869 194.272 83.6773V75.447C194.272 75.2553 194.367 75.1595 194.559 75.1595H195.723C195.915 75.1595 196.011 75.2553 196.011 75.447ZM201.127 83.9648H199.977C199.776 83.9648 199.675 83.869 199.675 83.6773V76.8165C199.675 76.716 199.625 76.6658 199.525 76.6658H197.963C197.772 76.6658 197.676 76.57 197.676 76.3782V75.447C197.676 75.2553 197.772 75.1595 197.963 75.1595H203.14C203.332 75.1595 203.427 75.2553 203.427 75.447V76.3782C203.427 76.57 203.332 76.6658 203.14 76.6658H201.579C201.469 76.6658 201.414 76.716 201.414 76.8165V83.6773C201.414 83.869 201.319 83.9648 201.127 83.9648ZM208.253 83.9648H207.089C206.897 83.9648 206.801 83.869 206.801 83.6773V80.7467L204.295 75.4607C204.259 75.3786 204.259 75.3101 204.295 75.2553C204.341 75.1914 204.405 75.1595 204.487 75.1595H205.938C206.085 75.1595 206.194 75.2553 206.267 75.447L207.637 78.7747H207.732L209.074 75.447C209.138 75.2553 209.248 75.1595 209.403 75.1595H210.855C210.946 75.1595 211.01 75.1868 211.046 75.2416C211.092 75.2964 211.092 75.3694 211.046 75.4607L208.54 80.7467V83.6773C208.54 83.869 208.445 83.9648 208.253 83.9648ZM217.117 83.9648H215.803C215.638 83.9648 215.584 83.869 215.638 83.6773L217.802 75.447C217.866 75.2553 218.003 75.1595 218.213 75.1595H220.034C220.263 75.1595 220.4 75.2553 220.445 75.447L222.609 83.6773C222.664 83.869 222.609 83.9648 222.445 83.9648H221.13C221.029 83.9648 220.961 83.9466 220.924 83.9101C220.888 83.8644 220.861 83.7868 220.842 83.6773L220.459 82.1709H217.788L217.405 83.6773C217.387 83.7868 217.355 83.8644 217.309 83.9101C217.273 83.9466 217.209 83.9648 217.117 83.9648ZM219.103 76.8165L218.117 80.7741H220.144L219.158 76.8165H219.103ZM225.795 83.9648H224.658C224.466 83.9648 224.37 83.869 224.37 83.6773V75.447C224.37 75.2553 224.466 75.1595 224.658 75.1595H225.685C225.877 75.1595 226.005 75.2234 226.069 75.3512L228.835 80.5413H228.89V75.447C228.89 75.2553 228.985 75.1595 229.177 75.1595H230.314C230.506 75.1595 230.601 75.2553 230.601 75.447V83.6773C230.601 83.869 230.506 83.9648 230.314 83.9648H229.314C229.113 83.9648 228.967 83.8735 228.876 83.691L226.137 78.5967H226.082V83.6773C226.082 83.869 225.986 83.9648 225.795 83.9648ZM234.819 82.4585H236.311C236.603 82.4585 236.809 82.3991 236.928 82.2805C237.055 82.1526 237.119 81.9427 237.119 81.6505V77.4738C237.119 77.1816 237.055 76.9762 236.928 76.8575C236.809 76.7297 236.603 76.6658 236.311 76.6658H234.819C234.718 76.6658 234.668 76.716 234.668 76.8165V82.3078C234.668 82.4083 234.718 82.4585 234.819 82.4585ZM232.929 83.6773V75.447C232.929 75.2553 233.025 75.1595 233.216 75.1595H236.599C237.311 75.1595 237.863 75.3557 238.256 75.7483C238.658 76.1317 238.858 76.6795 238.858 77.3916V81.7327C238.858 82.4448 238.658 82.9971 238.256 83.3897C237.863 83.7731 237.311 83.9648 236.599 83.9648H233.216C233.025 83.9648 232.929 83.869 232.929 83.6773ZM246.41 75.447V83.6773C246.41 83.869 246.314 83.9648 246.123 83.9648H244.959C244.767 83.9648 244.671 83.869 244.671 83.6773V75.447C244.671 75.2553 244.767 75.1595 244.959 75.1595H246.123C246.314 75.1595 246.41 75.2553 246.41 75.447ZM250.226 83.9648H249.089C248.897 83.9648 248.801 83.869 248.801 83.6773V75.447C248.801 75.2553 248.897 75.1595 249.089 75.1595H250.116C250.308 75.1595 250.435 75.2234 250.499 75.3512L253.266 80.5413H253.32V75.447C253.32 75.2553 253.416 75.1595 253.608 75.1595H254.745C254.936 75.1595 255.032 75.2553 255.032 75.447V83.6773C255.032 83.869 254.936 83.9648 254.745 83.9648H253.745C253.544 83.9648 253.398 83.8735 253.307 83.691L250.568 78.5967H250.513V83.6773C250.513 83.869 250.417 83.9648 250.226 83.9648ZM260.975 83.9648H259.482C258.761 83.9648 258.204 83.7731 257.812 83.3897C257.419 83.0062 257.223 82.4539 257.223 81.7327V77.3916C257.223 76.6704 257.419 76.118 257.812 75.7346C258.204 75.3512 258.761 75.1595 259.482 75.1595H260.975C261.687 75.1595 262.239 75.3557 262.632 75.7483C263.034 76.1317 263.235 76.6795 263.235 77.3916V78.0352C263.235 78.2361 263.134 78.3365 262.933 78.3365H261.783C261.591 78.3365 261.495 78.2361 261.495 78.0352V77.4738C261.495 77.1816 261.431 76.9762 261.304 76.8575C261.185 76.7297 260.98 76.6658 260.687 76.6658H259.756C259.473 76.6658 259.268 76.7297 259.14 76.8575C259.021 76.9762 258.962 77.1816 258.962 77.4738V81.6505C258.962 81.9427 259.021 82.1526 259.14 82.2805C259.268 82.3991 259.473 82.4585 259.756 82.4585H260.687C260.98 82.4585 261.185 82.3991 261.304 82.2805C261.431 82.1526 261.495 81.9427 261.495 81.6505V81.0891C261.495 80.8882 261.591 80.7878 261.783 80.7878H262.933C263.134 80.7878 263.235 80.8882 263.235 81.0891V81.7327C263.235 82.4448 263.034 82.9971 262.632 83.3897C262.239 83.7731 261.687 83.9648 260.975 83.9648ZM267.084 75.447V83.6773C267.084 83.869 266.988 83.9648 266.796 83.9648H265.632C265.44 83.9648 265.345 83.869 265.345 83.6773V75.447C265.345 75.2553 265.44 75.1595 265.632 75.1595H266.796C266.988 75.1595 267.084 75.2553 267.084 75.447ZM271.365 82.4585H272.857C273.149 82.4585 273.355 82.3991 273.474 82.2805C273.601 82.1526 273.665 81.9427 273.665 81.6505V77.4738C273.665 77.1816 273.601 76.9762 273.474 76.8575C273.355 76.7297 273.149 76.6658 272.857 76.6658H271.365C271.264 76.6658 271.214 76.716 271.214 76.8165V82.3078C271.214 82.4083 271.264 82.4585 271.365 82.4585ZM269.475 83.6773V75.447C269.475 75.2553 269.571 75.1595 269.762 75.1595H273.145C273.857 75.1595 274.409 75.3557 274.802 75.7483C275.204 76.1317 275.404 76.6795 275.404 77.3916V81.7327C275.404 82.4448 275.204 82.9971 274.802 83.3897C274.409 83.7731 273.857 83.9648 273.145 83.9648H269.762C269.571 83.9648 269.475 83.869 269.475 83.6773ZM282.357 83.9648H277.879C277.688 83.9648 277.592 83.869 277.592 83.6773V75.447C277.592 75.2553 277.688 75.1595 277.879 75.1595H282.357C282.54 75.1595 282.631 75.2553 282.631 75.447V76.3782C282.631 76.57 282.54 76.6658 282.357 76.6658H279.495C279.386 76.6658 279.331 76.716 279.331 76.8165V78.5967C279.331 78.6971 279.386 78.7473 279.495 78.7473H281.837C282.029 78.7473 282.125 78.8432 282.125 79.0349V79.9661C282.125 80.1578 282.029 80.2537 281.837 80.2537H279.495C279.386 80.2537 279.331 80.3039 279.331 80.4043V82.3078C279.331 82.4083 279.386 82.4585 279.495 82.4585H282.357C282.54 82.4585 282.631 82.5543 282.631 82.7461V83.6773C282.631 83.869 282.54 83.9648 282.357 83.9648ZM286.117 83.9648H284.98C284.788 83.9648 284.693 83.869 284.693 83.6773V75.447C284.693 75.2553 284.788 75.1595 284.98 75.1595H286.007C286.199 75.1595 286.327 75.2234 286.391 75.3512L289.157 80.5413H289.212V75.447C289.212 75.2553 289.307 75.1595 289.499 75.1595H290.636C290.828 75.1595 290.923 75.2553 290.923 75.447V83.6773C290.923 83.869 290.828 83.9648 290.636 83.9648H289.636C289.435 83.9648 289.289 83.8735 289.198 83.691L286.459 78.5967H286.404V83.6773C286.404 83.869 286.308 83.9648 286.117 83.9648ZM295.976 83.9648H294.826C294.625 83.9648 294.524 83.869 294.524 83.6773V76.8165C294.524 76.716 294.474 76.6658 294.374 76.6658H292.813C292.621 76.6658 292.525 76.57 292.525 76.3782V75.447C292.525 75.2553 292.621 75.1595 292.813 75.1595H297.989C298.181 75.1595 298.277 75.2553 298.277 75.447V76.3782C298.277 76.57 298.181 76.6658 297.989 76.6658H296.428C296.318 76.6658 296.264 76.716 296.264 76.8165V83.6773C296.264 83.869 296.168 83.9648 295.976 83.9648ZM299.651 81.719V81.4451C299.651 81.2534 299.747 81.1575 299.939 81.1575H301.103C301.294 81.1575 301.39 81.2534 301.39 81.4451V81.5547C301.39 81.9016 301.459 82.1389 301.596 82.2668C301.733 82.3946 301.984 82.4585 302.349 82.4585H302.992C303.348 82.4585 303.595 82.39 303.732 82.2531C303.878 82.1161 303.951 81.8605 303.951 81.4862V81.3219C303.951 81.0571 303.841 80.8563 303.622 80.7193C303.412 80.5732 303.148 80.4865 302.828 80.4591C302.509 80.4317 302.162 80.3815 301.787 80.3085C301.422 80.2263 301.08 80.1259 300.76 80.0072C300.441 79.8794 300.171 79.6375 299.952 79.2814C299.742 78.9162 299.637 78.4506 299.637 77.8846V77.4053C299.637 76.6932 299.838 76.1409 300.24 75.7483C300.642 75.3557 301.198 75.1595 301.911 75.1595H303.28C304.001 75.1595 304.563 75.3557 304.964 75.7483C305.366 76.1409 305.567 76.6932 305.567 77.4053V77.6655C305.567 77.8572 305.471 77.9531 305.279 77.9531H304.115C303.924 77.9531 303.828 77.8572 303.828 77.6655V77.5833C303.828 77.2273 303.759 76.9853 303.622 76.8575C303.485 76.7297 303.234 76.6658 302.869 76.6658H302.335C301.961 76.6658 301.705 76.7389 301.568 76.8849C301.44 77.0219 301.376 77.2958 301.376 77.7066V77.9668C301.376 78.3959 301.751 78.6424 302.499 78.7063C303.275 78.7702 303.965 78.9254 304.567 79.1719C304.887 79.3088 305.152 79.5553 305.362 79.9113C305.581 80.2583 305.69 80.7056 305.69 81.2534V81.719C305.69 82.4311 305.489 82.9834 305.088 83.376C304.686 83.7686 304.129 83.9648 303.417 83.9648H301.924C301.212 83.9648 300.655 83.7686 300.254 83.376C299.852 82.9834 299.651 82.4311 299.651 81.719Z" fill="#D5FEFE"/>
<path d="M96.2186 310.755C96.061 310.755 95.9333 310.883 95.9333 311.041C95.9333 311.198 96.061 311.326 96.2186 311.326V310.755ZM698.194 310.755L96.2186 310.755V311.326L698.194 311.326V310.755Z" fill="#6EE5E5"/>
<path d="M111.054 237.719L159.043 265.108L222.065 218.034L287.69 229.161L319.201 189.219L391.185 237.719L502.197 195.496L527.348 156.98L581.697 210.331L663.8 156.98L697.624 189.219" stroke="#F1BE10" stroke-width="1.14119"/>
<path d="M531.113 157.836C531.113 160.035 529.305 161.83 527.058 161.83C524.812 161.83 523.003 160.035 523.003 157.836C523.003 155.637 524.812 153.842 527.058 153.842C529.305 153.842 531.113 155.637 531.113 157.836Z" fill="#F1BE10" stroke="#FFF6D9" stroke-width="1.14119"/>
<path d="M505.674 194.354C505.674 196.553 503.865 198.348 501.619 198.348C499.372 198.348 497.564 196.553 497.564 194.354C497.564 192.155 499.372 190.36 501.619 190.36C503.865 190.36 505.674 192.155 505.674 194.354Z" fill="#F1BE10" stroke="#FFF6D9" stroke-width="1.14119"/>
<path d="M393.505 236.578C393.505 238.777 391.696 240.572 389.45 240.572C387.203 240.572 385.395 238.777 385.395 236.578C385.395 234.379 387.203 232.584 389.45 232.584C391.696 232.584 393.505 234.379 393.505 236.578Z" fill="#F1BE10" stroke="#FFF6D9" stroke-width="1.14119"/>
<path d="M322.387 190.36C322.387 192.559 320.579 194.354 318.333 194.354C316.086 194.354 314.278 192.559 314.278 190.36C314.278 188.161 316.086 186.366 318.333 186.366C320.579 186.366 322.387 188.161 322.387 190.36Z" fill="#F1BE10" stroke="#FFF6D9" stroke-width="1.14119"/>
<path d="M223.519 218.319C223.519 220.518 221.711 222.314 219.464 222.314C217.218 222.314 215.409 220.518 215.409 218.319C215.409 216.121 217.218 214.325 219.464 214.325C221.711 214.325 223.519 216.121 223.519 218.319Z" fill="#F1BE10" stroke="#FFF6D9" stroke-width="1.14119"/>
<path d="M162.231 263.396C162.231 265.595 160.423 267.39 158.176 267.39C155.93 267.39 154.121 265.595 154.121 263.396C154.121 261.197 155.93 259.402 158.176 259.402C160.423 259.402 162.231 261.197 162.231 263.396Z" fill="#F1BE10" stroke="#FFF6D9" stroke-width="1.14119"/>
<path d="M290.589 227.449C290.589 229.648 288.78 231.443 286.534 231.443C284.287 231.443 282.479 229.648 282.479 227.449C282.479 225.25 284.287 223.455 286.534 223.455C288.78 223.455 290.589 225.25 290.589 227.449Z" fill="#F1BE10" stroke="#FFF6D9" stroke-width="1.14119"/>
<path d="M584.306 209.19C584.306 211.389 582.498 213.184 580.251 213.184C578.005 213.184 576.197 211.389 576.197 209.19C576.197 206.991 578.005 205.196 580.251 205.196C582.498 205.196 584.306 206.991 584.306 209.19Z" fill="#F1BE10" stroke="#FFF6D9" stroke-width="1.14119"/>
<path d="M666.987 157.836C666.987 160.035 665.179 161.83 662.932 161.83C660.686 161.83 658.877 160.035 658.877 157.836C658.877 155.637 660.686 153.842 662.932 153.842C665.179 153.842 666.987 155.637 666.987 157.836Z" fill="#F1BE10" stroke="#FFF6D9" stroke-width="1.14119"/>
<path d="M110.764 206.337L151.815 211.472L220.33 174.954H286.243L318.911 167.822L402.169 191.216L489.476 115.612L526.19 141.004L581.118 168.963L661.775 144.998L697.334 157.836" stroke="#F76058" stroke-width="1.14119"/>
<path d="M531.113 141.289C531.113 143.488 529.305 145.283 527.058 145.283C524.812 145.283 523.003 143.488 523.003 141.289C523.003 139.09 524.812 137.295 527.058 137.295C529.305 137.295 531.113 139.09 531.113 141.289Z" fill="#F76058" stroke="#FFF6D9" stroke-width="1.14119"/>
<path d="M224.675 174.954C224.675 177.153 222.866 178.948 220.62 178.948C218.373 178.948 216.565 177.153 216.565 174.954C216.565 172.755 218.373 170.96 220.62 170.96C222.866 170.96 224.675 172.755 224.675 174.954Z" fill="#F76058" stroke="#FFF6D9" stroke-width="1.14119"/>
<path d="M155.872 210.901C155.872 213.1 154.063 214.896 151.817 214.896C149.57 214.896 147.762 213.1 147.762 210.901C147.762 208.703 149.57 206.907 151.817 206.907C154.063 206.907 155.872 208.703 155.872 210.901Z" fill="#F76058" stroke="#FFF6D9" stroke-width="1.14119"/>
<path d="M289.432 174.954C289.432 177.153 287.624 178.948 285.377 178.948C283.131 178.948 281.323 177.153 281.323 174.954C281.323 172.755 283.131 170.96 285.377 170.96C287.624 170.96 289.432 172.755 289.432 174.954Z" fill="#F76058" stroke="#FFF6D9" stroke-width="1.14119"/>
<path d="M586.042 168.678C586.042 170.876 584.233 172.672 581.987 172.672C579.74 172.672 577.932 170.876 577.932 168.678C577.932 166.479 579.74 164.683 581.987 164.683C584.233 164.683 586.042 166.479 586.042 168.678Z" fill="#F76058" stroke="#FFF6D9" stroke-width="1.14119"/>
<path d="M666.409 144.713C666.409 146.912 664.601 148.707 662.354 148.707C660.107 148.707 658.299 146.912 658.299 144.713C658.299 142.514 660.107 140.719 662.354 140.719C664.601 140.719 666.409 142.514 666.409 144.713Z" fill="#F76058" stroke="#FFF6D9" stroke-width="1.14119"/>
<path d="M403.913 190.36C403.913 192.559 402.105 194.354 399.858 194.354C397.611 194.354 395.803 192.559 395.803 190.36C395.803 188.161 397.611 186.366 399.858 186.366C402.105 186.366 403.913 188.161 403.913 190.36Z" fill="#F76058" stroke="#FFF6D9" stroke-width="1.14119"/>
<path d="M111.335 231.442L154.121 245.137L218.299 210.616L285.08 186.365L319.771 154.127L390.599 237.148L490.047 140.718L526.762 166.109L580.244 220.03L662.635 204.339L693.858 217.178" stroke="#62E794" stroke-width="1.14119"/>
<path d="M221.488 209.189C221.488 211.388 219.68 213.183 217.433 213.183C215.187 213.183 213.378 211.388 213.378 209.189C213.378 206.99 215.187 205.195 217.433 205.195C219.68 205.195 221.488 206.99 221.488 209.189Z" fill="#62E794" stroke="#FFF6D9" stroke-width="1.14119"/>
<path d="M158.466 243.996C158.466 246.194 156.657 247.99 154.411 247.99C152.164 247.99 150.356 246.194 150.356 243.996C150.356 241.797 152.164 240.002 154.411 240.002C156.657 240.002 158.466 241.797 158.466 243.996Z" fill="#62E794" stroke="#FFF6D9" stroke-width="1.14119"/>
<path d="M323.826 154.412C323.826 156.611 322.018 158.406 319.771 158.406C317.524 158.406 315.716 156.611 315.716 154.412C315.716 152.213 317.524 150.418 319.771 150.418C322.018 150.418 323.826 152.213 323.826 154.412Z" fill="#62E794" stroke="#FFF6D9" stroke-width="1.14119"/>
<path d="M288.556 187.507C288.556 189.706 286.748 191.501 284.501 191.501C282.255 191.501 280.447 189.706 280.447 187.507C280.447 185.308 282.255 183.513 284.501 183.513C286.748 183.513 288.556 185.308 288.556 187.507Z" fill="#62E794" stroke="#FFF6D9" stroke-width="1.14119"/>
<path d="M584.588 220.031C584.588 222.23 582.779 224.025 580.533 224.025C578.286 224.025 576.478 222.23 576.478 220.031C576.478 217.832 578.286 216.037 580.533 216.037C582.779 216.037 584.588 217.832 584.588 220.031Z" fill="#62E794" stroke="#FFF6D9" stroke-width="1.14119"/>
<path d="M667.269 204.625C667.269 206.823 665.461 208.619 663.214 208.619C660.968 208.619 659.159 206.823 659.159 204.625C659.159 202.426 660.968 200.63 663.214 200.63C665.461 200.63 667.269 202.426 667.269 204.625Z" fill="#62E794" stroke="#FFF6D9" stroke-width="1.14119"/>
<path d="M394.943 236.007C394.943 238.206 393.135 240.001 390.888 240.001C388.642 240.001 386.833 238.206 386.833 236.007C386.833 233.808 388.642 232.013 390.888 232.013C393.135 232.013 394.943 233.808 394.943 236.007Z" fill="#62E794" stroke="#FFF6D9" stroke-width="1.14119"/>
<path d="M528.504 162.971C528.504 165.17 526.695 166.965 524.449 166.965C522.202 166.965 520.394 165.17 520.394 162.971C520.394 160.772 522.202 158.977 524.449 158.977C526.695 158.977 528.504 160.772 528.504 162.971Z" fill="#62E794" stroke="#FFF6D9" stroke-width="1.14119"/>
<path d="M494.391 142.43C494.391 144.629 492.583 146.424 490.336 146.424C488.09 146.424 486.282 144.629 486.282 142.43C486.282 140.231 488.09 138.436 490.336 138.436C492.583 138.436 494.391 140.231 494.391 142.43Z" fill="#62E794" stroke="#FFF6D9" stroke-width="1.14119"/>
<circle cx="493.352" cy="115.612" r="3.99415" fill="#F76058" stroke="#FFF6D9" stroke-width="1.14119"/>
<path d="M77.7492 130.542H78.4704C78.6956 130.542 78.8599 130.49 78.9634 130.387C79.0729 130.283 79.1277 130.119 79.1277 129.894V129.401C79.1277 128.944 78.9086 128.716 78.4704 128.716H77.7492C77.3109 128.716 77.0918 128.944 77.0918 129.401V129.894C77.0918 130.119 77.1436 130.283 77.247 130.387C77.3566 130.49 77.524 130.542 77.7492 130.542ZM77.7492 128.004H78.4704C78.9086 128.004 79.1277 127.776 79.1277 127.319V126.872C79.1277 126.647 79.0729 126.483 78.9634 126.379C78.8599 126.276 78.6956 126.224 78.4704 126.224H77.7492C77.524 126.224 77.3566 126.276 77.247 126.379C77.1436 126.483 77.0918 126.647 77.0918 126.872V127.319C77.0918 127.776 77.3109 128.004 77.7492 128.004ZM78.5982 131.318H77.6305C77.1801 131.318 76.8301 131.202 76.5806 130.971C76.331 130.74 76.2063 130.402 76.2063 129.958V129.465C76.2063 128.905 76.4162 128.54 76.8362 128.369C76.4162 128.199 76.2063 127.831 76.2063 127.265V126.799C76.2063 126.361 76.331 126.026 76.5806 125.795C76.8301 125.563 77.1801 125.448 77.6305 125.448H78.5982C79.0486 125.448 79.3955 125.563 79.639 125.795C79.8885 126.026 80.0133 126.361 80.0133 126.799V127.265C80.0133 127.545 79.9554 127.782 79.8398 127.977C79.7303 128.171 79.5811 128.302 79.3925 128.369C79.8063 128.534 80.0133 128.902 80.0133 129.474V129.958C80.0133 130.402 79.8885 130.74 79.639 130.971C79.3955 131.202 79.0486 131.318 78.5982 131.318ZM83.0005 130.542H83.6487C84.0869 130.542 84.306 130.317 84.306 129.867V126.899C84.306 126.449 84.0869 126.224 83.6487 126.224H83.0005C82.5622 126.224 82.3431 126.449 82.3431 126.899V129.867C82.3431 130.317 82.5622 130.542 83.0005 130.542ZM83.7765 131.318H82.8635C82.4131 131.318 82.0632 131.193 81.8136 130.944C81.5641 130.694 81.4393 130.347 81.4393 129.903V126.863C81.4393 126.413 81.5641 126.066 81.8136 125.822C82.0632 125.573 82.4131 125.448 82.8635 125.448H83.7765C84.2208 125.448 84.5677 125.573 84.8172 125.822C85.0668 126.066 85.1915 126.413 85.1915 126.863V129.903C85.1915 130.347 85.0668 130.694 84.8172 130.944C84.5677 131.193 84.2208 131.318 83.7765 131.318ZM88.1889 130.542H88.8371C89.2753 130.542 89.4945 130.317 89.4945 129.867V126.899C89.4945 126.449 89.2753 126.224 88.8371 126.224H88.1889C87.7507 126.224 87.5316 126.449 87.5316 126.899V129.867C87.5316 130.317 87.7507 130.542 88.1889 130.542ZM88.9649 131.318H88.052C87.6016 131.318 87.2516 131.193 87.0021 130.944C86.7526 130.694 86.6278 130.347 86.6278 129.903V126.863C86.6278 126.413 86.7526 126.066 87.0021 125.822C87.2516 125.573 87.6016 125.448 88.052 125.448H88.9649C89.4092 125.448 89.7562 125.573 90.0057 125.822C90.2552 126.066 90.38 126.413 90.38 126.863V129.903C90.38 130.347 90.2552 130.694 90.0057 130.944C89.7562 131.193 89.4092 131.318 88.9649 131.318Z" fill="#6EE5E5"/>
<path d="M77.0553 157.301H76.4254C76.3097 157.301 76.2823 157.243 76.3432 157.127L78.2969 152.252H75.9963C75.8928 152.252 75.8411 152.197 75.8411 152.088V151.585C75.8411 151.482 75.8928 151.43 75.9963 151.43H79.0912C79.2007 151.43 79.2555 151.482 79.2555 151.585V152.152C79.2555 152.249 79.222 152.377 79.1551 152.535L77.3109 157.154C77.2744 157.252 77.1892 157.301 77.0553 157.301ZM81.8949 156.525H82.5431C82.9813 156.525 83.2005 156.299 83.2005 155.849V152.882C83.2005 152.431 82.9813 152.206 82.5431 152.206H81.8949C81.4567 152.206 81.2376 152.431 81.2376 152.882V155.849C81.2376 156.299 81.4567 156.525 81.8949 156.525ZM82.6709 157.301H81.758C81.3076 157.301 80.9576 157.176 80.7081 156.926C80.4586 156.677 80.3338 156.33 80.3338 155.885V152.845C80.3338 152.395 80.4586 152.048 80.7081 151.805C80.9576 151.555 81.3076 151.43 81.758 151.43H82.6709C83.1152 151.43 83.4622 151.555 83.7117 151.805C83.9612 152.048 84.086 152.395 84.086 152.845V155.885C84.086 156.33 83.9612 156.677 83.7117 156.926C83.4622 157.176 83.1152 157.301 82.6709 157.301ZM87.0834 156.525H87.7316C88.1698 156.525 88.3889 156.299 88.3889 155.849V152.882C88.3889 152.431 88.1698 152.206 87.7316 152.206H87.0834C86.6452 152.206 86.4261 152.431 86.4261 152.882V155.849C86.4261 156.299 86.6452 156.525 87.0834 156.525ZM87.8594 157.301H86.9465C86.4961 157.301 86.1461 157.176 85.8966 156.926C85.647 156.677 85.5223 156.33 85.5223 155.885V152.845C85.5223 152.395 85.647 152.048 85.8966 151.805C86.1461 151.555 86.4961 151.43 86.9465 151.43H87.8594C88.3037 151.43 88.6506 151.555 88.9002 151.805C89.1497 152.048 89.2745 152.395 89.2745 152.845V155.885C89.2745 156.33 89.1497 156.677 88.9002 156.926C88.6506 157.176 88.3037 157.301 87.8594 157.301Z" fill="#6EE5E5"/>
<path d="M77.7218 182.507H78.3426C78.7808 182.507 78.9999 182.282 78.9999 181.831V181.101C78.9999 180.651 78.7808 180.425 78.3426 180.425H77.0644V181.831C77.0644 182.282 77.2835 182.507 77.7218 182.507ZM78.4704 183.283H77.594C77.1436 183.283 76.7936 183.158 76.5441 182.909C76.2945 182.659 76.1698 182.312 76.1698 181.868V178.828C76.1698 178.377 76.2945 178.03 76.5441 177.787C76.7936 177.537 77.1436 177.413 77.594 177.413H79.4107C79.5142 177.413 79.5659 177.464 79.5659 177.568V178.043C79.5659 178.14 79.5142 178.189 79.4107 178.189H77.7218C77.2835 178.189 77.0644 178.414 77.0644 178.864V179.649H78.4704C78.9208 179.649 79.2707 179.774 79.5203 180.024C79.7698 180.267 79.8946 180.614 79.8946 181.064V181.868C79.8946 182.312 79.7698 182.659 79.5203 182.909C79.2707 183.158 78.9208 183.283 78.4704 183.283ZM82.8311 182.507H83.4793C83.9175 182.507 84.1366 182.282 84.1366 181.831V178.864C84.1366 178.414 83.9175 178.189 83.4793 178.189H82.8311C82.3929 178.189 82.1737 178.414 82.1737 178.864V181.831C82.1737 182.282 82.3929 182.507 82.8311 182.507ZM83.6071 183.283H82.6941C82.2437 183.283 81.8938 183.158 81.6442 182.909C81.3947 182.659 81.2699 182.312 81.2699 181.868V178.828C81.2699 178.377 81.3947 178.03 81.6442 177.787C81.8938 177.537 82.2437 177.413 82.6941 177.413H83.6071C84.0514 177.413 84.3983 177.537 84.6478 177.787C84.8974 178.03 85.0221 178.377 85.0221 178.828V181.868C85.0221 182.312 84.8974 182.659 84.6478 182.909C84.3983 183.158 84.0514 183.283 83.6071 183.283ZM88.0195 182.507H88.6677C89.106 182.507 89.3251 182.282 89.3251 181.831V178.864C89.3251 178.414 89.106 178.189 88.6677 178.189H88.0195C87.5813 178.189 87.3622 178.414 87.3622 178.864V181.831C87.3622 182.282 87.5813 182.507 88.0195 182.507ZM88.7956 183.283H87.8826C87.4322 183.283 87.0822 183.158 86.8327 182.909C86.5832 182.659 86.4584 182.312 86.4584 181.868V178.828C86.4584 178.377 86.5832 178.03 86.8327 177.787C87.0822 177.537 87.4322 177.413 87.8826 177.413H88.7956C89.2399 177.413 89.5868 177.537 89.8363 177.787C90.0859 178.03 90.2106 178.377 90.2106 178.828V181.868C90.2106 182.312 90.0859 182.659 89.8363 182.909C89.5868 183.158 89.2399 183.283 88.7956 183.283Z" fill="#6EE5E5"/>
<path d="M78.1965 206.161H77.6305C77.5148 206.161 77.4174 206.183 77.3383 206.225C77.2653 206.268 77.2166 206.314 77.1923 206.362C77.1253 206.502 77.0431 206.572 76.9458 206.572H76.3706C76.2671 206.572 76.2154 206.52 76.2154 206.417V203.55C76.2154 203.447 76.2671 203.395 76.3706 203.395H79.4655C79.5751 203.395 79.6298 203.447 79.6298 203.55V204.071C79.6298 204.174 79.5751 204.226 79.4655 204.226H77.1101V205.887C77.2136 205.589 77.4692 205.44 77.877 205.44H78.4156C78.8538 205.44 79.1886 205.556 79.4198 205.787C79.6511 206.012 79.7668 206.347 79.7668 206.791V207.85C79.7668 208.295 79.642 208.642 79.3925 208.891C79.1429 209.141 78.796 209.265 78.3517 209.265H77.5757C77.1253 209.265 76.7753 209.141 76.5258 208.891C76.2823 208.642 76.1606 208.295 76.1606 207.85V207.613C76.1606 207.503 76.2124 207.449 76.3158 207.449H76.891C76.9944 207.449 77.0462 207.503 77.0462 207.613V207.841C77.0462 208.285 77.2653 208.508 77.7035 208.508H78.2239C78.6743 208.508 78.8995 208.285 78.8995 207.841V206.919C78.8995 206.645 78.8447 206.45 78.7351 206.335C78.6317 206.219 78.4521 206.161 78.1965 206.161ZM82.6706 208.489H83.3188C83.757 208.489 83.9761 208.264 83.9761 207.814V204.847C83.9761 204.396 83.757 204.171 83.3188 204.171H82.6706C82.2324 204.171 82.0133 204.396 82.0133 204.847V207.814C82.0133 208.264 82.2324 208.489 82.6706 208.489ZM83.4466 209.265H82.5336C82.0833 209.265 81.7333 209.141 81.4838 208.891C81.2342 208.642 81.1094 208.295 81.1094 207.85V204.81C81.1094 204.36 81.2342 204.013 81.4838 203.769C81.7333 203.52 82.0833 203.395 82.5336 203.395H83.4466C83.8909 203.395 84.2378 203.52 84.4874 203.769C84.7369 204.013 84.8617 204.36 84.8617 204.81V207.85C84.8617 208.295 84.7369 208.642 84.4874 208.891C84.2378 209.141 83.8909 209.265 83.4466 209.265ZM87.8591 208.489H88.5073C88.9455 208.489 89.1646 208.264 89.1646 207.814V204.847C89.1646 204.396 88.9455 204.171 88.5073 204.171H87.8591C87.4208 204.171 87.2017 204.396 87.2017 204.847V207.814C87.2017 208.264 87.4208 208.489 87.8591 208.489ZM88.6351 209.265H87.7221C87.2717 209.265 86.9218 209.141 86.6722 208.891C86.4227 208.642 86.2979 208.295 86.2979 207.85V204.81C86.2979 204.36 86.4227 204.013 86.6722 203.769C86.9218 203.52 87.2717 203.395 87.7221 203.395H88.6351C89.0794 203.395 89.4263 203.52 89.6758 203.769C89.9254 204.013 90.0501 204.36 90.0501 204.81V207.85C90.0501 208.295 89.9254 208.642 89.6758 208.891C89.4263 209.141 89.0794 209.265 88.6351 209.265Z" fill="#6EE5E5"/>
<path d="M78.6986 233.349V230.117L76.9001 233.349H78.6986ZM79.3925 235.248H78.8538C78.7504 235.248 78.6986 235.196 78.6986 235.093V234.134H76.2884C76.1119 234.134 76.0237 234.046 76.0237 233.869V233.586C76.0237 233.453 76.0511 233.334 76.1058 233.23L78.1417 229.606C78.1904 229.515 78.2361 229.454 78.2787 229.423C78.3213 229.393 78.3852 229.378 78.4704 229.378H79.2738C79.4503 229.378 79.5385 229.466 79.5385 229.643V233.349H80.205C80.3085 233.349 80.3602 233.401 80.3602 233.504V233.961C80.3602 234.076 80.3085 234.134 80.205 234.134H79.5385V235.093C79.5385 235.196 79.4898 235.248 79.3925 235.248ZM83.0005 234.472H83.6487C84.0869 234.472 84.306 234.247 84.306 233.796V230.829C84.306 230.379 84.0869 230.154 83.6487 230.154H83.0005C82.5622 230.154 82.3431 230.379 82.3431 230.829V233.796C82.3431 234.247 82.5622 234.472 83.0005 234.472ZM83.7765 235.248H82.8635C82.4131 235.248 82.0632 235.123 81.8136 234.874C81.5641 234.624 81.4393 234.277 81.4393 233.833V230.793C81.4393 230.342 81.5641 229.996 81.8136 229.752C82.0632 229.503 82.4131 229.378 82.8635 229.378H83.7765C84.2208 229.378 84.5677 229.503 84.8172 229.752C85.0668 229.996 85.1915 230.342 85.1915 230.793V233.833C85.1915 234.277 85.0668 234.624 84.8172 234.874C84.5677 235.123 84.2208 235.248 83.7765 235.248ZM88.1889 234.472H88.8371C89.2753 234.472 89.4945 234.247 89.4945 233.796V230.829C89.4945 230.379 89.2753 230.154 88.8371 230.154H88.1889C87.7507 230.154 87.5316 230.379 87.5316 230.829V233.796C87.5316 234.247 87.7507 234.472 88.1889 234.472ZM88.9649 235.248H88.052C87.6016 235.248 87.2516 235.123 87.0021 234.874C86.7526 234.624 86.6278 234.277 86.6278 233.833V230.793C86.6278 230.342 86.7526 229.996 87.0021 229.752C87.2516 229.503 87.6016 229.378 88.052 229.378H88.9649C89.4092 229.378 89.7562 229.503 90.0057 229.752C90.2552 229.996 90.38 230.342 90.38 230.793V233.833C90.38 234.277 90.2552 234.624 90.0057 234.874C89.7562 235.123 89.4092 235.248 88.9649 235.248Z" fill="#6EE5E5"/>
<path d="M77.6944 257.916H78.1965C78.6469 257.916 78.8721 257.694 78.8721 257.25V256.775C78.8721 256.337 78.6469 256.118 78.1965 256.118H77.6579C77.4327 256.118 77.2653 256.17 77.1557 256.273C77.0523 256.377 77.0005 256.544 77.0005 256.775V257.04C77.0005 257.144 76.9488 257.195 76.8453 257.195H76.261C76.1576 257.195 76.1058 257.144 76.1058 257.04V256.757C76.1058 256.313 76.2306 255.969 76.4802 255.725C76.7297 255.482 77.0797 255.36 77.53 255.36H78.3243C78.7747 255.36 79.1247 255.482 79.3742 255.725C79.6237 255.969 79.7485 256.313 79.7485 256.757V257.259C79.7485 257.795 79.5051 258.136 79.0182 258.282C79.5051 258.397 79.7485 258.738 79.7485 259.304V259.834C79.7485 260.278 79.6237 260.622 79.3742 260.865C79.1247 261.109 78.7747 261.23 78.3243 261.23H77.53C77.0797 261.23 76.7297 261.109 76.4802 260.865C76.2306 260.622 76.1058 260.278 76.1058 259.834V259.514C76.1058 259.405 76.1576 259.35 76.261 259.35H76.8453C76.9488 259.35 77.0005 259.405 77.0005 259.514V259.815C77.0005 260.041 77.0523 260.208 77.1557 260.318C77.2653 260.421 77.4327 260.473 77.6579 260.473H78.1965C78.6469 260.473 78.8721 260.254 78.8721 259.815V259.313C78.8721 258.869 78.6469 258.647 78.1965 258.647H77.6944C77.5909 258.647 77.5392 258.595 77.5392 258.492V258.081C77.5392 257.971 77.5909 257.916 77.6944 257.916ZM82.733 260.454H83.3812C83.8194 260.454 84.0385 260.229 84.0385 259.779V256.812C84.0385 256.361 83.8194 256.136 83.3812 256.136H82.733C82.2948 256.136 82.0757 256.361 82.0757 256.812V259.779C82.0757 260.229 82.2948 260.454 82.733 260.454ZM83.509 261.23H82.5961C82.1457 261.23 81.7957 261.106 81.5462 260.856C81.2966 260.607 81.1719 260.26 81.1719 259.815V256.775C81.1719 256.325 81.2966 255.978 81.5462 255.735C81.7957 255.485 82.1457 255.36 82.5961 255.36H83.509C83.9533 255.36 84.3002 255.485 84.5498 255.735C84.7993 255.978 84.9241 256.325 84.9241 256.775V259.815C84.9241 260.26 84.7993 260.607 84.5498 260.856C84.3002 261.106 83.9533 261.23 83.509 261.23ZM87.9215 260.454H88.5697C89.0079 260.454 89.227 260.229 89.227 259.779V256.812C89.227 256.361 89.0079 256.136 88.5697 256.136H87.9215C87.4833 256.136 87.2641 256.361 87.2641 256.812V259.779C87.2641 260.229 87.4833 260.454 87.9215 260.454ZM88.6975 261.23H87.7845C87.3341 261.23 86.9842 261.106 86.7346 260.856C86.4851 260.607 86.3603 260.26 86.3603 259.815V256.775C86.3603 256.325 86.4851 255.978 86.7346 255.735C86.9842 255.485 87.3341 255.36 87.7845 255.36H88.6975C89.1418 255.36 89.4887 255.485 89.7382 255.735C89.9878 255.978 90.1125 256.325 90.1125 256.775V259.815C90.1125 260.26 89.9878 260.607 89.7382 260.856C89.4887 261.106 89.1418 261.23 88.6975 261.23Z" fill="#6EE5E5"/>
<path d="M76.1515 287.058V286.218C76.1515 285.84 76.3128 285.524 76.6354 285.268L78.3608 283.862C78.653 283.631 78.799 283.363 78.799 283.059V282.758C78.799 282.319 78.5708 282.1 78.1143 282.1H77.667C77.4357 282.1 77.2683 282.152 77.1649 282.256C77.0614 282.359 77.0097 282.526 77.0097 282.758V283.095C77.0097 283.205 76.9579 283.26 76.8545 283.26H76.2702C76.1667 283.26 76.115 283.205 76.115 283.095V282.739C76.115 282.295 76.2397 281.951 76.4893 281.708C76.7388 281.464 77.0888 281.343 77.5392 281.343H78.2513C78.6956 281.343 79.0425 281.464 79.292 281.708C79.5416 281.951 79.6663 282.295 79.6663 282.739V283.114C79.6663 283.588 79.4807 283.978 79.1094 284.282L77.3566 285.716C77.2166 285.831 77.1466 285.968 77.1466 286.126V286.419H79.5203C79.6298 286.419 79.6846 286.47 79.6846 286.574V287.058C79.6846 287.161 79.6298 287.213 79.5203 287.213H76.3158C76.2063 287.213 76.1515 287.161 76.1515 287.058ZM82.5814 286.437H83.2296C83.6678 286.437 83.887 286.212 83.887 285.761V282.794C83.887 282.344 83.6678 282.119 83.2296 282.119H82.5814C82.1432 282.119 81.9241 282.344 81.9241 282.794V285.761C81.9241 286.212 82.1432 286.437 82.5814 286.437ZM83.3574 287.213H82.4445C81.9941 287.213 81.6441 287.088 81.3946 286.839C81.1451 286.589 81.0203 286.242 81.0203 285.798V282.758C81.0203 282.307 81.1451 281.96 81.3946 281.717C81.6441 281.467 81.9941 281.343 82.4445 281.343H83.3574C83.8017 281.343 84.1487 281.467 84.3982 281.717C84.6477 281.96 84.7725 282.307 84.7725 282.758V285.798C84.7725 286.242 84.6477 286.589 84.3982 286.839C84.1487 287.088 83.8017 287.213 83.3574 287.213ZM87.7699 286.437H88.4181C88.8563 286.437 89.0754 286.212 89.0754 285.761V282.794C89.0754 282.344 88.8563 282.119 88.4181 282.119H87.7699C87.3317 282.119 87.1126 282.344 87.1126 282.794V285.761C87.1126 286.212 87.3317 286.437 87.7699 286.437ZM88.5459 287.213H87.633C87.1826 287.213 86.8326 287.088 86.5831 286.839C86.3335 286.589 86.2088 286.242 86.2088 285.798V282.758C86.2088 282.307 86.3335 281.96 86.5831 281.717C86.8326 281.467 87.1826 281.343 87.633 281.343H88.5459C88.9902 281.343 89.3371 281.467 89.5867 281.717C89.8362 281.96 89.961 282.307 89.961 282.758V285.798C89.961 286.242 89.8362 286.589 89.5867 286.839C89.3371 287.088 88.9902 287.213 88.5459 287.213Z" fill="#6EE5E5"/>
<path d="M75.9324 308.758V308.22C75.9324 308.122 75.975 308.049 76.0602 308.001L77.0097 307.425C77.1253 307.359 77.2227 307.325 77.3018 307.325H77.8496C77.953 307.325 78.0048 307.377 78.0048 307.48V313.04C78.0048 313.144 77.9561 313.195 77.8587 313.195H77.2653C77.1618 313.195 77.1101 313.144 77.1101 313.04V308.275L76.115 308.85C75.9932 308.904 75.9324 308.874 75.9324 308.758ZM81.1193 312.419H81.7675C82.2057 312.419 82.4248 312.194 82.4248 311.744V308.777C82.4248 308.326 82.2057 308.101 81.7675 308.101H81.1193C80.6811 308.101 80.462 308.326 80.462 308.777V311.744C80.462 312.194 80.6811 312.419 81.1193 312.419ZM81.8953 313.195H80.9823C80.532 313.195 80.182 313.071 79.9325 312.821C79.6829 312.571 79.5581 312.225 79.5581 311.78V308.74C79.5581 308.29 79.6829 307.943 79.9325 307.699C80.182 307.45 80.532 307.325 80.9823 307.325H81.8953C82.3396 307.325 82.6865 307.45 82.9361 307.699C83.1856 307.943 83.3104 308.29 83.3104 308.74V311.78C83.3104 312.225 83.1856 312.571 82.9361 312.821C82.6865 313.071 82.3396 313.195 81.8953 313.195ZM86.3078 312.419H86.956C87.3942 312.419 87.6133 312.194 87.6133 311.744V308.777C87.6133 308.326 87.3942 308.101 86.956 308.101H86.3078C85.8695 308.101 85.6504 308.326 85.6504 308.777V311.744C85.6504 312.194 85.8695 312.419 86.3078 312.419ZM87.0838 313.195H86.1708C85.7204 313.195 85.3705 313.071 85.1209 312.821C84.8714 312.571 84.7466 312.225 84.7466 311.78V308.74C84.7466 308.29 84.8714 307.943 85.1209 307.699C85.3705 307.45 85.7204 307.325 86.1708 307.325H87.0838C87.5281 307.325 87.875 307.45 88.1245 307.699C88.3741 307.943 88.4988 308.29 88.4988 308.74V311.78C88.4988 312.225 88.3741 312.571 88.1245 312.821C87.875 313.071 87.5281 313.195 87.0838 313.195Z" fill="#6EE5E5"/>
<path d="M140.054 328.31H140.593C140.787 328.31 140.924 328.27 141.003 328.191C141.083 328.106 141.122 327.966 141.122 327.771V324.987C141.122 324.792 141.083 324.655 141.003 324.576C140.924 324.491 140.787 324.448 140.593 324.448H140.054C139.859 324.448 139.722 324.491 139.643 324.576C139.564 324.655 139.525 324.792 139.525 324.987V327.771C139.525 327.966 139.564 328.106 139.643 328.191C139.722 328.27 139.859 328.31 140.054 328.31ZM140.775 329.314H139.862C139.381 329.314 139.01 329.186 138.749 328.931C138.487 328.675 138.356 328.307 138.356 327.826V324.932C138.356 324.451 138.487 324.083 138.749 323.827C139.01 323.572 139.381 323.444 139.862 323.444H140.775C141.25 323.444 141.618 323.575 141.88 323.837C142.142 324.092 142.272 324.457 142.272 324.932V327.826C142.272 328.301 142.142 328.669 141.88 328.931C141.618 329.186 141.25 329.314 140.775 329.314ZM145.314 328.31H145.852C146.047 328.31 146.184 328.27 146.263 328.191C146.342 328.106 146.382 327.966 146.382 327.771V324.987C146.382 324.792 146.342 324.655 146.263 324.576C146.184 324.491 146.047 324.448 145.852 324.448H145.314C145.119 324.448 144.982 324.491 144.903 324.576C144.824 324.655 144.784 324.792 144.784 324.987V327.771C144.784 327.966 144.824 328.106 144.903 328.191C144.982 328.27 145.119 328.31 145.314 328.31ZM146.035 329.314H145.122C144.641 329.314 144.27 329.186 144.008 328.931C143.747 328.675 143.616 328.307 143.616 327.826V324.932C143.616 324.451 143.747 324.083 144.008 323.827C144.27 323.572 144.641 323.444 145.122 323.444H146.035C146.51 323.444 146.878 323.575 147.14 323.837C147.401 324.092 147.532 324.457 147.532 324.932V327.826C147.532 328.301 147.401 328.669 147.14 328.931C146.878 329.186 146.51 329.314 146.035 329.314ZM149.907 324.832V325.955C149.907 326.082 149.849 326.146 149.734 326.146H148.921C148.799 326.146 148.739 326.076 148.739 325.936V324.841C148.739 324.719 148.799 324.658 148.921 324.658H149.734C149.849 324.658 149.907 324.716 149.907 324.832ZM149.907 328V329.122C149.907 329.25 149.849 329.314 149.734 329.314H148.921C148.799 329.314 148.739 329.247 148.739 329.113V328.009C148.739 327.887 148.799 327.826 148.921 327.826H149.734C149.849 327.826 149.907 327.884 149.907 328ZM152.802 328.31H153.341C153.536 328.31 153.672 328.27 153.752 328.191C153.831 328.106 153.87 327.966 153.87 327.771V324.987C153.87 324.792 153.831 324.655 153.752 324.576C153.672 324.491 153.536 324.448 153.341 324.448H152.802C152.607 324.448 152.47 324.491 152.391 324.576C152.312 324.655 152.273 324.792 152.273 324.987V327.771C152.273 327.966 152.312 328.106 152.391 328.191C152.47 328.27 152.607 328.31 152.802 328.31ZM153.523 329.314H152.61C152.13 329.314 151.758 329.186 151.497 328.931C151.235 328.675 151.104 328.307 151.104 327.826V324.932C151.104 324.451 151.235 324.083 151.497 323.827C151.758 323.572 152.13 323.444 152.61 323.444H153.523C153.998 323.444 154.366 323.575 154.628 323.837C154.89 324.092 155.021 324.457 155.021 324.932V327.826C155.021 328.301 154.89 328.669 154.628 328.931C154.366 329.186 153.998 329.314 153.523 329.314ZM158.062 328.31H158.601C158.795 328.31 158.932 328.27 159.011 328.191C159.091 328.106 159.13 327.966 159.13 327.771V324.987C159.13 324.792 159.091 324.655 159.011 324.576C158.932 324.491 158.795 324.448 158.601 324.448H158.062C157.867 324.448 157.73 324.491 157.651 324.576C157.572 324.655 157.532 324.792 157.532 324.987V327.771C157.532 327.966 157.572 328.106 157.651 328.191C157.73 328.27 157.867 328.31 158.062 328.31ZM158.783 329.314H157.87C157.389 329.314 157.018 329.186 156.756 328.931C156.495 328.675 156.364 328.307 156.364 327.826V324.932C156.364 324.451 156.495 324.083 156.756 323.827C157.018 323.572 157.389 323.444 157.87 323.444H158.783C159.258 323.444 159.626 323.575 159.888 323.837C160.15 324.092 160.28 324.457 160.28 324.932V327.826C160.28 328.301 160.15 328.669 159.888 328.931C159.626 329.186 159.258 329.314 158.783 329.314ZM164.716 329.314H163.84C163.73 329.314 163.694 329.25 163.73 329.122L165.173 323.636C165.215 323.508 165.306 323.444 165.446 323.444H166.661C166.813 323.444 166.904 323.508 166.935 323.636L168.377 329.122C168.413 329.25 168.377 329.314 168.267 329.314H167.391C167.324 329.314 167.278 329.302 167.254 329.278C167.23 329.247 167.211 329.196 167.199 329.122L166.944 328.118H165.163L164.908 329.122C164.896 329.196 164.874 329.247 164.844 329.278C164.82 329.302 164.777 329.314 164.716 329.314ZM166.04 324.549L165.383 327.187H166.734L166.076 324.549H166.04ZM173.45 323.444H174.801C174.929 323.444 174.993 323.508 174.993 323.636V329.122C174.993 329.25 174.929 329.314 174.801 329.314H174.052C173.924 329.314 173.861 329.25 173.861 329.122V324.795H173.824L172.893 327.853C172.856 327.975 172.78 328.036 172.665 328.036H171.898C171.782 328.036 171.706 327.975 171.669 327.853L170.72 324.786H170.683V329.122C170.683 329.196 170.671 329.247 170.647 329.278C170.623 329.302 170.571 329.314 170.492 329.314H169.743C169.615 329.314 169.551 329.25 169.551 329.122V323.636C169.551 323.508 169.615 323.444 169.743 323.444H171.103C171.189 323.444 171.246 323.487 171.277 323.572L172.245 326.794H172.299L173.276 323.572C173.294 323.487 173.352 323.444 173.45 323.444Z" fill="#F2FFFF"/>
<path d="M197.454 328.31H197.993C198.188 328.31 198.325 328.27 198.404 328.191C198.483 328.106 198.523 327.966 198.523 327.771V324.987C198.523 324.792 198.483 324.655 198.404 324.576C198.325 324.491 198.188 324.448 197.993 324.448H197.454C197.26 324.448 197.123 324.491 197.044 324.576C196.964 324.655 196.925 324.792 196.925 324.987V327.771C196.925 327.966 196.964 328.106 197.044 328.191C197.123 328.27 197.26 328.31 197.454 328.31ZM198.176 329.314H197.263C196.782 329.314 196.411 329.186 196.149 328.931C195.887 328.675 195.756 328.307 195.756 327.826V324.932C195.756 324.451 195.887 324.083 196.149 323.827C196.411 323.572 196.782 323.444 197.263 323.444H198.176C198.65 323.444 199.019 323.575 199.28 323.837C199.542 324.092 199.673 324.457 199.673 324.932V327.826C199.673 328.301 199.542 328.669 199.28 328.931C199.019 329.186 198.65 329.314 198.176 329.314ZM200.742 325.078V324.33C200.742 324.226 200.788 324.147 200.879 324.092L201.71 323.572C201.85 323.487 201.969 323.444 202.066 323.444H202.796C202.924 323.444 202.988 323.508 202.988 323.636V329.122C202.988 329.196 202.973 329.247 202.942 329.278C202.918 329.302 202.872 329.314 202.806 329.314H202.02C201.893 329.314 201.829 329.25 201.829 329.122V324.676L200.934 325.188C200.806 325.242 200.742 325.206 200.742 325.078ZM205.462 324.832V325.955C205.462 326.082 205.404 326.146 205.289 326.146H204.476C204.354 326.146 204.293 326.076 204.293 325.936V324.841C204.293 324.719 204.354 324.658 204.476 324.658H205.289C205.404 324.658 205.462 324.716 205.462 324.832ZM205.462 328V329.122C205.462 329.25 205.404 329.314 205.289 329.314H204.476C204.354 329.314 204.293 329.247 204.293 329.113V328.009C204.293 327.887 204.354 327.826 204.476 327.826H205.289C205.404 327.826 205.462 327.884 205.462 328ZM208.357 328.31H208.896C209.09 328.31 209.227 328.27 209.306 328.191C209.386 328.106 209.425 327.966 209.425 327.771V324.987C209.425 324.792 209.386 324.655 209.306 324.576C209.227 324.491 209.09 324.448 208.896 324.448H208.357C208.162 324.448 208.025 324.491 207.946 324.576C207.867 324.655 207.828 324.792 207.828 324.987V327.771C207.828 327.966 207.867 328.106 207.946 328.191C208.025 328.27 208.162 328.31 208.357 328.31ZM209.078 329.314H208.165C207.684 329.314 207.313 329.186 207.051 328.931C206.79 328.675 206.659 328.307 206.659 327.826V324.932C206.659 324.451 206.79 324.083 207.051 323.827C207.313 323.572 207.684 323.444 208.165 323.444H209.078C209.553 323.444 209.921 323.575 210.183 323.837C210.445 324.092 210.575 324.457 210.575 324.932V327.826C210.575 328.301 210.445 328.669 210.183 328.931C209.921 329.186 209.553 329.314 209.078 329.314ZM213.617 328.31H214.155C214.35 328.31 214.487 328.27 214.566 328.191C214.645 328.106 214.685 327.966 214.685 327.771V324.987C214.685 324.792 214.645 324.655 214.566 324.576C214.487 324.491 214.35 324.448 214.155 324.448H213.617C213.422 324.448 213.285 324.491 213.206 324.576C213.127 324.655 213.087 324.792 213.087 324.987V327.771C213.087 327.966 213.127 328.106 213.206 328.191C213.285 328.27 213.422 328.31 213.617 328.31ZM214.338 329.314H213.425C212.944 329.314 212.573 329.186 212.311 328.931C212.05 328.675 211.919 328.307 211.919 327.826V324.932C211.919 324.451 212.05 324.083 212.311 323.827C212.573 323.572 212.944 323.444 213.425 323.444H214.338C214.813 323.444 215.181 323.575 215.443 323.837C215.704 324.092 215.835 324.457 215.835 324.932V327.826C215.835 328.301 215.704 328.669 215.443 328.931C215.181 329.186 214.813 329.314 214.338 329.314ZM220.271 329.314H219.394C219.285 329.314 219.248 329.25 219.285 329.122L220.727 323.636C220.77 323.508 220.861 323.444 221.001 323.444H222.216C222.368 323.444 222.459 323.508 222.489 323.636L223.932 329.122C223.968 329.25 223.932 329.314 223.822 329.314H222.946C222.879 329.314 222.833 329.302 222.809 329.278C222.785 329.247 222.766 329.196 222.754 329.122L222.499 328.118H220.718L220.463 329.122C220.45 329.196 220.429 329.247 220.399 329.278C220.374 329.302 220.332 329.314 220.271 329.314ZM221.595 324.549L220.937 327.187H222.289L221.631 324.549H221.595ZM229.005 323.444H230.356C230.484 323.444 230.547 323.508 230.547 323.636V329.122C230.547 329.25 230.484 329.314 230.356 329.314H229.607C229.479 329.314 229.415 329.25 229.415 329.122V324.795H229.379L228.448 327.853C228.411 327.975 228.335 328.036 228.219 328.036H227.453C227.337 328.036 227.261 327.975 227.224 327.853L226.275 324.786H226.238V329.122C226.238 329.196 226.226 329.247 226.202 329.278C226.177 329.302 226.126 329.314 226.047 329.314H225.298C225.17 329.314 225.106 329.25 225.106 329.122V323.636C225.106 323.508 225.17 323.444 225.298 323.444H226.658C226.744 323.444 226.801 323.487 226.832 323.572L227.799 326.794H227.854L228.831 323.572C228.849 323.487 228.907 323.444 229.005 323.444Z" fill="#F2FFFF"/>
<path d="M252.855 328.31H253.393C253.588 328.31 253.725 328.27 253.804 328.191C253.883 328.106 253.923 327.966 253.923 327.771V324.987C253.923 324.792 253.883 324.655 253.804 324.576C253.725 324.491 253.588 324.448 253.393 324.448H252.855C252.66 324.448 252.523 324.491 252.444 324.576C252.365 324.655 252.325 324.792 252.325 324.987V327.771C252.325 327.966 252.365 328.106 252.444 328.191C252.523 328.27 252.66 328.31 252.855 328.31ZM253.576 329.314H252.663C252.182 329.314 251.811 329.186 251.549 328.931C251.288 328.675 251.157 328.307 251.157 327.826V324.932C251.157 324.451 251.288 324.083 251.549 323.827C251.811 323.572 252.182 323.444 252.663 323.444H253.576C254.051 323.444 254.419 323.575 254.681 323.837C254.942 324.092 255.073 324.457 255.073 324.932V327.826C255.073 328.301 254.942 328.669 254.681 328.931C254.419 329.186 254.051 329.314 253.576 329.314ZM256.362 329.122V328.255C256.362 327.908 256.511 327.613 256.809 327.37L258.489 325.945C258.763 325.72 258.9 325.477 258.9 325.215V324.941C258.9 324.753 258.854 324.619 258.763 324.539C258.678 324.454 258.535 324.412 258.334 324.412H258.014C257.819 324.412 257.682 324.454 257.603 324.539C257.524 324.619 257.485 324.753 257.485 324.941V325.233C257.485 325.367 257.421 325.434 257.293 325.434H256.517C256.389 325.434 256.325 325.367 256.325 325.233V324.923C256.325 324.448 256.456 324.083 256.718 323.827C256.979 323.572 257.351 323.444 257.832 323.444H258.525C259.006 323.444 259.378 323.572 259.639 323.827C259.901 324.083 260.032 324.448 260.032 324.923V325.288C260.032 325.763 259.849 326.155 259.484 326.466L257.768 327.927C257.695 327.993 257.658 328.067 257.658 328.146V328.292H259.84C259.968 328.292 260.032 328.356 260.032 328.483V329.122C260.032 329.25 259.968 329.314 259.84 329.314H256.553C256.426 329.314 256.362 329.25 256.362 329.122ZM262.316 324.832V325.955C262.316 326.082 262.258 326.146 262.142 326.146H261.33C261.208 326.146 261.147 326.076 261.147 325.936V324.841C261.147 324.719 261.208 324.658 261.33 324.658H262.142C262.258 324.658 262.316 324.716 262.316 324.832ZM262.316 328V329.122C262.316 329.25 262.258 329.314 262.142 329.314H261.33C261.208 329.314 261.147 329.247 261.147 329.113V328.009C261.147 327.887 261.208 327.826 261.33 327.826H262.142C262.258 327.826 262.316 327.884 262.316 328ZM265.211 328.31H265.749C265.944 328.31 266.081 328.27 266.16 328.191C266.239 328.106 266.279 327.966 266.279 327.771V324.987C266.279 324.792 266.239 324.655 266.16 324.576C266.081 324.491 265.944 324.448 265.749 324.448H265.211C265.016 324.448 264.879 324.491 264.8 324.576C264.721 324.655 264.681 324.792 264.681 324.987V327.771C264.681 327.966 264.721 328.106 264.8 328.191C264.879 328.27 265.016 328.31 265.211 328.31ZM265.932 329.314H265.019C264.538 329.314 264.167 329.186 263.905 328.931C263.643 328.675 263.513 328.307 263.513 327.826V324.932C263.513 324.451 263.643 324.083 263.905 323.827C264.167 323.572 264.538 323.444 265.019 323.444H265.932C266.407 323.444 266.775 323.575 267.037 323.837C267.298 324.092 267.429 324.457 267.429 324.932V327.826C267.429 328.301 267.298 328.669 267.037 328.931C266.775 329.186 266.407 329.314 265.932 329.314ZM270.47 328.31H271.009C271.204 328.31 271.341 328.27 271.42 328.191C271.499 328.106 271.539 327.966 271.539 327.771V324.987C271.539 324.792 271.499 324.655 271.42 324.576C271.341 324.491 271.204 324.448 271.009 324.448H270.47C270.276 324.448 270.139 324.491 270.06 324.576C269.98 324.655 269.941 324.792 269.941 324.987V327.771C269.941 327.966 269.98 328.106 270.06 328.191C270.139 328.27 270.276 328.31 270.47 328.31ZM271.192 329.314H270.279C269.798 329.314 269.427 329.186 269.165 328.931C268.903 328.675 268.772 328.307 268.772 327.826V324.932C268.772 324.451 268.903 324.083 269.165 323.827C269.427 323.572 269.798 323.444 270.279 323.444H271.192C271.666 323.444 272.035 323.575 272.296 323.837C272.558 324.092 272.689 324.457 272.689 324.932V327.826C272.689 328.301 272.558 328.669 272.296 328.931C272.035 329.186 271.666 329.314 271.192 329.314ZM277.125 329.314H276.248C276.139 329.314 276.102 329.25 276.139 329.122L277.581 323.636C277.624 323.508 277.715 323.444 277.855 323.444H279.069C279.221 323.444 279.313 323.508 279.343 323.636L280.785 329.122C280.822 329.25 280.785 329.314 280.676 329.314H279.799C279.733 329.314 279.687 329.302 279.663 329.278C279.638 329.247 279.62 329.196 279.608 329.122L279.352 328.118H277.572L277.316 329.122C277.304 329.196 277.283 329.247 277.252 329.278C277.228 329.302 277.185 329.314 277.125 329.314ZM278.448 324.549L277.791 327.187H279.142L278.485 324.549H278.448ZM285.858 323.444H287.209C287.337 323.444 287.401 323.508 287.401 323.636V329.122C287.401 329.25 287.337 329.314 287.209 329.314H286.461C286.333 329.314 286.269 329.25 286.269 329.122V324.795H286.233L285.301 327.853C285.265 327.975 285.189 328.036 285.073 328.036H284.306C284.191 328.036 284.114 327.975 284.078 327.853L283.128 324.786H283.092V329.122C283.092 329.196 283.08 329.247 283.055 329.278C283.031 329.302 282.979 329.314 282.9 329.314H282.152C282.024 329.314 281.96 329.25 281.96 329.122V323.636C281.96 323.508 282.024 323.444 282.152 323.444H283.512C283.597 323.444 283.655 323.487 283.685 323.572L284.653 326.794H284.708L285.685 323.572C285.703 323.487 285.761 323.444 285.858 323.444Z" fill="#F2FFFF"/>
<path d="M310.254 328.31H310.793C310.988 328.31 311.125 328.27 311.204 328.191C311.283 328.106 311.322 327.966 311.322 327.771V324.987C311.322 324.792 311.283 324.655 311.204 324.576C311.125 324.491 310.988 324.448 310.793 324.448H310.254C310.059 324.448 309.923 324.491 309.843 324.576C309.764 324.655 309.725 324.792 309.725 324.987V327.771C309.725 327.966 309.764 328.106 309.843 328.191C309.923 328.27 310.059 328.31 310.254 328.31ZM310.975 329.314H310.062C309.582 329.314 309.21 329.186 308.949 328.931C308.687 328.675 308.556 328.307 308.556 327.826V324.932C308.556 324.451 308.687 324.083 308.949 323.827C309.21 323.572 309.582 323.444 310.062 323.444H310.975C311.45 323.444 311.818 323.575 312.08 323.837C312.342 324.092 312.473 324.457 312.473 324.932V327.826C312.473 328.301 312.342 328.669 312.08 328.931C311.818 329.186 311.45 329.314 310.975 329.314ZM315.331 325.9H315.797C315.998 325.9 316.141 325.86 316.226 325.781C316.317 325.696 316.363 325.559 316.363 325.37V324.941C316.363 324.753 316.317 324.619 316.226 324.539C316.141 324.454 315.998 324.412 315.797 324.412H315.359C315.164 324.412 315.027 324.454 314.948 324.539C314.869 324.619 314.829 324.753 314.829 324.941V325.169C314.829 325.297 314.765 325.361 314.638 325.361H313.862C313.734 325.361 313.67 325.297 313.67 325.169V324.923C313.67 324.448 313.801 324.083 314.062 323.827C314.324 323.572 314.695 323.444 315.176 323.444H315.989C316.47 323.444 316.841 323.572 317.103 323.827C317.364 324.083 317.495 324.448 317.495 324.923V325.379C317.495 325.891 317.255 326.222 316.774 326.375C317.255 326.478 317.495 326.81 317.495 327.37V327.835C317.495 328.31 317.364 328.675 317.103 328.931C316.841 329.186 316.47 329.314 315.989 329.314H315.176C314.695 329.314 314.324 329.186 314.062 328.931C313.801 328.675 313.67 328.31 313.67 327.835V327.58C313.67 327.446 313.734 327.379 313.862 327.379H314.638C314.765 327.379 314.829 327.446 314.829 327.58V327.817C314.829 328.012 314.869 328.149 314.948 328.228C315.027 328.307 315.164 328.346 315.359 328.346H315.797C315.998 328.346 316.141 328.307 316.226 328.228C316.317 328.143 316.363 328.006 316.363 327.817V327.37C316.363 327.181 316.317 327.047 316.226 326.968C316.141 326.883 315.998 326.84 315.797 326.84H315.331C315.204 326.84 315.14 326.776 315.14 326.648V326.101C315.14 325.967 315.204 325.9 315.331 325.9ZM319.858 324.832V325.955C319.858 326.082 319.8 326.146 319.684 326.146H318.872C318.75 326.146 318.689 326.076 318.689 325.936V324.841C318.689 324.719 318.75 324.658 318.872 324.658H319.684C319.8 324.658 319.858 324.716 319.858 324.832ZM319.858 328V329.122C319.858 329.25 319.8 329.314 319.684 329.314H318.872C318.75 329.314 318.689 329.247 318.689 329.113V328.009C318.689 327.887 318.75 327.826 318.872 327.826H319.684C319.8 327.826 319.858 327.884 319.858 328ZM322.753 328.31H323.291C323.486 328.31 323.623 328.27 323.702 328.191C323.781 328.106 323.821 327.966 323.821 327.771V324.987C323.821 324.792 323.781 324.655 323.702 324.576C323.623 324.491 323.486 324.448 323.291 324.448H322.753C322.558 324.448 322.421 324.491 322.342 324.576C322.263 324.655 322.223 324.792 322.223 324.987V327.771C322.223 327.966 322.263 328.106 322.342 328.191C322.421 328.27 322.558 328.31 322.753 328.31ZM323.474 329.314H322.561C322.08 329.314 321.709 329.186 321.447 328.931C321.185 328.675 321.055 328.307 321.055 327.826V324.932C321.055 324.451 321.185 324.083 321.447 323.827C321.709 323.572 322.08 323.444 322.561 323.444H323.474C323.949 323.444 324.317 323.575 324.579 323.837C324.84 324.092 324.971 324.457 324.971 324.932V327.826C324.971 328.301 324.84 328.669 324.579 328.931C324.317 329.186 323.949 329.314 323.474 329.314ZM328.012 328.31H328.551C328.746 328.31 328.883 328.27 328.962 328.191C329.041 328.106 329.081 327.966 329.081 327.771V324.987C329.081 324.792 329.041 324.655 328.962 324.576C328.883 324.491 328.746 324.448 328.551 324.448H328.012C327.818 324.448 327.681 324.491 327.602 324.576C327.523 324.655 327.483 324.792 327.483 324.987V327.771C327.483 327.966 327.523 328.106 327.602 328.191C327.681 328.27 327.818 328.31 328.012 328.31ZM328.734 329.314H327.821C327.34 329.314 326.969 329.186 326.707 328.931C326.445 328.675 326.314 328.307 326.314 327.826V324.932C326.314 324.451 326.445 324.083 326.707 323.827C326.969 323.572 327.34 323.444 327.821 323.444H328.734C329.208 323.444 329.577 323.575 329.838 323.837C330.1 324.092 330.231 324.457 330.231 324.932V327.826C330.231 328.301 330.1 328.669 329.838 328.931C329.577 329.186 329.208 329.314 328.734 329.314ZM334.667 329.314H333.79C333.681 329.314 333.644 329.25 333.681 329.122L335.123 323.636C335.166 323.508 335.257 323.444 335.397 323.444H336.611C336.763 323.444 336.855 323.508 336.885 323.636L338.328 329.122C338.364 329.25 338.328 329.314 338.218 329.314H337.342C337.275 329.314 337.229 329.302 337.205 329.278C337.18 329.247 337.162 329.196 337.15 329.122L336.894 328.118H335.114L334.858 329.122C334.846 329.196 334.825 329.247 334.794 329.278C334.77 329.302 334.727 329.314 334.667 329.314ZM335.99 324.549L335.333 327.187H336.684L336.027 324.549H335.99ZM343.4 323.444H344.751C344.879 323.444 344.943 323.508 344.943 323.636V329.122C344.943 329.25 344.879 329.314 344.751 329.314H344.003C343.875 329.314 343.811 329.25 343.811 329.122V324.795H343.775L342.843 327.853C342.807 327.975 342.731 328.036 342.615 328.036H341.848C341.733 328.036 341.657 327.975 341.62 327.853L340.671 324.786H340.634V329.122C340.634 329.196 340.622 329.247 340.598 329.278C340.573 329.302 340.521 329.314 340.442 329.314H339.694C339.566 329.314 339.502 329.25 339.502 329.122V323.636C339.502 323.508 339.566 323.444 339.694 323.444H341.054C341.139 323.444 341.197 323.487 341.227 323.572L342.195 326.794H342.25L343.227 323.572C343.245 323.487 343.303 323.444 343.4 323.444Z" fill="#F2FFFF"/>
<path d="M367.655 328.31H368.193C368.388 328.31 368.525 328.27 368.604 328.191C368.683 328.106 368.723 327.966 368.723 327.771V324.987C368.723 324.792 368.683 324.655 368.604 324.576C368.525 324.491 368.388 324.448 368.193 324.448H367.655C367.46 324.448 367.323 324.491 367.244 324.576C367.165 324.655 367.125 324.792 367.125 324.987V327.771C367.125 327.966 367.165 328.106 367.244 328.191C367.323 328.27 367.46 328.31 367.655 328.31ZM368.376 329.314H367.463C366.982 329.314 366.611 329.186 366.349 328.931C366.087 328.675 365.957 328.307 365.957 327.826V324.932C365.957 324.451 366.087 324.083 366.349 323.827C366.611 323.572 366.982 323.444 367.463 323.444H368.376C368.851 323.444 369.219 323.575 369.481 323.837C369.742 324.092 369.873 324.457 369.873 324.932V327.826C369.873 328.301 369.742 328.669 369.481 328.931C369.219 329.186 368.851 329.314 368.376 329.314ZM373.636 327.242V324.421L372.157 327.242H373.636ZM374.539 329.314H373.827C373.7 329.314 373.636 329.25 373.636 329.122V328.246H371.372C371.268 328.246 371.186 328.216 371.125 328.155C371.064 328.094 371.034 328.012 371.034 327.908V327.552C371.034 327.37 371.064 327.221 371.125 327.105L372.942 323.727C373.003 323.617 373.057 323.544 373.106 323.508C373.161 323.465 373.24 323.444 373.343 323.444H374.375C374.479 323.444 374.561 323.474 374.622 323.535C374.689 323.596 374.722 323.678 374.722 323.782V327.242H375.379C375.501 327.242 375.562 327.303 375.562 327.424V328.036C375.562 328.176 375.501 328.246 375.379 328.246H374.722V329.122C374.722 329.196 374.707 329.247 374.676 329.278C374.652 329.302 374.606 329.314 374.539 329.314ZM377.552 324.832V325.955C377.552 326.082 377.495 326.146 377.379 326.146H376.566C376.445 326.146 376.384 326.076 376.384 325.936V324.841C376.384 324.719 376.445 324.658 376.566 324.658H377.379C377.495 324.658 377.552 324.716 377.552 324.832ZM377.552 328V329.122C377.552 329.25 377.495 329.314 377.379 329.314H376.566C376.445 329.314 376.384 329.247 376.384 329.113V328.009C376.384 327.887 376.445 327.826 376.566 327.826H377.379C377.495 327.826 377.552 327.884 377.552 328ZM380.447 328.31H380.986C381.181 328.31 381.318 328.27 381.397 328.191C381.476 328.106 381.515 327.966 381.515 327.771V324.987C381.515 324.792 381.476 324.655 381.397 324.576C381.318 324.491 381.181 324.448 380.986 324.448H380.447C380.253 324.448 380.116 324.491 380.036 324.576C379.957 324.655 379.918 324.792 379.918 324.987V327.771C379.918 327.966 379.957 328.106 380.036 328.191C380.116 328.27 380.253 328.31 380.447 328.31ZM381.169 329.314H380.256C379.775 329.314 379.403 329.186 379.142 328.931C378.88 328.675 378.749 328.307 378.749 327.826V324.932C378.749 324.451 378.88 324.083 379.142 323.827C379.403 323.572 379.775 323.444 380.256 323.444H381.169C381.643 323.444 382.011 323.575 382.273 323.837C382.535 324.092 382.666 324.457 382.666 324.932V327.826C382.666 328.301 382.535 328.669 382.273 328.931C382.011 329.186 381.643 329.314 381.169 329.314ZM385.707 328.31H386.246C386.441 328.31 386.577 328.27 386.657 328.191C386.736 328.106 386.775 327.966 386.775 327.771V324.987C386.775 324.792 386.736 324.655 386.657 324.576C386.577 324.491 386.441 324.448 386.246 324.448H385.707C385.512 324.448 385.375 324.491 385.296 324.576C385.217 324.655 385.178 324.792 385.178 324.987V327.771C385.178 327.966 385.217 328.106 385.296 328.191C385.375 328.27 385.512 328.31 385.707 328.31ZM386.428 329.314H385.515C385.035 329.314 384.663 329.186 384.402 328.931C384.14 328.675 384.009 328.307 384.009 327.826V324.932C384.009 324.451 384.14 324.083 384.402 323.827C384.663 323.572 385.035 323.444 385.515 323.444H386.428C386.903 323.444 387.271 323.575 387.533 323.837C387.795 324.092 387.926 324.457 387.926 324.932V327.826C387.926 328.301 387.795 328.669 387.533 328.931C387.271 329.186 386.903 329.314 386.428 329.314ZM392.361 329.314H391.485C391.375 329.314 391.339 329.25 391.375 329.122L392.818 323.636C392.86 323.508 392.952 323.444 393.092 323.444H394.306C394.458 323.444 394.549 323.508 394.58 323.636L396.022 329.122C396.059 329.25 396.022 329.314 395.913 329.314H395.036C394.969 329.314 394.924 329.302 394.899 329.278C394.875 329.247 394.857 329.196 394.844 329.122L394.589 328.118H392.809L392.553 329.122C392.541 329.196 392.519 329.247 392.489 329.278C392.465 329.302 392.422 329.314 392.361 329.314ZM393.685 324.549L393.028 327.187H394.379L393.722 324.549H393.685ZM401.095 323.444H402.446C402.574 323.444 402.638 323.508 402.638 323.636V329.122C402.638 329.25 402.574 329.314 402.446 329.314H401.697C401.57 329.314 401.506 329.25 401.506 329.122V324.795H401.469L400.538 327.853C400.501 327.975 400.425 328.036 400.31 328.036H399.543C399.427 328.036 399.351 327.975 399.315 327.853L398.365 324.786H398.329V329.122C398.329 329.196 398.316 329.247 398.292 329.278C398.268 329.302 398.216 329.314 398.137 329.314H397.388C397.26 329.314 397.197 329.25 397.197 329.122V323.636C397.197 323.508 397.26 323.444 397.388 323.444H398.749C398.834 323.444 398.892 323.487 398.922 323.572L399.89 326.794H399.945L400.921 323.572C400.94 323.487 400.997 323.444 401.095 323.444Z" fill="#F2FFFF"/>
<path d="M425.055 328.31H425.594C425.788 328.31 425.925 328.27 426.004 328.191C426.084 328.106 426.123 327.966 426.123 327.771V324.987C426.123 324.792 426.084 324.655 426.004 324.576C425.925 324.491 425.788 324.448 425.594 324.448H425.055C424.86 324.448 424.723 324.491 424.644 324.576C424.565 324.655 424.525 324.792 424.525 324.987V327.771C424.525 327.966 424.565 328.106 424.644 328.191C424.723 328.27 424.86 328.31 425.055 328.31ZM425.776 329.314H424.863C424.382 329.314 424.011 329.186 423.749 328.931C423.488 328.675 423.357 328.307 423.357 327.826V324.932C423.357 324.451 423.488 324.083 423.749 323.827C424.011 323.572 424.382 323.444 424.863 323.444H425.776C426.251 323.444 426.619 323.575 426.881 323.837C427.143 324.092 427.273 324.457 427.273 324.932V327.826C427.273 328.301 427.143 328.669 426.881 328.931C426.619 329.186 426.251 329.314 425.776 329.314ZM430.625 326.329H430.196C430.038 326.329 429.916 326.393 429.831 326.521C429.752 326.648 429.667 326.712 429.575 326.712H428.818C428.69 326.712 428.626 326.651 428.626 326.53V323.636C428.626 323.508 428.69 323.444 428.818 323.444H431.995C432.122 323.444 432.186 323.508 432.186 323.636V324.33C432.186 324.457 432.122 324.521 431.995 324.521H429.785V325.863C429.889 325.559 430.144 325.407 430.552 325.407H430.936C431.879 325.407 432.351 325.878 432.351 326.822V327.826C432.351 328.301 432.22 328.669 431.958 328.931C431.696 329.186 431.328 329.314 430.853 329.314H430.05C429.569 329.314 429.198 329.186 428.936 328.931C428.675 328.675 428.544 328.307 428.544 327.826V327.644C428.544 327.51 428.608 327.443 428.735 327.443H429.511C429.639 327.443 429.703 327.51 429.703 327.644V327.817C429.703 328.006 429.743 328.143 429.822 328.228C429.907 328.307 430.044 328.346 430.233 328.346H430.662C430.856 328.346 431 328.307 431.091 328.228C431.182 328.143 431.228 328.006 431.228 327.817V326.995C431.228 326.74 431.185 326.566 431.1 326.475C431.015 326.378 430.856 326.329 430.625 326.329ZM434.632 324.832V325.955C434.632 326.082 434.574 326.146 434.458 326.146H433.646C433.524 326.146 433.463 326.076 433.463 325.936V324.841C433.463 324.719 433.524 324.658 433.646 324.658H434.458C434.574 324.658 434.632 324.716 434.632 324.832ZM434.632 328V329.122C434.632 329.25 434.574 329.314 434.458 329.314H433.646C433.524 329.314 433.463 329.247 433.463 329.113V328.009C433.463 327.887 433.524 327.826 433.646 327.826H434.458C434.574 327.826 434.632 327.884 434.632 328ZM437.527 328.31H438.065C438.26 328.31 438.397 328.27 438.476 328.191C438.555 328.106 438.595 327.966 438.595 327.771V324.987C438.595 324.792 438.555 324.655 438.476 324.576C438.397 324.491 438.26 324.448 438.065 324.448H437.527C437.332 324.448 437.195 324.491 437.116 324.576C437.037 324.655 436.997 324.792 436.997 324.987V327.771C436.997 327.966 437.037 328.106 437.116 328.191C437.195 328.27 437.332 328.31 437.527 328.31ZM438.248 329.314H437.335C436.854 329.314 436.483 329.186 436.221 328.931C435.96 328.675 435.829 328.307 435.829 327.826V324.932C435.829 324.451 435.96 324.083 436.221 323.827C436.483 323.572 436.854 323.444 437.335 323.444H438.248C438.723 323.444 439.091 323.575 439.353 323.837C439.614 324.092 439.745 324.457 439.745 324.932V327.826C439.745 328.301 439.614 328.669 439.353 328.931C439.091 329.186 438.723 329.314 438.248 329.314ZM442.787 328.31H443.325C443.52 328.31 443.657 328.27 443.736 328.191C443.815 328.106 443.855 327.966 443.855 327.771V324.987C443.855 324.792 443.815 324.655 443.736 324.576C443.657 324.491 443.52 324.448 443.325 324.448H442.787C442.592 324.448 442.455 324.491 442.376 324.576C442.297 324.655 442.257 324.792 442.257 324.987V327.771C442.257 327.966 442.297 328.106 442.376 328.191C442.455 328.27 442.592 328.31 442.787 328.31ZM443.508 329.314H442.595C442.114 329.314 441.743 329.186 441.481 328.931C441.219 328.675 441.088 328.307 441.088 327.826V324.932C441.088 324.451 441.219 324.083 441.481 323.827C441.743 323.572 442.114 323.444 442.595 323.444H443.508C443.982 323.444 444.351 323.575 444.612 323.837C444.874 324.092 445.005 324.457 445.005 324.932V327.826C445.005 328.301 444.874 328.669 444.612 328.931C444.351 329.186 443.982 329.314 443.508 329.314ZM449.441 329.314H448.564C448.455 329.314 448.418 329.25 448.455 329.122L449.897 323.636C449.94 323.508 450.031 323.444 450.171 323.444H451.385C451.537 323.444 451.629 323.508 451.659 323.636L453.102 329.122C453.138 329.25 453.102 329.314 452.992 329.314H452.116C452.049 329.314 452.003 329.302 451.979 329.278C451.954 329.247 451.936 329.196 451.924 329.122L451.668 328.118H449.888L449.632 329.122C449.62 329.196 449.599 329.247 449.568 329.278C449.544 329.302 449.502 329.314 449.441 329.314ZM450.764 324.549L450.107 327.187H451.458L450.801 324.549H450.764ZM458.174 323.444H459.525C459.653 323.444 459.717 323.508 459.717 323.636V329.122C459.717 329.25 459.653 329.314 459.525 329.314H458.777C458.649 329.314 458.585 329.25 458.585 329.122V324.795H458.549L457.617 327.853C457.581 327.975 457.505 328.036 457.389 328.036H456.622C456.507 328.036 456.431 327.975 456.394 327.853L455.445 324.786H455.408V329.122C455.408 329.196 455.396 329.247 455.372 329.278C455.347 329.302 455.295 329.314 455.216 329.314H454.468C454.34 329.314 454.276 329.25 454.276 329.122V323.636C454.276 323.508 454.34 323.444 454.468 323.444H455.828C455.913 323.444 455.971 323.487 456.001 323.572L456.969 326.794H457.024L458.001 323.572C458.019 323.487 458.077 323.444 458.174 323.444Z" fill="#F2FFFF"/>
<path d="M482.455 328.31H482.994C483.189 328.31 483.326 328.27 483.405 328.191C483.484 328.106 483.524 327.966 483.524 327.771V324.987C483.524 324.792 483.484 324.655 483.405 324.576C483.326 324.491 483.189 324.448 482.994 324.448H482.455C482.261 324.448 482.124 324.491 482.045 324.576C481.965 324.655 481.926 324.792 481.926 324.987V327.771C481.926 327.966 481.965 328.106 482.045 328.191C482.124 328.27 482.261 328.31 482.455 328.31ZM483.177 329.314H482.264C481.783 329.314 481.412 329.186 481.15 328.931C480.888 328.675 480.757 328.307 480.757 327.826V324.932C480.757 324.451 480.888 324.083 481.15 323.827C481.412 323.572 481.783 323.444 482.264 323.444H483.177C483.651 323.444 484.02 323.575 484.281 323.837C484.543 324.092 484.674 324.457 484.674 324.932V327.826C484.674 328.301 484.543 328.669 484.281 328.931C484.02 329.186 483.651 329.314 483.177 329.314ZM487.697 328.31H488.217C488.412 328.31 488.549 328.27 488.628 328.191C488.713 328.106 488.756 327.966 488.756 327.771V327.141C488.756 326.947 488.713 326.81 488.628 326.731C488.549 326.645 488.412 326.603 488.217 326.603H487.167V327.771C487.167 327.966 487.207 328.106 487.286 328.191C487.365 328.27 487.502 328.31 487.697 328.31ZM488.409 329.314H487.514C487.034 329.314 486.662 329.186 486.401 328.931C486.139 328.675 486.008 328.307 486.008 327.826V324.932C486.008 324.451 486.139 324.083 486.401 323.827C486.662 323.572 487.034 323.444 487.514 323.444H489.377C489.505 323.444 489.568 323.508 489.568 323.636V324.266C489.568 324.387 489.505 324.448 489.377 324.448H487.697C487.508 324.448 487.371 324.491 487.286 324.576C487.207 324.655 487.167 324.792 487.167 324.987V325.599H488.409C488.89 325.599 489.261 325.726 489.523 325.982C489.785 326.238 489.915 326.606 489.915 327.087V327.826C489.915 328.307 489.785 328.675 489.523 328.931C489.261 329.186 488.89 329.314 488.409 329.314ZM492.21 324.832V325.955C492.21 326.082 492.153 326.146 492.037 326.146H491.224C491.103 326.146 491.042 326.076 491.042 325.936V324.841C491.042 324.719 491.103 324.658 491.224 324.658H492.037C492.153 324.658 492.21 324.716 492.21 324.832ZM492.21 328V329.122C492.21 329.25 492.153 329.314 492.037 329.314H491.224C491.103 329.314 491.042 329.247 491.042 329.113V328.009C491.042 327.887 491.103 327.826 491.224 327.826H492.037C492.153 327.826 492.21 327.884 492.21 328ZM495.105 328.31H495.644C495.839 328.31 495.976 328.27 496.055 328.191C496.134 328.106 496.174 327.966 496.174 327.771V324.987C496.174 324.792 496.134 324.655 496.055 324.576C495.976 324.491 495.839 324.448 495.644 324.448H495.105C494.911 324.448 494.774 324.491 494.695 324.576C494.615 324.655 494.576 324.792 494.576 324.987V327.771C494.576 327.966 494.615 328.106 494.695 328.191C494.774 328.27 494.911 328.31 495.105 328.31ZM495.827 329.314H494.914C494.433 329.314 494.062 329.186 493.8 328.931C493.538 328.675 493.407 328.307 493.407 327.826V324.932C493.407 324.451 493.538 324.083 493.8 323.827C494.062 323.572 494.433 323.444 494.914 323.444H495.827C496.301 323.444 496.67 323.575 496.931 323.837C497.193 324.092 497.324 324.457 497.324 324.932V327.826C497.324 328.301 497.193 328.669 496.931 328.931C496.67 329.186 496.301 329.314 495.827 329.314ZM500.365 328.31H500.904C501.099 328.31 501.236 328.27 501.315 328.191C501.394 328.106 501.433 327.966 501.433 327.771V324.987C501.433 324.792 501.394 324.655 501.315 324.576C501.236 324.491 501.099 324.448 500.904 324.448H500.365C500.17 324.448 500.034 324.491 499.954 324.576C499.875 324.655 499.836 324.792 499.836 324.987V327.771C499.836 327.966 499.875 328.106 499.954 328.191C500.034 328.27 500.17 328.31 500.365 328.31ZM501.086 329.314H500.174C499.693 329.314 499.321 329.186 499.06 328.931C498.798 328.675 498.667 328.307 498.667 327.826V324.932C498.667 324.451 498.798 324.083 499.06 323.827C499.321 323.572 499.693 323.444 500.174 323.444H501.086C501.561 323.444 501.929 323.575 502.191 323.837C502.453 324.092 502.584 324.457 502.584 324.932V327.826C502.584 328.301 502.453 328.669 502.191 328.931C501.929 329.186 501.561 329.314 501.086 329.314ZM507.019 329.314H506.143C506.033 329.314 505.997 329.25 506.033 329.122L507.476 323.636C507.518 323.508 507.61 323.444 507.75 323.444H508.964C509.116 323.444 509.207 323.508 509.238 323.636L510.68 329.122C510.717 329.25 510.68 329.314 510.571 329.314H509.694C509.627 329.314 509.582 329.302 509.557 329.278C509.533 329.247 509.515 329.196 509.503 329.122L509.247 328.118H507.467L507.211 329.122C507.199 329.196 507.178 329.247 507.147 329.278C507.123 329.302 507.08 329.314 507.019 329.314ZM508.343 324.549L507.686 327.187H509.037L508.38 324.549H508.343ZM515.753 323.444H517.104C517.232 323.444 517.296 323.508 517.296 323.636V329.122C517.296 329.25 517.232 329.314 517.104 329.314H516.356C516.228 329.314 516.164 329.25 516.164 329.122V324.795H516.127L515.196 327.853C515.16 327.975 515.083 328.036 514.968 328.036H514.201C514.085 328.036 514.009 327.975 513.973 327.853L513.023 324.786H512.987V329.122C512.987 329.196 512.975 329.247 512.95 329.278C512.926 329.302 512.874 329.314 512.795 329.314H512.046C511.919 329.314 511.855 329.25 511.855 329.122V323.636C511.855 323.508 511.919 323.444 512.046 323.444H513.407C513.492 323.444 513.55 323.487 513.58 323.572L514.548 326.794H514.603L515.58 323.572C515.598 323.487 515.656 323.444 515.753 323.444Z" fill="#F2FFFF"/>
<path d="M539.855 328.31H540.393C540.588 328.31 540.725 328.27 540.804 328.191C540.883 328.106 540.923 327.966 540.923 327.771V324.987C540.923 324.792 540.883 324.655 540.804 324.576C540.725 324.491 540.588 324.448 540.393 324.448H539.855C539.66 324.448 539.523 324.491 539.444 324.576C539.365 324.655 539.325 324.792 539.325 324.987V327.771C539.325 327.966 539.365 328.106 539.444 328.191C539.523 328.27 539.66 328.31 539.855 328.31ZM540.576 329.314H539.663C539.182 329.314 538.811 329.186 538.549 328.931C538.288 328.675 538.157 328.307 538.157 327.826V324.932C538.157 324.451 538.288 324.083 538.549 323.827C538.811 323.572 539.182 323.444 539.663 323.444H540.576C541.051 323.444 541.419 323.575 541.681 323.837C541.942 324.092 542.073 324.457 542.073 324.932V327.826C542.073 328.301 541.942 328.669 541.681 328.931C541.419 329.186 541.051 329.314 540.576 329.314ZM544.476 329.314H543.617C543.563 329.314 543.523 329.299 543.499 329.269C543.48 329.232 543.487 329.183 543.517 329.122L545.443 324.503H543.298C543.17 324.503 543.106 324.439 543.106 324.311V323.636C543.106 323.508 543.17 323.444 543.298 323.444H546.493C546.621 323.444 546.685 323.508 546.685 323.636V324.403C546.685 324.524 546.642 324.689 546.557 324.896L544.786 329.141C544.737 329.256 544.634 329.314 544.476 329.314ZM548.745 324.832V325.955C548.745 326.082 548.687 326.146 548.572 326.146H547.759C547.637 326.146 547.576 326.076 547.576 325.936V324.841C547.576 324.719 547.637 324.658 547.759 324.658H548.572C548.687 324.658 548.745 324.716 548.745 324.832ZM548.745 328V329.122C548.745 329.25 548.687 329.314 548.572 329.314H547.759C547.637 329.314 547.576 329.247 547.576 329.113V328.009C547.576 327.887 547.637 327.826 547.759 327.826H548.572C548.687 327.826 548.745 327.884 548.745 328ZM551.64 328.31H552.179C552.373 328.31 552.51 328.27 552.59 328.191C552.669 328.106 552.708 327.966 552.708 327.771V324.987C552.708 324.792 552.669 324.655 552.59 324.576C552.51 324.491 552.373 324.448 552.179 324.448H551.64C551.445 324.448 551.308 324.491 551.229 324.576C551.15 324.655 551.111 324.792 551.111 324.987V327.771C551.111 327.966 551.15 328.106 551.229 328.191C551.308 328.27 551.445 328.31 551.64 328.31ZM552.361 329.314H551.448C550.968 329.314 550.596 329.186 550.335 328.931C550.073 328.675 549.942 328.307 549.942 327.826V324.932C549.942 324.451 550.073 324.083 550.335 323.827C550.596 323.572 550.968 323.444 551.448 323.444H552.361C552.836 323.444 553.204 323.575 553.466 323.837C553.728 324.092 553.859 324.457 553.859 324.932V327.826C553.859 328.301 553.728 328.669 553.466 328.931C553.204 329.186 552.836 329.314 552.361 329.314ZM556.9 328.31H557.438C557.633 328.31 557.77 328.27 557.849 328.191C557.928 328.106 557.968 327.966 557.968 327.771V324.987C557.968 324.792 557.928 324.655 557.849 324.576C557.77 324.491 557.633 324.448 557.438 324.448H556.9C556.705 324.448 556.568 324.491 556.489 324.576C556.41 324.655 556.37 324.792 556.37 324.987V327.771C556.37 327.966 556.41 328.106 556.489 328.191C556.568 328.27 556.705 328.31 556.9 328.31ZM557.621 329.314H556.708C556.227 329.314 555.856 329.186 555.594 328.931C555.333 328.675 555.202 328.307 555.202 327.826V324.932C555.202 324.451 555.333 324.083 555.594 323.827C555.856 323.572 556.227 323.444 556.708 323.444H557.621C558.096 323.444 558.464 323.575 558.726 323.837C558.987 324.092 559.118 324.457 559.118 324.932V327.826C559.118 328.301 558.987 328.669 558.726 328.931C558.464 329.186 558.096 329.314 557.621 329.314ZM563.554 329.314H562.678C562.568 329.314 562.531 329.25 562.568 329.122L564.01 323.636C564.053 323.508 564.144 323.444 564.284 323.444H565.499C565.651 323.444 565.742 323.508 565.772 323.636L567.215 329.122C567.251 329.25 567.215 329.314 567.105 329.314H566.229C566.162 329.314 566.116 329.302 566.092 329.278C566.068 329.247 566.049 329.196 566.037 329.122L565.782 328.118H564.001L563.746 329.122C563.734 329.196 563.712 329.247 563.682 329.278C563.657 329.302 563.615 329.314 563.554 329.314ZM564.878 324.549L564.22 327.187H565.572L564.914 324.549H564.878ZM572.288 323.444H573.639C573.767 323.444 573.83 323.508 573.83 323.636V329.122C573.83 329.25 573.767 329.314 573.639 329.314H572.89C572.762 329.314 572.698 329.25 572.698 329.122V324.795H572.662L571.731 327.853C571.694 327.975 571.618 328.036 571.502 328.036H570.736C570.62 328.036 570.544 327.975 570.507 327.853L569.558 324.786H569.521V329.122C569.521 329.196 569.509 329.247 569.485 329.278C569.46 329.302 569.409 329.314 569.33 329.314H568.581C568.453 329.314 568.389 329.25 568.389 329.122V323.636C568.389 323.508 568.453 323.444 568.581 323.444H569.941C570.027 323.444 570.084 323.487 570.115 323.572L571.083 326.794H571.137L572.114 323.572C572.132 323.487 572.19 323.444 572.288 323.444Z" fill="#F2FFFF"/>
<path d="M596.255 328.31H596.794C596.989 328.31 597.126 328.27 597.205 328.191C597.284 328.106 597.323 327.966 597.323 327.771V324.987C597.323 324.792 597.284 324.655 597.205 324.576C597.126 324.491 596.989 324.448 596.794 324.448H596.255C596.06 324.448 595.923 324.491 595.844 324.576C595.765 324.655 595.726 324.792 595.726 324.987V327.771C595.726 327.966 595.765 328.106 595.844 328.191C595.923 328.27 596.06 328.31 596.255 328.31ZM596.976 329.314H596.063C595.583 329.314 595.211 329.186 594.95 328.931C594.688 328.675 594.557 328.307 594.557 327.826V324.932C594.557 324.451 594.688 324.083 594.95 323.827C595.211 323.572 595.583 323.444 596.063 323.444H596.976C597.451 323.444 597.819 323.575 598.081 323.837C598.343 324.092 598.474 324.457 598.474 324.932V327.826C598.474 328.301 598.343 328.669 598.081 328.931C597.819 329.186 597.451 329.314 596.976 329.314ZM601.497 328.319H602.118C602.312 328.319 602.449 328.28 602.528 328.2C602.607 328.121 602.647 327.987 602.647 327.799V327.379C602.647 327.184 602.607 327.041 602.528 326.95C602.449 326.858 602.312 326.813 602.118 326.813H601.497C601.302 326.813 601.165 326.858 601.086 326.95C601.007 327.041 600.967 327.184 600.967 327.379V327.799C600.967 327.987 601.007 328.121 601.086 328.2C601.165 328.28 601.302 328.319 601.497 328.319ZM601.497 325.909H602.118C602.312 325.909 602.449 325.863 602.528 325.772C602.607 325.681 602.647 325.538 602.647 325.343V324.959C602.647 324.771 602.607 324.637 602.528 324.558C602.449 324.479 602.312 324.439 602.118 324.439H601.497C601.302 324.439 601.165 324.479 601.086 324.558C601.007 324.637 600.967 324.771 600.967 324.959V325.343C600.967 325.538 601.007 325.681 601.086 325.772C601.165 325.863 601.302 325.909 601.497 325.909ZM602.291 329.314H601.323C600.836 329.314 600.462 329.196 600.2 328.958C599.945 328.715 599.817 328.359 599.817 327.89V327.47C599.817 326.91 600.018 326.542 600.419 326.365C600.018 326.201 599.817 325.83 599.817 325.252V324.859C599.817 324.39 599.945 324.037 600.2 323.8C600.462 323.563 600.836 323.444 601.323 323.444H602.291C602.772 323.444 603.14 323.563 603.396 323.8C603.657 324.037 603.788 324.39 603.788 324.859V325.252C603.788 325.538 603.733 325.781 603.624 325.982C603.514 326.183 603.371 326.311 603.195 326.365C603.59 326.524 603.788 326.895 603.788 327.479V327.89C603.788 328.359 603.657 328.715 603.396 328.958C603.14 329.196 602.772 329.314 602.291 329.314ZM606.162 324.832V325.955C606.162 326.082 606.104 326.146 605.988 326.146H605.176C605.054 326.146 604.993 326.076 604.993 325.936V324.841C604.993 324.719 605.054 324.658 605.176 324.658H605.988C606.104 324.658 606.162 324.716 606.162 324.832ZM606.162 328V329.122C606.162 329.25 606.104 329.314 605.988 329.314H605.176C605.054 329.314 604.993 329.247 604.993 329.113V328.009C604.993 327.887 605.054 327.826 605.176 327.826H605.988C606.104 327.826 606.162 327.884 606.162 328ZM609.057 328.31H609.595C609.79 328.31 609.927 328.27 610.006 328.191C610.085 328.106 610.125 327.966 610.125 327.771V324.987C610.125 324.792 610.085 324.655 610.006 324.576C609.927 324.491 609.79 324.448 609.595 324.448H609.057C608.862 324.448 608.725 324.491 608.646 324.576C608.567 324.655 608.527 324.792 608.527 324.987V327.771C608.527 327.966 608.567 328.106 608.646 328.191C608.725 328.27 608.862 328.31 609.057 328.31ZM609.778 329.314H608.865C608.384 329.314 608.013 329.186 607.751 328.931C607.49 328.675 607.359 328.307 607.359 327.826V324.932C607.359 324.451 607.49 324.083 607.751 323.827C608.013 323.572 608.384 323.444 608.865 323.444H609.778C610.253 323.444 610.621 323.575 610.883 323.837C611.144 324.092 611.275 324.457 611.275 324.932V327.826C611.275 328.301 611.144 328.669 610.883 328.931C610.621 329.186 610.253 329.314 609.778 329.314ZM614.317 328.31H614.855C615.05 328.31 615.187 328.27 615.266 328.191C615.345 328.106 615.385 327.966 615.385 327.771V324.987C615.385 324.792 615.345 324.655 615.266 324.576C615.187 324.491 615.05 324.448 614.855 324.448H614.317C614.122 324.448 613.985 324.491 613.906 324.576C613.827 324.655 613.787 324.792 613.787 324.987V327.771C613.787 327.966 613.827 328.106 613.906 328.191C613.985 328.27 614.122 328.31 614.317 328.31ZM615.038 329.314H614.125C613.644 329.314 613.273 329.186 613.011 328.931C612.749 328.675 612.619 328.307 612.619 327.826V324.932C612.619 324.451 612.749 324.083 613.011 323.827C613.273 323.572 613.644 323.444 614.125 323.444H615.038C615.513 323.444 615.881 323.575 616.142 323.837C616.404 324.092 616.535 324.457 616.535 324.932V327.826C616.535 328.301 616.404 328.669 616.142 328.931C615.881 329.186 615.513 329.314 615.038 329.314ZM620.971 329.314H620.094C619.985 329.314 619.948 329.25 619.985 329.122L621.427 323.636C621.47 323.508 621.561 323.444 621.701 323.444H622.915C623.067 323.444 623.159 323.508 623.189 323.636L624.632 329.122C624.668 329.25 624.632 329.314 624.522 329.314H623.646C623.579 329.314 623.533 329.302 623.509 329.278C623.484 329.247 623.466 329.196 623.454 329.122L623.198 328.118H621.418L621.162 329.122C621.15 329.196 621.129 329.247 621.099 329.278C621.074 329.302 621.032 329.314 620.971 329.314ZM622.294 324.549L621.637 327.187H622.988L622.331 324.549H622.294ZM629.704 323.444H631.056C631.183 323.444 631.247 323.508 631.247 323.636V329.122C631.247 329.25 631.183 329.314 631.056 329.314H630.307C630.179 329.314 630.115 329.25 630.115 329.122V324.795H630.079L629.147 327.853C629.111 327.975 629.035 328.036 628.919 328.036H628.152C628.037 328.036 627.961 327.975 627.924 327.853L626.975 324.786H626.938V329.122C626.938 329.196 626.926 329.247 626.902 329.278C626.877 329.302 626.826 329.314 626.746 329.314H625.998C625.87 329.314 625.806 329.25 625.806 329.122V323.636C625.806 323.508 625.87 323.444 625.998 323.444H627.358C627.443 323.444 627.501 323.487 627.532 323.572L628.499 326.794H628.554L629.531 323.572C629.549 323.487 629.607 323.444 629.704 323.444Z" fill="#F2FFFF"/>
<path d="M653.656 328.31H654.194C654.389 328.31 654.526 328.27 654.605 328.191C654.684 328.106 654.724 327.966 654.724 327.771V324.987C654.724 324.792 654.684 324.655 654.605 324.576C654.526 324.491 654.389 324.448 654.194 324.448H653.656C653.461 324.448 653.324 324.491 653.245 324.576C653.166 324.655 653.126 324.792 653.126 324.987V327.771C653.126 327.966 653.166 328.106 653.245 328.191C653.324 328.27 653.461 328.31 653.656 328.31ZM654.377 329.314H653.464C652.983 329.314 652.612 329.186 652.35 328.931C652.088 328.675 651.957 328.307 651.957 327.826V324.932C651.957 324.451 652.088 324.083 652.35 323.827C652.612 323.572 652.983 323.444 653.464 323.444H654.377C654.852 323.444 655.22 323.575 655.481 323.837C655.743 324.092 655.874 324.457 655.874 324.932V327.826C655.874 328.301 655.743 328.669 655.481 328.931C655.22 329.186 654.852 329.314 654.377 329.314ZM658.824 326.219H659.883V324.987C659.883 324.792 659.841 324.655 659.755 324.576C659.676 324.491 659.539 324.448 659.344 324.448H658.824C658.629 324.448 658.492 324.491 658.413 324.576C658.334 324.655 658.295 324.792 658.295 324.987V325.69C658.295 325.878 658.334 326.015 658.413 326.101C658.492 326.18 658.629 326.219 658.824 326.219ZM659.527 329.314H657.601C657.467 329.314 657.4 329.25 657.4 329.122V328.493C657.4 328.371 657.467 328.31 657.601 328.31H659.344C659.539 328.31 659.676 328.27 659.755 328.191C659.834 328.106 659.874 327.966 659.874 327.771V327.224H658.632C658.152 327.224 657.78 327.096 657.519 326.84C657.257 326.584 657.126 326.219 657.126 325.745V324.932C657.126 324.451 657.257 324.083 657.519 323.827C657.78 323.572 658.152 323.444 658.632 323.444H659.527C660.008 323.444 660.379 323.572 660.641 323.827C660.903 324.083 661.033 324.451 661.033 324.932V327.826C661.033 328.307 660.903 328.675 660.641 328.931C660.379 329.186 660.008 329.314 659.527 329.314ZM663.411 324.832V325.955C663.411 326.082 663.353 326.146 663.237 326.146H662.425C662.303 326.146 662.242 326.076 662.242 325.936V324.841C662.242 324.719 662.303 324.658 662.425 324.658H663.237C663.353 324.658 663.411 324.716 663.411 324.832ZM663.411 328V329.122C663.411 329.25 663.353 329.314 663.237 329.314H662.425C662.303 329.314 662.242 329.247 662.242 329.113V328.009C662.242 327.887 662.303 327.826 662.425 327.826H663.237C663.353 327.826 663.411 327.884 663.411 328ZM666.306 328.31H666.844C667.039 328.31 667.176 328.27 667.255 328.191C667.334 328.106 667.374 327.966 667.374 327.771V324.987C667.374 324.792 667.334 324.655 667.255 324.576C667.176 324.491 667.039 324.448 666.844 324.448H666.306C666.111 324.448 665.974 324.491 665.895 324.576C665.816 324.655 665.776 324.792 665.776 324.987V327.771C665.776 327.966 665.816 328.106 665.895 328.191C665.974 328.27 666.111 328.31 666.306 328.31ZM667.027 329.314H666.114C665.633 329.314 665.262 329.186 665 328.931C664.738 328.675 664.608 328.307 664.608 327.826V324.932C664.608 324.451 664.738 324.083 665 323.827C665.262 323.572 665.633 323.444 666.114 323.444H667.027C667.502 323.444 667.87 323.575 668.132 323.837C668.393 324.092 668.524 324.457 668.524 324.932V327.826C668.524 328.301 668.393 328.669 668.132 328.931C667.87 329.186 667.502 329.314 667.027 329.314ZM671.565 328.31H672.104C672.299 328.31 672.436 328.27 672.515 328.191C672.594 328.106 672.634 327.966 672.634 327.771V324.987C672.634 324.792 672.594 324.655 672.515 324.576C672.436 324.491 672.299 324.448 672.104 324.448H671.565C671.371 324.448 671.234 324.491 671.155 324.576C671.075 324.655 671.036 324.792 671.036 324.987V327.771C671.036 327.966 671.075 328.106 671.155 328.191C671.234 328.27 671.371 328.31 671.565 328.31ZM672.287 329.314H671.374C670.893 329.314 670.522 329.186 670.26 328.931C669.998 328.675 669.867 328.307 669.867 327.826V324.932C669.867 324.451 669.998 324.083 670.26 323.827C670.522 323.572 670.893 323.444 671.374 323.444H672.287C672.761 323.444 673.13 323.575 673.391 323.837C673.653 324.092 673.784 324.457 673.784 324.932V327.826C673.784 328.301 673.653 328.669 673.391 328.931C673.13 329.186 672.761 329.314 672.287 329.314ZM678.22 329.314H677.343C677.234 329.314 677.197 329.25 677.234 329.122L678.676 323.636C678.719 323.508 678.81 323.444 678.95 323.444H680.164C680.316 323.444 680.408 323.508 680.438 323.636L681.88 329.122C681.917 329.25 681.88 329.314 681.771 329.314H680.894C680.828 329.314 680.782 329.302 680.758 329.278C680.733 329.247 680.715 329.196 680.703 329.122L680.447 328.118H678.667L678.411 329.122C678.399 329.196 678.378 329.247 678.347 329.278C678.323 329.302 678.28 329.314 678.22 329.314ZM679.543 324.549L678.886 327.187H680.237L679.58 324.549H679.543ZM686.953 323.444H688.304C688.432 323.444 688.496 323.508 688.496 323.636V329.122C688.496 329.25 688.432 329.314 688.304 329.314H687.556C687.428 329.314 687.364 329.25 687.364 329.122V324.795H687.327L686.396 327.853C686.36 327.975 686.284 328.036 686.168 328.036H685.401C685.286 328.036 685.209 327.975 685.173 327.853L684.223 324.786H684.187V329.122C684.187 329.196 684.175 329.247 684.15 329.278C684.126 329.302 684.074 329.314 683.995 329.314H683.247C683.119 329.314 683.055 329.25 683.055 329.122V323.636C683.055 323.508 683.119 323.444 683.247 323.444H684.607C684.692 323.444 684.75 323.487 684.78 323.572L685.748 326.794H685.803L686.78 323.572C686.798 323.487 686.856 323.444 686.953 323.444Z" fill="#F2FFFF"/>
</g>
<defs>
<filter id="filter0_bd_763_308" x="-7.05931" y="-11.0593" width="797.119" height="447.916" filterUnits="userSpaceOnUse" color-interpolation-filters="sRGB">
<feFlood flood-opacity="0" result="BackgroundImageFix"/>
<feGaussianBlur in="BackgroundImageFix" stdDeviation="28.5297"/>
<feComposite in2="SourceAlpha" operator="in" result="effect1_backgroundBlur_763_308"/>
<feColorMatrix in="SourceAlpha" type="matrix" values="0 0 0 0 0 0 0 0 0 0 0 0 0 0 0 0 0 0 127 0" result="hardAlpha"/>
<feOffset dy="3.65128"/>
<feGaussianBlur stdDeviation="24.6461"/>
<feComposite in2="hardAlpha" operator="out"/>
<feColorMatrix type="matrix" values="0 0 0 0 0.14751 0 0 0 0 0.14751 0 0 0 0 0.14751 0 0 0 0.86 0"/>
<feBlend mode="normal" in2="effect1_backgroundBlur_763_308" result="effect2_dropShadow_763_308"/>
<feBlend mode="normal" in="SourceGraphic" in2="effect2_dropShadow_763_308" result="shape"/>
</filter>
</defs>
</svg>
